<?xml version="1.0" encoding="UTF-8"?>
<svg id="Layer_1" data-name="Layer 1" xmlns="http://www.w3.org/2000/svg" viewBox="0 0 325.07 312.13">
  <defs>
    <style>
      .admin-1 {
        fill: #fbb429;
      }

      .admin-2 {
        fill: #0101a2;
      }

      .admin-3 {
        fill: #21d0c3;
      }

      .admin-4 {
        fill: #eb9;
      }

      .admin-5 {
        fill: #fc7a51;
      }
    </style>
  </defs>
  <path class="admin-4" d="M142.62,158.88c-.77,.54-1.65,.96-2.2,1.78-.9,.28-1.38,1.05-1.99,1.68-.12,.08-.27,.13-.37,.23-8.72,8.9-12.23,19.5-10,31.79,1.75,9.63,6.92,17.13,14.99,22.64,1.04,.78,2.17,1.41,3.35,1.93,1.72,1.01,3.55,1.78,5.49,2.25,.68,.41,1.45,.5,2.21,.66,.05,.05,.09,.14,.14,.15,5.09,1.08,10.18,1.25,15.31,.23,15.69-3.11,27.67-17.23,28.03-33.23,.25-10.8-3.59-19.95-11.58-27.25-11.96-10.94-30.14-12.11-43.4-2.87Z"/>
  <path class="admin-5" d="M90.58,268.65c-.76,2.28-1.39,4.63-1.58,7.06-.35,.7-.23,1.49-.43,2.23-.02,.28-.04,.56-.06,.84-.06,.18-.07,.35-.07,.51-.43,2.85-.46,5.72-.31,8.59,0,.07,.01,.15,.02,.22-.02,.11-.05,.22-.05,.33,0,7.63,0,15.27,0,22.9,0,.22-.15,.54,.24,.62h0s0,0,0,0c.14,0,.28,0,.42,0,0,0,0,0,0,0,5.59,.02,11.18,.04,16.78,.04,.91,0,2.21,.42,2.63-.16,.43-.6,.03-1.81,0-2.75,0-.26,.04-.51,.02-.77-.34-6.09-.68-12.18-1.01-18.28-.1-1.72-.25-3.45-.24-5.17,.01-1.86,1.75-3.5,3.57-3.54,1.77-.04,3.53,1.54,3.65,3.33,.3,4.91,.58,9.83,.86,14.75,.22,3.93,.46,7.86,.63,11.79,.03,.75,.26,.87,.96,.86,10.38-.03,20.75-.01,31.13-.02,2.35,0,4.7-.04,7.06-.07,.14,.02,.29,.05,.43,.05,10.28,0,20.56,0,30.84-.01,.4,0,.8-.04,1.21-.05,.29,.04,.58,.1,.87,.1,6.84,0,13.68-.02,20.52,0,.64,0,.69-.23,.72-.75,.15-3.01,.35-6.01,.48-9.02,.25-5.54,.81-11.06,.8-16.62,.3-1.16,.3-2.44,1.36-3.29,.5-.45,1.08-.75,1.72-.96,.67-.16,1.33-.03,1.99,.07,.68,.32,1.22,.82,1.73,1.35,.51,.8,.71,1.68,.75,2.62-.03,.13-.05,.26-.08,.38-.27,1.05-.19,2.1-.13,3.16-.03,.29-.08,.58-.1,.88-.38,7.05-.74,14.1-1.15,21.15-.05,.78,0,1.04,.91,1.03,6.14-.05,12.29-.04,18.43,0,.7,0,.91-.13,.9-.88-.04-3.83,.04-7.65-.03-11.48-.14-7.09,.41-14.2-.44-21.28-.72-6.02-2.37-11.78-4.93-17.26-4.28-9.17-10.54-16.73-18.79-22.62-8.43-6.02-17.85-9.4-28.12-10.5-.57-.06-.9,.11-1.24,.59-5.78,8.32-11.68,16.56-17.35,24.95-1.82,2.69-5.26,2.79-7.12,.05-5.65-8.36-11.52-16.58-17.27-24.87-.42-.6-.83-.8-1.51-.71-2.54,.36-5.09,.66-7.58,1.3-21.21,5.41-35.12,18.62-42.02,39.31Z"/>
  <path class="admin-2" d="M200.12,92.02c-2.05-2.79-5.98-3.3-8.93-1.16-.59,.43-1.18,.87-1.78,1.31-8.58,6.31-17.16,12.62-25.74,18.93-.37,.27-.61,.57-1.19,.14-5.68-4.23-11.4-8.42-17.11-12.62-3.91-2.87-7.8-5.77-11.73-8.61-2.87-2.08-6.84-1.4-8.9,1.46-1.99,2.76-1.31,6.74,1.51,8.81,1.92,1.41,3.83,2.84,5.76,4.25,7.67,5.63,15.33,11.26,23.01,16.86,.85,.62,1.22,1.26,1.18,2.35-.1,2.5-.03,5-.03,7.51,.03,0,.05,0,.08,0,0,2.87-.13,5.75,.03,8.61,.19,3.45,3.45,6.01,6.87,5.62,3.37-.39,5.64-2.92,5.67-6.46,.04-5.04,.03-10.08,.01-15.12,0-.6,.12-1.03,.64-1.4,2.03-1.45,4.03-2.94,6.04-4.42,7.72-5.68,15.45-11.35,23.16-17.03,3.02-2.22,3.62-6.07,1.43-9.04Z"/>
  <path class="admin-2" d="M206.99,70.26c3.24-.04,6.48,.03,9.71-.05,1.02-.02,1.39,.33,1.61,1.27,.57,2.5,1.37,4.94,2.53,7.24,.05,.34,.1,.67,.4,.89,.61,1.82,1.62,3.44,2.61,5.07,.37,.61,.45,.94-.15,1.51-2.44,2.34-4.78,4.78-7.21,7.14-.51,.5-.46,.68,.03,1.15,2.72,2.69,5.38,5.43,8.07,8.14,2.16,2.18,4.34,4.33,6.76,6.73,2.55-2.66,5.08-5.28,7.57-7.93,.47-.5,.77-.63,1.42-.22,4.24,2.63,8.79,4.51,13.66,5.62,.64,.15,.85,.4,.85,1.08-.04,3.38,0,6.77-.04,10.16,0,.65,.11,.88,.83,.87,6.62-.03,13.25-.03,19.87,0,.75,0,.91-.21,.9-.92-.05-3.24,0-6.48-.07-9.71-.02-.97,.26-1.34,1.25-1.58,4.62-1.12,9-2.89,13.04-5.42,.82-.51,1.27-.41,1.91,.24,2.31,2.37,4.69,4.67,7.01,7.03,.45,.46,.65,.46,1.1,0,4.66-4.7,9.33-9.38,14.04-14.03,.55-.55,.47-.8-.02-1.28-2.44-2.39-4.84-4.83-7.26-7.24-.37-.37-.56-.63-.22-1.19,2.7-4.28,4.62-8.9,5.81-13.82,.17-.7,.46-.81,1.11-.8,3.35,.03,6.7-.02,10.04,0,.69,0,.93-.14,.92-.89-.03-6.59-.03-13.17,0-19.76,0-.7-.14-.93-.89-.92-3.38,.04-6.77,0-10.15,.03-.62,0-.86-.15-1.01-.79-1.19-4.87-3.12-9.45-5.7-13.75-.37-.62-.32-.97,.18-1.46,2.39-2.34,4.73-4.73,7.13-7.07,.52-.51,.55-.76,.02-1.29-4.7-4.65-9.38-9.33-14.04-14.03-.46-.46-.71-.52-1.19-.02-2.3,2.38-4.67,4.7-6.96,7.09-.62,.65-1.01,.78-1.87,.26-4.15-2.54-8.61-4.41-13.34-5.55-.76-.18-1.01-.41-.99-1.2,.05-3.31,0-6.62,.04-9.93,.01-.77-.18-.96-.96-.96-6.55,.04-13.1,.04-19.64,0-.78,0-.89,.23-.88,.92,.03,3.31,0,6.62,.03,9.93,0,.74-.14,1.05-.95,1.24-4.78,1.13-9.28,2.99-13.45,5.57-.82,.51-1.18,.38-1.78-.23-2.49-2.55-5.03-5.05-7.48-7.5-1.92,1.87-3.84,3.74-5.76,5.61-.47,.41-.95,.81-1.29,1.34-.54,.35-.94,.83-1.36,1.31-2.2,2.07-4.33,4.21-6.4,6.41-.64,.34-.34,.6,.02,.96,2.47,2.47,4.9,4.98,7.39,7.43,.44,.43,.41,.64,.1,1.14-2.6,4.25-4.51,8.8-5.66,13.65-.21,.87-.58,1.02-1.34,1.01-3.24-.03-6.48,0-9.71-.06-.88-.02-1.1,.22-1.1,1.09,.04,6.51,.03,13.02,0,19.53,0,.74,.19,.92,.92,.91Zm58.92-40.82c16.42,.18,30,14.15,29.65,30.49-.35,16.54-14.27,29.98-30.63,29.58-16.03-.39-29.48-14.21-29.36-30.18,.12-16.45,13.95-30.08,30.34-29.9Z"/>
  <path class="admin-5" d="M.69,50.93c6.55-.02,13.1-.03,19.64,0,.67,0,.79-.24,.95-.83,4.17-15,13.71-24.64,28.76-28.75,.62-.17,.88-.35,.88-1.08-.04-6.36-.05-12.73,.02-19.09,.01-1.1-.34-1.21-1.24-1.04-2.56,.48-5.1,1-7.6,1.75-6.08,1.82-11.74,4.53-16.95,8.17-.22,.15-.44,.29-.65,.44h0c-.79,.53-1.57,1.06-2.24,1.74-.21,.15-.43,.31-.64,.46-.25,.12-.45,.3-.63,.49-.39,.34-.78,.68-1.17,1.02h0c-.61,.5-1.25,.97-1.76,1.58-.94,.96-1.88,1.92-2.81,2.88-.01,0-.02,0-.03,0-.09,.1-.18,.21-.26,.31-.04,.04-.08,.08-.12,.13h0c-.06,.09-.13,.16-.19,.24,0,0-.01-.01-.02-.02l-2.03,2.44s-.02,0-.03,0c-.1,.13-.19,.26-.29,.39-.2,.25-.41,.49-.61,.74,.01,.01,.03,.02,.04,.04-.37,.5-.74,1-1.11,1.5,0,0,0,.02,0,.02-.15,.2-.3,.39-.45,.59-.01,0-.02,0-.03,0-.19,.26-.38,.52-.57,.78-.12,.15-.23,.31-.35,.46,0,0,.02,.01,.03,.02-.4,.6-.77,1.22-1.08,1.87,0,0,0,0,0,0-.46,.78-.91,1.55-1.37,2.33-.16,.23-.33,.46-.46,.71-.09,.18-.18,.35-.27,.53-.06,.1-.12,.21-.18,.31,0,0,.01,0,.02,.01C2.96,37.78,1.06,43.84,.04,50.2c-.1,.61,.05,.74,.64,.73Z"/>
  <path class="admin-2" d="M61.6,33.02c-.26,0-.52,0-.77,0v.03c-.48,0-.96-.05-1.43,0-1.59,.19-2.47,1.09-2.62,2.62-.1,1.06-.22,2.12-.24,3.19-.01,.62-.19,.91-.83,1.02-.79,.14-1.56,.38-2.32,.65-8.61,3.02-8.92,13.07-5.12,17.7,1.93,2.35,4.55,3.51,7.26,4.59,1.7,.68,3.48,1.17,5.06,2.12,1,.6,1.72,1.38,1.48,2.69-.24,1.33-1.21,1.86-2.37,2.15-1.78,.45-3.58,.35-5.36,0-1.71-.33-3.24-1.12-4.76-1.94-2.02-1.09-3.82-.17-4.06,2.1-.11,1.02-.11,2.04-.11,3.08,0,2.25,1.17,3.55,3.13,4.3,.96,.37,1.93,.71,2.92,.96,.73,.18,1.17,.32,.95,1.27-.24,1.07-.27,2.19-.33,3.29-.08,1.54,.6,2.41,2.11,2.76,1.38,.32,2.78,.31,4.15,0,.8-.18,1.44-.53,1.76-1.43,.53-1.49,.44-3.05,.6-4.57,.07-.68,.28-.95,.92-1.04,1.72-.24,3.36-.78,4.89-1.59,4.16-2.21,6.27-5.7,6.39-10.4,.12-4.7-2-8.07-6.11-10.25-1.95-1.03-4.03-1.75-6.09-2.52-1.17-.44-2.36-.85-3.31-1.69-1.44-1.26-1.08-3.1,.74-3.67,.87-.27,1.79-.34,2.72-.3,2.22,.1,4.18,1,6.15,1.91,1.71,.79,2.98,.34,3.57-1.26,.14-.37,.18-.78,.24-1.18,.55-4.1-.4-5.9-3.67-7.08-.78-.28-1.95-.17-2.24-.88-.3-.72,.05-1.72,.15-2.6,.35-2.88-.56-3.95-3.44-4.02Z"/>
  <path class="admin-1" d="M113.83,34.99c-5.63-12.51-14.49-22.06-26.57-28.58-5.93-3.19-12.24-5.26-18.9-6.27-.49-.07-1-.3-.99,.62,.03,6.51,.03,13.02,0,19.54,0,.66,.23,.89,.81,1.03,7.45,1.77,13.82,5.44,19.09,10.97,6.68,7.03,10.27,15.43,10.77,25.13,.24,4.63-.45,9.14-1.73,13.57-.13,.21-.28,.41-.22,.68-.82,2.15-1.73,4.27-2.86,6.28-.43,.76-1.3,1.59-1.18,2.24,.14,.75,1.15,1.35,1.8,1.99,4.14,4.14,8.29,8.26,12.4,12.41,.5,.5,.7,.49,1.1-.09,1.29-1.88,2.61-3.73,3.73-5.72,6.16-10.94,8.68-22.64,7.57-35.16-.58-6.49-2.14-12.72-4.81-18.65Z"/>
  <path class="admin-3" d="M.04,68.11c.3,1.36,.51,2.74,.82,4.09,2.93,13.09,9.5,24.04,19.76,32.64,12.4,10.39,26.79,15,42.97,13.91,8.7-.59,16.83-3.06,24.47-7.23,2.49-1.36,4.85-2.92,7.16-4.65-1.23-1.22-2.38-2.36-3.52-3.5-3.64-3.64-7.27-7.28-10.91-10.92-.26-.26-.42-.63-.98-.3-1.77,1.03-3.59,1.96-5.39,2.92-.79,.16-1.54,.41-2.2,.9-.49-.04-.92,.2-1.37,.34-6.32,1.97-12.73,2.38-19.21,1.05-10.43-2.14-18.63-7.68-24.71-16.39-.64-1.04-1.29-2.08-1.93-3.12-1.66-3.12-2.96-6.39-3.74-9.84-.14-.62-.45-.54-.84-.54-6.59,0-13.17,0-19.76-.01-.52,0-.74,.08-.61,.66Z"/>
  <path class="admin-4" d="M60.91,219.5c15.46,.11,28.02-12.31,28.23-27.98,.2-15.09-12.38-27.98-27.46-28.19-15.69-.21-28.48,11.98-28.7,27.71-.21,15.89,12.49,28.35,27.93,28.46Z"/>
  <path class="admin-1" d="M309.72,290.28c4.41-.05,8.83-.05,13.25,0,.82,0,.95-.26,.95-1-.03-5.11-.05-10.23-.01-15.34,.03-4.86-.05-9.7-1.12-14.47-4.37-19.54-20.38-33.9-40.24-36.17-.66-.08-.96,.07-1.32,.59-4.38,6.34-8.79,12.66-13.2,18.98-.46,.66-.87,1.38-1.44,1.95-1.44,1.46-4.09,1.73-5.97-1-4.58-6.65-9.26-13.23-13.87-19.85-.34-.49-.64-.72-1.24-.61-1.01,.18-2.03,.29-3.05,.46-8.35,1.4-15.65,5.04-22.11,10.45-.57,.47-.5,.69,.03,1.11,6.33,5.17,11.53,11.3,15.53,18.43,4.2,7.47,6.82,15.45,7.89,23.96,.47,3.74,.49,7.48,.44,11.23-.01,.9,.07,1.32,1.2,1.3,4.82-.08,9.64-.04,14.46-.04h0c7.64,0,15.28,0,22.93,0,5.89,0,11.77,0,17.66,0,.42,0,.98,.24,.99-.6,0-1.17,.12-2.35,.18-3.52,.32-5.73,.63-11.45,.95-17.18,.04-.67,.17-1.31,.53-1.88,.89-1.4,2.63-2.09,4.11-1.67,1.55,.44,2.67,1.94,2.59,3.66-.33,6.72-.69,13.44-1.07,20.15-.04,.79,.08,1.06,.96,1.05Z"/>
  <path class="admin-3" d="M81.49,275.5c.22-1.07,.44-2.15,.67-3.22,1.94-8.96,5.54-17.19,10.91-24.65,3.26-4.53,7.04-8.57,11.32-12.13,.65-.54,.86-.78,.03-1.46-4.92-4.1-10.4-7.11-16.51-8.99-2.53-.78-5.12-1.29-7.74-1.64-.86-.12-1.66-.1-2.1,.89-.19,.42-.58,.75-.85,1.14-4.27,6.1-8.54,12.21-12.81,18.32-.33,.48-.67,.96-1.16,1.31-1.88,1.35-4.09,.85-5.6-1.3-4.65-6.64-9.28-13.29-13.93-19.94-.22-.31-.33-.69-.91-.58-1.37,.26-2.78,.32-4.14,.6-11.09,2.28-20.28,7.73-27.36,16.61-5.86,7.35-9.24,15.75-9.93,25.11-.59,7.96-.14,15.96-.24,23.94,0,.54,.1,.77,.72,.77,4.59-.03,9.18-.03,13.77,0,.64,0,.74-.21,.67-.77-.1-.84-.14-1.68-.2-2.53-.01-.03-.03-.06-.05-.09-.02-.41-.05-.82-.07-1.23,.03-.4,.04-.78-.04-1.16-.27-5.17-.58-10.34-.81-15.51-.09-1.97,1.43-3.55,3.34-3.66,2.05-.12,3.7,1.25,3.94,3.31,.1,.87,.1,1.76,.15,2.64-.04,.36-.06,.72,.1,1.07,.1,1.93,.21,3.86,.31,5.79,0,.3,0,.6,.01,.89,.2,3.56,.41,7.11,.59,10.67,.03,.55,.29,.56,.7,.56,1.62-.01,3.24,0,4.85,0,17.15,0,34.3,0,51.44,0,.3-.06,.26-.31,.25-.51-.01-1.88-.03-3.76-.05-5.64,.1-1.68,.19-3.35,.29-5.03,.14-1.19,.28-2.38,.42-3.56Z"/>
  <path class="admin-4" d="M246.07,213.01c5.93,5,12.89,7,20.58,6.36,3.26-.27,6.43-1.07,9.35-2.65,.87-.34,1.7-.74,2.47-1.28,2.26-1.45,4.4-3.05,6.17-5.09,.57-.67,1.15-1.34,1.72-2.01,5.35-7.24,6.98-15.32,4.76-23.97-3.67-14.32-17.59-23.26-32.28-20.57-12.71,2.33-21.93,12.69-22.84,25.64-.67,9.49,2.78,17.42,10.05,23.56Z"/>
</svg>