<?xml version="1.0" encoding="utf-8"?>
<!-- Generator: Adobe Illustrator 26.5.0, SVG Export Plug-In . SVG Version: 6.00 Build 0)  -->
<svg version="1.1" id="Layer_1" xmlns="http://www.w3.org/2000/svg" xmlns:xlink="http://www.w3.org/1999/xlink" x="0px" y="0px"
	 viewBox="0 0 338.37 336.99" style="enable-background:new 0 0 338.37 336.99;" xml:space="preserve">
<style type="text/css">
	.designCircled0{fill:#2BE0C6;}
	.designCircled1{fill:#999999;}
	.designCircled2{fill:#FDFDFD;}
	.designCircled3{fill:#D1D2D1;}
	.designCircled4{fill:#FFFFFF;}
	.designCircled5{fill:#B6B6B8;}
	.designCircled6{fill:#ECF0F1;}
	.designCircled7{fill:#666666;}
	.designCircled8{fill:#D6D6D6;}
	.designCircled9{fill:#FCFCFD;}
	.designCircled10{fill:#FCFCFC;}
	.designCircled11{fill:#FBFBFB;}
	.designCircled12{fill:#E4E4E4;}
	.designCircled13{fill:#DDDDDD;}
	.designCircled14{fill:#E3E3E3;}
	.designCircled15{fill:#FBB429;}
	.designCircled16{fill:#FF5B62;}
	.designCircled17{fill:#21D0C3;}
	.designCircled18{fill:#D1D1D1;}
	.designCircled19{fill:#D2D2D2;}
	.designCircled20{fill:#D2D2D1;}
	.designCircled21{fill:#D4D4D4;}
	.designCircled22{fill:#D9D9D9;}
	.designCircled23{fill:#D2D3D3;}
	.designCircled24{fill:#DFE0DF;}
	.designCircled25{fill:#DADADA;}
	.designCircled26{fill:#E2E3E2;}
	.designCircled27{fill:#DEDEDE;}
	.designCircled28{fill:#D5D5D5;}
	.designCircled29{fill:#D3D3D2;}
	.designCircled30{fill:#D8D8D8;}
	.designCircled31{fill:#D5D6D6;}
	.designCircled32{fill:#DDDCDD;}
	.designCircled33{fill:#F3F3F3;}
	.designCircled34{fill:#F7F7F7;}
	.designCircled35{fill:#F9FAFA;}
	.designCircled36{fill:#F5F5F5;}
	.designCircled37{fill:#FBFCFC;}
	.designCircled38{fill:#F9F9F9;}
	.designCircled39{fill:#E1E1E1;}
	.designCircled40{fill:#F6F6F6;}
</style>
<g>
	<path class="designCircled0" d="M305.59,70.29c4.96,6.61,9.1,13.68,12.87,21.05c4.4,8.61,8.13,17.45,11.03,26.67
		c3.64,11.61,5.92,23.48,7,35.59c1.78,19.88,0.02,39.48-5.27,58.68c-8.91,32.33-26.04,59.66-51.15,81.9
		c-19.35,17.13-41.57,29.14-66.47,35.95c-20.32,5.56-41,7.24-62.03,5.02c-23.41-2.47-45.35-9.38-65.72-21.09
		c-31.18-17.92-54.35-43.29-69.57-75.88c-6.64-14.21-11.08-29.12-13.4-44.6c-2.4-15.98-2.52-32-0.35-48.07
		C6.2,118.17,16.1,93.34,31.94,70.83c0.16-0.23,0.36-0.43,0.54-0.64c1.5,1.32,1.11,3.11,1.12,4.75c0.04,12.7,0.02,25.41,0.02,38.11
		c0,30.4,0,60.8,0,91.19c0,1.88,0.11,3.77-0.25,5.63c-0.73,5.81-0.22,11.64-0.34,17.47c-0.07,3.67-0.04,7.33-0.01,11
		c0.08,8.95,4.2,13.08,13.2,13.17c6.58,0.06,13.16,0.01,19.75,0.02c20.97,0,41.94-0.01,62.91,0.02c1.74,0,3.62-0.38,5.09,1.03
		c0.61,0.93,0.59,1.97,0.4,3c-1.89,10.17-3.26,20.42-5.25,30.57c-0.2,1-0.26,2.07-1.14,2.81c-2.33,1.1-4.82,0.44-7.24,0.65
		c-1.27,0.11-2.85-0.15-2.81,1.88c0.04,1.99,1.62,1.79,2.89,1.81c3.67,0.08,7.34,0.03,11.01,0.03c27.86,0,55.73,0,83.59,0
		c1.04,0,2.07,0.02,3.11-0.04c1.25-0.07,2.23-0.39,2.18-1.95c-0.05-1.43-1.03-1.63-2.13-1.69c-1.5-0.09-3.01-0.02-4.52-0.05
		c-1.31-0.03-2.65,0.08-3.87-0.55c-0.95-0.64-1.2-1.68-1.36-2.69c-1.58-10.31-3.58-20.55-5.01-30.89c-0.1-0.75-0.2-1.49-0.01-2.24
		c0.45-1.31,1.58-1.5,2.72-1.61c1.22-0.13,2.44-0.08,3.67-0.08c26.9,0,53.79,0,80.69,0c2.16,0,4.32,0.01,6.42-0.66
		c4.83-1.53,7.11-4.45,7.15-9.56c0.06-9.22,0.02-18.43,0.02-27.65c0-1.22,0.01-2.44,0.1-3.66c-0.15-1.03-0.13-2.07-0.13-3.1
		c0-43.67-0.01-87.33,0.03-131C304.48,73.99,303.89,71.89,305.59,70.29z"/>
	<path class="designCircled0" d="M47.38,52.39c8-9.04,17.29-16.59,27.22-23.38c15.94-10.9,33.29-18.82,51.99-23.64
		c21.34-5.49,42.96-6.78,64.86-3.85c22.44,3,43.4,10.18,62.86,21.7c13.51,8,25.88,17.47,36.45,29.16c-0.68,0.98-1.75,1-2.77,1.09
		c-1.03,0.09-2.07,0.05-3.1,0.05c-77.21,0-154.41,0.01-231.62-0.03C51.27,53.5,49.07,54.13,47.38,52.39z"/>
	<path class="designCircled1" d="M47.38,52.39c1.03,0.04,2.06,0.12,3.1,0.12c79.06,0.01,158.12,0.01,237.18,0c1.03,0,2.06-0.08,3.1-0.12
		c1.4,0.04,2.81,0.09,4.21,0.13c6.08,0.16,10.4,4.41,10.57,10.45c0.07,2.44,0.04,4.88,0.06,7.32c-0.02,29.27-0.04,58.55-0.08,87.82
		c-0.02,17.32-0.06,34.64-0.1,51.95c-0.79,0.8-1.8,0.97-2.85,1.02c-1.03,0.05-2.07,0.04-3.11,0.04c-86.98,0-173.97,0.01-260.95-0.03
		c-2,0-4.18,0.59-5.92-1.05c-0.02-28.01-0.04-56.02-0.06-84.03c-0.01-18.61-0.03-37.22-0.05-55.82c0.01-2.15,0.02-4.31,0.04-6.46
		c0.07-6.93,4.29-11.14,11.21-11.21C44.95,52.5,46.16,52.43,47.38,52.39z"/>
	<path class="designCircled2" d="M32.59,210.04c90.94,0.01,181.89,0.01,272.83,0.02c0.02,10.91,0.15,21.82,0.01,32.73
		c-0.07,5.58-5.14,9.57-11.77,9.58c-17.5,0.03-35,0.01-52.5,0.01c-11.38,0-22.77-0.01-34.15,0.01c-1.04,0-2.36-0.46-2.79,1.14
		c-2.65-0.74-5.37-0.66-8.09-0.66c-18.42,0.01-36.85,0.02-55.27-0.02c-2.35-0.01-4.68,0.33-7.02,0.17c-0.88-1.08-2.1-0.62-3.16-0.62
		c-28.32-0.03-56.63-0.02-84.95-0.02c-9.2,0-13.55-4.38-13.55-13.66c0-8.56-0.01-17.12,0.01-25.68
		C32.19,212.04,31.91,210.97,32.59,210.04z"/>
	<path class="designCircled3" d="M133.84,253.03c0.72-1.11,1.82-1.1,2.98-1.1c21.43,0.02,42.85,0.03,64.28,0c1.4,0,2.6,0.08,3.13,1.62
		c1.73,10.2,3.47,20.41,5.19,30.61c0.25,1.47,0.46,2.95,0.69,4.43c-1,1.13-2.38,1.03-3.67,1.03c-24.92,0.04-49.83,0.03-74.75,0
		c-1.3,0-2.67,0.1-3.69-0.99c1.38-8.43,2.76-16.87,4.14-25.3C132.69,259.89,133.27,256.46,133.84,253.03z"/>
	<path class="designCircled2" d="M127.99,288.62c27.37-0.01,54.74-0.03,82.11-0.04c3.01,0.04,6.02,0.22,9.01,0.07
		c2.16-0.11,2.69,0.66,2.69,2.73c0,2.13-0.49,2.9-2.81,2.9c-26.78-0.06-53.56-0.01-80.34,0c-6.48,0-12.97-0.14-19.45,0
		c-2.3,0.05-2.58-0.91-2.59-2.83c-0.01-1.97,0.37-2.93,2.63-2.79C122.15,288.82,125.08,288.65,127.99,288.62z"/>
	<path class="designCircled4" d="M169.32,62.83c40.95,0,81.89,0.02,122.84-0.06c2.43,0,3.15,0.5,3.14,3.06c-0.09,43.67-0.08,87.35-0.01,131.02
		c0,2.42-0.75,2.9-3.02,2.9c-82.17-0.06-164.35-0.06-246.52,0c-2.32,0-2.99-0.55-2.98-2.93c0.07-43.67,0.08-87.35-0.02-131.02
		c-0.01-2.62,0.79-3.04,3.17-3.04C87.05,62.85,128.18,62.83,169.32,62.83z"/>
	<path class="designCircled5" d="M169.02,236.25c-3-0.01-5.36-2.42-5.28-5.35c0.09-2.83,2.43-5.06,5.3-5.06c2.87,0.01,5.21,2.26,5.28,5.08
		C174.39,233.87,172.01,236.26,169.02,236.25z"/>
	<path class="designCircled6" d="M168.76,194.31c-39.06,0-78.12,0-117.18,0c-3.66,0-3.67,0-3.67-3.67c0-39.44,0-78.87,0-118.31c0-4,0-4,4.07-4
		c78.03,0,156.06,0.01,234.09-0.06c2.77,0,3.66,0.56,3.65,3.53c-0.11,39.72-0.1,79.44-0.01,119.16c0.01,2.76-0.8,3.41-3.48,3.4
		C247.07,194.28,207.92,194.31,168.76,194.31z"/>
	<path class="designCircled2" d="M158.32,186.4c-25.13,0-50.26-0.04-75.38,0.06c-2.68,0.01-3.48-0.66-3.47-3.41c0.1-30.02,0.1-60.04,0-90.06
		c-0.01-2.66,0.8-3.27,3.34-3.27c50.35,0.07,100.7,0.07,151.05,0c2.56,0,3.33,0.64,3.32,3.28c-0.09,30.11-0.09,60.23,0,90.34
		c0.01,2.55-0.76,3.12-3.19,3.11C208.76,186.37,183.54,186.4,158.32,186.4z"/>
	<path class="designCircled7" d="M158,89.2c-25.13,0-50.26-0.04-75.38,0.07c-2.54,0.01-3.35-0.64-3.03-3.11c0.3-2.31-0.96-5.34,0.46-6.81
		c1.56-1.61,4.65-0.55,7.06-0.55c48.75-0.03,97.5-0.02,146.25-0.02c3.82,0,3.82,0,3.82,3.68c0,6.74,0,6.74-6.61,6.74
		C206.38,89.2,182.19,89.2,158,89.2z"/>
	<path class="designCircled2" d="M263.51,125.98c-6.2,0-12.41-0.01-18.61,0.01c-1.34,0-2.43-0.07-2.42-1.88c0.1-10.64,0.21-21.29,0.18-31.93
		c-0.01-2.12,0.88-2.45,2.7-2.44c12.22,0.06,24.44,0.07,36.66-0.01c1.99-0.01,2.58,0.63,2.56,2.59c-0.08,10.43-0.07,20.87,0,31.3
		c0.01,1.88-0.65,2.42-2.46,2.39C275.92,125.93,269.71,125.98,263.51,125.98z"/>
	<path class="designCircled2" d="M284.51,136.55c0.01,8.84-0.02,17.68,0.07,26.53c0.02,1.82-0.53,2.46-2.4,2.45
		c-12.42-0.07-24.83-0.05-37.25-0.01c-1.55,0-2.49-0.28-2.46-2.14c0.14-8.91,0.21-17.82,0.3-26.73c0.9-0.82,2.03-0.9,3.16-0.91
		c11.89-0.04,23.78-0.05,35.67,0C282.64,135.74,283.66,135.84,284.51,136.55z"/>
	<path class="designCircled7" d="M284.51,136.55c-13.92,0.03-27.83,0.05-41.75,0.08c-0.02-0.09-0.04-0.18-0.06-0.28
		c-0.77-5.13-0.77-5.12,4.31-5.12c11.24,0,22.47,0,33.71,0c3.83,0,3.83,0,3.8,3.91C284.52,135.62,284.51,136.09,284.51,136.55z"/>
	<path class="designCircled7" d="M263.39,89.2c-6.21,0-12.41-0.11-18.62,0.06c-2.24,0.06-2.36-0.92-2.31-2.64c0.04-1.53-0.02-2.6,2.14-2.59
		c12.6,0.1,25.2,0.12,37.79-0.01c2.49-0.03,2.04,1.33,2.16,2.82c0.15,1.79-0.34,2.44-2.27,2.4C275.99,89.12,269.69,89.2,263.39,89.2
		z"/>
	<path class="designCircled8" d="M53.49,167.77c-0.86-0.85-0.53-1.95-0.53-2.94c-0.02-18.95-0.02-37.89,0-56.84c0-0.99-0.35-2.09,0.54-2.93
		c0.26,0.2,0.45,0.44,0.58,0.74c0.57,2.03,0.26,4.11,0.32,6.16c0.05,1.64,0.76,2.27,2.4,2.39c5.97,0.45,5.99,0.47,5.99-5.48
		c0-1.03-0.05-2.07,0.06-3.1c0.01-0.46,0.01-0.93,0-1.39c-0.14-2.04-0.05-4.09-0.06-6.14c-0.01-1.69-0.59-2.57-2.45-2.54
		c-6.34,0.11-5.92-0.69-5.95,5.5c-0.01,1.02,0.02,2.06-0.56,2.98c-0.12,0.1-0.24,0.2-0.35,0.3c-0.79-0.76-0.51-1.75-0.52-2.66
		c-0.02-4.96-0.03-9.93,0-14.89c0.01-0.99-0.32-2.09,0.66-2.88c0.1,0.12,0.2,0.24,0.31,0.36c0.85,2.16,0.38,4.42,0.47,6.64
		c0.06,1.62,0.7,2.35,2.35,2.38c6.89,0.1,5.98-0.06,6.06-5.51c0.02-1.29-0.15-2.63,0.74-3.75c0.31-0.19,0.61-0.16,0.89,0.06
		c1.21,2.01,0.61,4.22,0.6,6.33c-0.01,2.08,0.77,2.81,2.79,2.87c2.2,0.07,4.53-0.62,6.56,0.84c0,0.21,0.01,0.43,0.01,0.64
		c-1.92,1.43-4.16,0.83-6.25,0.84c-2.11,0.02-3.1,0.74-3.01,2.94c0.08,1.86,0.1,3.74-0.05,5.61c-0.01,0.49-0.01,0.97,0,1.46
		c0.1,2.05,0.01,4.09-0.01,6.14c-0.02,1.79,0.79,2.42,2.54,2.51c2.27,0.12,4.67-0.73,6.79,0.77c0,0.22,0,0.43-0.01,0.65
		c-1.93,1.41-4.16,0.81-6.26,0.82c-2.13,0.01-3.06,0.78-3.03,2.95c0.03,1.86,0.19,3.74-0.03,5.6c-0.01,0.49-0.01,0.97,0,1.45
		c0.22,1.96,0.04,3.93,0.05,5.9c0.02,1.93,0.85,2.61,2.72,2.67c2.2,0.08,4.53-0.62,6.55,0.86c-0.01,0.21-0.01,0.43-0.02,0.64
		c-1.93,1.41-4.16,0.8-6.26,0.82c-2.12,0.02-2.97,0.78-3.04,2.95c-0.15,5.37-0.22,5.37,5.28,5.45c1.38,0.02,2.83-0.18,4.01,0.84
		c0.01,0.22,0.01,0.43,0.02,0.65c-1.92,1.45-4.14,0.77-6.21,0.76c-2.25-0.01-3.26,0.71-3.13,3.06c0.11,1.85,0.13,3.71,0.02,5.57
		c-0.01,0.49-0.01,0.97,0,1.46c0.17,1.87,0.13,3.76,0.06,5.63c-0.09,2.21,0.9,2.94,3.02,2.95c2.1,0.01,4.35-0.6,6.26,0.88
		c-0.47,0.58-1.13,0.56-1.79,0.56c-5.78,0-11.55,0-17.33,0c-0.65,0-1.32,0.02-1.8-0.54c1.91-1.53,4.16-0.82,6.25-0.81
		c2.16,0.01,3.12-0.7,3.04-2.9c-0.06-1.78-0.04-3.56-0.01-5.35c0.02-0.63-0.18-1.24-0.13-1.87c0.18-2.13,0.18-4.27,0.12-6.41
		c-0.04-1.34-0.63-2.09-2.03-2.1c-0.19,0-0.37-0.01-0.56-0.03c-5.68-0.44-5.79-0.34-5.79,5.34c0,1.12,0.04,2.23-0.05,3.35
		c0,0.5,0,0.99,0.02,1.48C54.21,161.6,55.27,164.82,53.49,167.77z"/>
	<path class="designCircled7" d="M64.26,84.2c-0.19,0-0.39,0-0.58,0.01c-3.39,1.38-6.77,1.51-10.13-0.1c0,0,0.08-0.03,0.08-0.03
		c-0.57-5.36-0.57-5.36,4.7-5.36c4.31,0,8.62,0.14,12.92-0.06c2.5-0.12,3.69,0.49,3.23,3.17c-0.13,0.73-0.05,1.49-0.07,2.24
		C71.04,85.76,67.66,85.58,64.26,84.2z"/>
	<path class="designCircled2" d="M64.28,104.46c-0.01-2.54,0.03-5.08-0.04-7.61c-0.04-1.47,0.55-2.01,1.99-1.97c2.72,0.07,5.45,0.03,8.17,0.04
		c-0.01,3.18-0.01,6.36-0.02,9.54C71.02,105.78,67.65,105.79,64.28,104.46z"/>
	<path class="designCircled9" d="M74.42,167.77c-2.69,0.01-5.39-0.04-8.08,0.04c-1.56,0.05-2.16-0.54-2.11-2.11c0.09-2.5,0.03-5.01,0.04-7.52
		c3.38-1.32,6.75-1.3,10.13-0.01C74.41,161.37,74.42,164.57,74.42,167.77z"/>
	<path class="designCircled10" d="M74.39,146.81c-2.72,0.01-5.45-0.02-8.17,0.05c-1.45,0.04-1.91-0.54-2-1.98c-0.52-8.18-0.55-8.18,7.63-8.17
		c0.85,0,1.69,0.02,2.53,0.04C74.39,140.1,74.39,143.45,74.39,146.81z"/>
	<path class="designCircled2" d="M74.41,136.11c-2.73,0.01-5.45-0.03-8.18,0.04c-1.44,0.04-2.04-0.5-1.99-1.97c0.07-2.54,0.03-5.08,0.04-7.61
		c3.37-1.34,6.75-1.31,10.13-0.02C74.41,129.74,74.41,132.92,74.41,136.11z"/>
	<path class="designCircled10" d="M64.26,84.2c3.38-0.05,6.76-0.09,10.13-0.14c0,3.41,0,6.81,0,10.22c-2.72,0.01-5.44-0.02-8.16,0.05
		c-1.44,0.04-2.03-0.5-1.99-1.97C64.31,89.64,64.26,86.92,64.26,84.2z"/>
	<path class="designCircled10" d="M64.26,125.38c0-2.54,0.05-5.07-0.02-7.61c-0.04-1.46,0.53-2.02,1.99-1.98c2.72,0.07,5.45,0.04,8.17,0.05
		c0.01,3.18,0.01,6.37,0.02,9.55C71.03,126.3,67.64,126.32,64.26,125.38z"/>
	<path class="designCircled10" d="M64.28,156.99c-0.01-2.54,0.03-5.08-0.04-7.61c-0.04-1.47,0.55-2.01,1.99-1.97c2.72,0.07,5.45,0.03,8.18,0.04
		c-0.01,3.18-0.01,6.36-0.02,9.55C71.02,157.95,67.65,157.96,64.28,156.99z"/>
	<path class="designCircled11" d="M74.4,115.19c-2.73,0.01-5.45-0.03-8.18,0.05c-1.45,0.04-2.03-0.51-1.99-1.97c0.07-2.54,0.03-5.07,0.04-7.61
		c3.37-0.96,6.75-0.94,10.13-0.01C74.4,108.83,74.4,112.01,74.4,115.19z"/>
	<path class="designCircled12" d="M64.28,156.99c3.37,0,6.74,0,10.11,0c0,0.39,0.01,0.78,0.01,1.18c-3.38,0-6.75,0.01-10.13,0.01
		C64.28,157.79,64.28,157.39,64.28,156.99z"/>
	<path class="designCircled13" d="M64.26,125.38c3.38,0,6.77,0.01,10.15,0.01c0,0.39-0.01,0.77-0.01,1.16c-3.38,0.01-6.75,0.01-10.13,0.02
		C64.27,126.17,64.26,125.78,64.26,125.38z"/>
	<path class="designCircled14" d="M74.4,105.65c-3.38,0-6.75,0.01-10.13,0.01c0-0.4,0-0.8,0.01-1.2c3.37,0,6.74,0.01,10.11,0.01
		C74.39,104.86,74.4,105.25,74.4,105.65z"/>
	<path class="designCircled14" d="M53.53,105.64c-0.01-0.2-0.02-0.39-0.02-0.59c0.01-0.19,0-0.37-0.03-0.56c0,0,0.07-0.01,0.07-0.01
		c3.36-1.33,6.72-1.32,10.09-0.04c0,0.41,0,0.82,0,1.23C60.27,107.11,56.9,106.93,53.53,105.64z"/>
	<path class="designCircled15" d="M146.09,161.94c-11.18,0.03-22.37,0.02-33.55,0.12c-1.91,0.02-2.39-0.71-2.38-2.48
		c0.05-17.11,0.06-34.21-0.01-51.32c-0.01-2.05,0.74-2.53,2.64-2.52c17.11,0.06,34.21,0.06,51.32-0.01c1.9-0.01,2.39,0.63,2.35,2.43
		c-0.11,4.41,0.04,8.84-0.08,13.25c-0.04,1.52,0.62,1.96,1.89,2.07c-0.78,1.32-2.11,0.97-3.27,1.01
		c-10.24,0.29-18.9,7.61-21.59,17.49c-1.74,6.38-0.41,12.03,2.23,17.69C145.96,160.38,146.79,161.01,146.09,161.94z"/>
	<path class="designCircled16" d="M146.09,161.94c-9.55-14.77-2.6-33.11,14.36-37.86c2.56-0.72,5.21-0.42,7.81-0.6
		c8.21,0.72,14.4,4.81,19.04,11.48c1.04,1.13,0.16,2.13-0.29,3.07c-1.16,2.46-2.41,4.88-3.62,7.31c-1.75,3.51-1.74,3.47,2.31,3.57
		c1.71,0.04,3.59-0.61,5.07,0.86c-1.05,10.5-7.66,18.68-17.48,21.65c-9.69,2.93-19.85-0.38-26.48-8.63
		C146.58,162.5,146.33,162.22,146.09,161.94z"/>
	<path class="designCircled17" d="M190.78,149.78c-3.33,0-6.66,0-10.33,0c2.11-5.38,5.21-9.77,6.85-14.82c2.36-3.13,3.62-6.85,5.46-10.26
		c0.39-0.71,0.87-1.87,1.38-1.91c0.94-0.07,1.3,1.05,1.71,1.88c4.06,8.17,8.13,16.33,12.51,25.11
		C202.26,149.78,196.52,149.78,190.78,149.78z"/>
	<path class="designCircled18" d="M263.36,109.01c5.26,0,10.53,0.06,15.79-0.04c1.9-0.04,2.74,0.46,2.63,2.51c-0.15,2.81-0.1,5.64-0.01,8.46
		c0.05,1.61-0.61,2.11-2.16,2.1c-10.81-0.04-21.62-0.05-32.42,0.01c-1.81,0.01-2.24-0.74-2.19-2.36c0.09-2.82,0.1-5.64,0-8.46
		c-0.07-1.75,0.62-2.28,2.3-2.25C252.65,109.06,258,109.01,263.36,109.01z"/>
	<path class="designCircled18" d="M263.12,98.32c-5.13,0-10.26-0.08-15.39,0.04c-2.06,0.05-2.81-0.51-2.78-2.67c0.03-2.01,0.72-2.53,2.63-2.52
		c10.52,0.07,21.03,0.07,31.55,0c1.86-0.01,2.67,0.4,2.68,2.47c0.01,2.1-0.63,2.77-2.74,2.72
		C273.76,98.23,268.44,98.32,263.12,98.32z"/>
	<path class="designCircled19" d="M247.82,106.18c-1.94,0.32-2.83-0.22-2.89-2.46c-0.06-2.47,1.09-2.62,3.03-2.67c2.07-0.06,2.72,0.6,2.73,2.69
		C250.7,106,249.72,106.5,247.82,106.18z"/>
	<path class="designCircled19" d="M255.32,106.16c-2.39,0.45-2.32-1.01-2.45-2.67c-0.19-2.47,1.26-2.33,2.98-2.43c2.39-0.13,2.12,1.35,2.22,2.9
		C258.22,106.23,256.94,106.43,255.32,106.16z"/>
	<path class="designCircled19" d="M263.3,101.18c2.17-0.44,2.69,0.53,2.69,2.45c0,1.87-0.46,2.65-2.51,2.66c-2.11,0.01-2.75-0.65-2.71-2.74
		C260.8,101.54,261.41,100.71,263.3,101.18z"/>
	<path class="designCircled19" d="M273.79,103.59c0.34,1.91-0.32,2.69-2.38,2.7c-2.07,0.01-2.78-0.57-2.76-2.7c0.02-2.01,0.72-2.55,2.63-2.53
		C273.17,101.07,274.22,101.51,273.79,103.59z"/>
	<path class="designCircled19" d="M279.23,101.15c2.04-0.41,2.52,0.56,2.58,2.47c0.07,2.2-0.8,2.64-2.8,2.66c-2.15,0.03-2.38-0.96-2.43-2.73
		C276.53,101.52,277.28,100.78,279.23,101.15z"/>
	<path class="designCircled20" d="M263.26,145.73c-5.26,0-10.53-0.08-15.79,0.04c-2.07,0.05-2.49-0.77-2.51-2.65c-0.03-2,0.67-2.57,2.61-2.55
		c8.46,0.09,16.92,0.07,25.38,0.01c2.24-0.02,4.48-0.28,6.71-0.49c2.18-0.21,2.15,1.19,2.12,2.7c-0.03,1.51,0.28,3.01-2.16,2.96
		C274.17,145.65,268.71,145.73,263.26,145.73z"/>
	<path class="designCircled18" d="M263.23,153.64c-5.17,0-10.34-0.08-15.51,0.04c-2.05,0.05-2.82-0.5-2.78-2.67c0.03-2.01,0.73-2.54,2.64-2.53
		c10.53,0.07,21.05,0.08,31.58,0c1.92-0.01,2.61,0.52,2.64,2.53c0.04,2.18-0.75,2.71-2.79,2.67
		C273.76,153.56,268.5,153.64,263.23,153.64z"/>
	<path class="designCircled19" d="M263.29,156.43c0.84,0,1.69,0.07,2.52-0.02c2.03-0.21,3.03,0.29,3,2.7c-0.02,2.38-1.16,2.54-2.96,2.46
		c-1.96-0.09-3.93-0.11-5.89,0c-2.03,0.11-1.97-1.16-1.95-2.55c0.02-1.34-0.15-2.74,1.91-2.6
		C261.04,156.49,262.17,156.43,263.29,156.43z"/>
	<path class="designCircled19" d="M250.42,156.43c0.75,0,1.51,0.11,2.24-0.02c2.88-0.5,3.27,1.08,3.1,3.4c-0.1,1.36-0.67,1.78-1.93,1.74
		c-1.87-0.05-3.74-0.08-5.61,0.01c-1.96,0.09-3.34,0.05-3.3-2.69c0.03-2.7,1.52-2.51,3.25-2.45
		C248.92,156.44,249.67,156.42,250.42,156.43z"/>
	<path class="designCircled19" d="M276.75,161.54c-0.75,0-1.51-0.06-2.25,0.01c-1.97,0.18-3.11-0.16-3.06-2.66c0.04-2.36,1.13-2.6,2.97-2.49
		c1.5,0.09,3.01,0.11,4.5,0c1.91-0.14,2.99,0.23,2.9,2.54c-0.08,1.85-0.45,2.87-2.52,2.61C278.45,161.46,277.6,161.54,276.75,161.54
		z"/>
	<path class="designCircled10" d="M58.68,125.43c-5.17,0-5.17,0-5.17-5.22c0-0.66,0.06-1.32-0.01-1.96c-0.2-1.78,0.45-2.68,2.34-2.44
		c0.37,0.05,0.75,0.01,1.12,0.01c6.78-0.01,6.7-0.01,6.75,6.75c0.01,2.12-0.47,3.23-2.8,2.88
		C60.19,125.33,59.43,125.43,58.68,125.43z"/>
	<path class="designCircled10" d="M58.35,136.14c-5.61-0.08-4.81,0.74-4.82-4.99c-0.01-5.27-0.67-4.6,4.6-4.63c5.54-0.03,5.57-0.01,5.53,5.4
		C63.63,136.9,64.3,136.05,58.35,136.14z"/>
	<path class="designCircled10" d="M53.53,105.64c3.37,0.01,6.74,0.02,10.11,0.03c0.01,2.44-0.06,4.89,0.05,7.33c0.09,1.76-0.63,2.21-2.3,2.26
		c-7.9,0.23-7.9,0.27-7.88-7.64C53.51,106.96,53.53,106.3,53.53,105.64z"/>
	<path class="designCircled10" d="M53.54,84.1c3.38,0.03,6.75,0.07,10.13,0.1c0,2.43-0.09,4.87,0.02,7.3c0.09,2.02-0.6,2.82-2.72,2.85
		c-7.47,0.14-7.47,0.21-7.46-7.17C53.51,86.16,53.53,85.13,53.54,84.1z"/>
	<path class="designCircled11" d="M58.13,146.84c-5.27-0.06-4.59,0.64-4.61-4.66c-0.03-5.47,0-5.47,5.5-5.47c0.75,0,1.5,0.04,2.25-0.01
		c1.87-0.13,2.54,0.81,2.41,2.56c-0.05,0.65,0,1.31-0.01,1.97C63.64,147.44,64.35,146.82,58.13,146.84z"/>
	<path class="designCircled10" d="M53.54,157c-0.01-2.53,0.03-5.06-0.04-7.59c-0.04-1.44,0.51-1.92,1.96-2.01c8.13-0.52,9.41,0.85,8.12,8.95
		c-0.04,0.25-0.29,0.47-0.43,0.7C59.93,158.28,56.73,158.34,53.54,157z"/>
	<path class="designCircled11" d="M63.66,158.2c0,2.54-0.04,5.08,0.03,7.62c0.04,1.46-0.55,2.02-1.99,1.99c-2.73-0.06-5.46-0.02-8.19-0.02
		c0,0-0.01-0.01-0.01-0.01c0.01-3.2,0.02-6.4,0.03-9.6C56.91,157.25,60.28,157.22,63.66,158.2z"/>
	<path class="designCircled10" d="M63.64,104.45c-3.36,0.01-6.73,0.03-10.09,0.04c-0.01-2.54,0.03-5.08-0.05-7.62
		c-0.04-1.45,0.5-2.12,1.97-1.98c0.09,0.01,0.19,0,0.28,0C63.81,94.56,63.81,94.56,63.64,104.45z"/>
	<path class="designCircled14" d="M63.66,158.2c-3.38-0.01-6.75-0.02-10.13-0.03c0-0.39,0.01-0.78,0.01-1.17c3.2,0.02,6.4,0.03,9.6,0.05
		C63.31,157.43,63.48,157.81,63.66,158.2z"/>
	<path class="designCircled13" d="M67.42,101.27c1.08-1.06,2.16-2.12,3.78-3.71C70.23,99.73,68.95,100.62,67.42,101.27z"/>
	<path class="designCircled8" d="M70.99,162.87c0.11,1.07-0.48,1.52-1.66,1.52c-1.16,0-1.75-0.42-1.71-1.65c0.03-0.92,0.11-1.7,1.31-1.74
		C70.14,160.97,70.94,161.38,70.99,162.87z"/>
	<path class="designCircled21" d="M67.03,141.23c-0.88-1.8,0.93-1.5,1.59-1.79c1.15-0.51,2.17,0.39,2.98,1.07c0.66,0.55-0.46,0.79-0.59,1.26
		C69.42,143.51,68.17,142.74,67.03,141.23z"/>
	<path class="designCircled22" d="M67.03,141.23c1.26,0.68,2.53,1.27,3.98,0.55c1.73,1.49-0.06,1.63-0.83,2.15c-1.3,0.87-2.34-0.03-3.35-0.61
		C65.49,142.55,67.45,141.98,67.03,141.23z"/>
	<path class="designCircled23" d="M67.65,129.36c1.66,0.22,4.32-0.93,4.32,1.9c0,2.67-2.56,1.95-4.31,2.02c-0.19-0.18-0.28-0.4-0.27-0.66
		c0.08-0.86,0.07-1.72-0.01-2.59C67.38,129.77,67.47,129.54,67.65,129.36z"/>
	<path class="designCircled24" d="M67.64,132.73c0,0.18,0.01,0.37,0.02,0.55c-1.83-1.3-2.34-2.61-0.01-3.92c0,0.19-0.01,0.38-0.01,0.56
		C67.76,130.86,67.75,131.79,67.64,132.73z"/>
	<path class="designCircled8" d="M66.52,86.43c0.74-0.01,1.49-0.02,2.23-0.02c3.22,0,4.34,1.59,3.38,4.66c-0.3,0.96-0.96,1.01-1.72,1.01
		c-1.3,0.01-2.6-0.01-3.9-0.01c-0.22-0.46,0.04-0.74,0.36-1.01c1.63-1.21,1.63-2.42-0.01-3.63C66.55,87.17,66.3,86.88,66.52,86.43z"
		/>
	<path class="designCircled14" d="M66.52,86.43c0.2,0.19,0.39,0.39,0.59,0.58c1.09,1.49,1.09,2.98,0,4.47c-0.2,0.2-0.4,0.39-0.59,0.59
		C65.64,90.19,65.62,88.31,66.52,86.43z"/>
	<path class="designCircled21" d="M70.42,123.64c-1.1,0.01-2.28,0.36-3.16-0.62c-0.81-0.91-1.53-1.85-1.04-3.24c0.78-2.2,2.6-1.68,4.22-1.71
		c0.23,0.37,0.02,0.65-0.21,0.92c-0.16,0.18-0.33,0.35-0.49,0.52c-0.35,0.7-0.28,1.42-0.17,2.15c0.09,0.2,0.18,0.41,0.3,0.6
		C70.1,122.7,70.77,122.98,70.42,123.64z"/>
	<path class="designCircled25" d="M69.9,118.62c0.19-0.18,0.37-0.37,0.56-0.55c2.47,2.04,2.46,3.59-0.03,5.57c-0.37-0.35-0.73-0.71-1.1-1.06
		C70.53,121.41,69.96,119.98,69.9,118.62z"/>
	<path class="designCircled19" d="M72.13,149.7c0.08,5.68,0.08,5.68-5.59,5.59c-0.49-0.54-0.26-0.95,0.24-1.31c2.5-0.28,1.44-2.54,2.13-3.83
		C69.84,148.98,70.99,149.33,72.13,149.7z"/>
	<path class="designCircled26" d="M72.13,149.7c-1.02,0.18-2.44-0.65-2.82,1.13c-1.85,0.4-1.15,2.52-2.29,3.4c-0.41,0.24-0.5,0.63-0.49,1.06
		c-1.17-1.5-0.47-3.21-0.49-4.82c-0.01-0.86,0.71-1.36,1.53-1.3C69.1,149.29,70.74,148.54,72.13,149.7z"/>
	<path class="designCircled27" d="M72.11,112.94c-1.5,1.16-3.2,0.46-4.8,0.48c-0.86,0.01-1.36-0.71-1.29-1.52c0.12-1.51-0.63-3.14,0.53-4.53
		c0.35,0.2,0.73,0.37,0.94,0.75c0.03,2.55,1.31,3.86,3.88,3.87C71.74,112.21,71.91,112.59,72.11,112.94z"/>
	<path class="designCircled28" d="M72.11,112.94c-0.18-0.2-0.37-0.39-0.55-0.59c-0.53-2.43-2.05-3.87-4.44-4.44c-0.19-0.18-0.38-0.36-0.57-0.54
		C73.1,107.37,72.12,106.34,72.11,112.94z"/>
	<path class="designCircled29" d="M58.66,122.59c-1.38-0.12-2.96,0.41-2.89-1.77c0.08-2.42,1.9-1.52,3.1-1.61c1.12-0.08,2.55-0.42,2.59,1.57
		C61.51,123.2,59.7,122.34,58.66,122.59z"/>
	<path class="designCircled30" d="M61.43,129.91c0.62,2.15-0.16,3.08-2.41,3.17c-2.33,0.09-3.82-0.39-3.22-3.15c0.46-0.22,0.74,0.04,1,0.36
		c1.22,1.62,2.43,1.62,3.63-0.03C60.69,129.94,60.98,129.7,61.43,129.91z"/>
	<path class="designCircled12" d="M61.43,129.91c-0.2,0.2-0.4,0.4-0.59,0.6c-1.48,1.08-2.97,1.09-4.46,0.01c-0.2-0.2-0.39-0.4-0.59-0.59
		C57.67,129.02,59.55,129.04,61.43,129.91z"/>
	<path class="designCircled31" d="M61.43,111.66c0.17,1.66-0.99,2.38-2.02,1.69c-1.43-0.96-2.56-2.48-3.56-3.94c-0.36-0.53-0.33-1.82,0.86-1.98
		c0.94-0.13,2.51-0.49,2.34,1.05C58.83,110.53,61.99,109.7,61.43,111.66z"/>
	<path class="designCircled32" d="M61.45,88.59c0.03,2.3-0.71,3.4-2.57,3.5c-1.89,0.09-3.05-0.69-3.1-2.71c-0.05-1.94,0.88-2.95,2.85-2.97
		C60.47,86.39,61.32,87.37,61.45,88.59z"/>
	<path class="designCircled8" d="M58.71,144.52c-2.5,0.53-2.95-0.59-3.01-2.72c-0.07-2.4,0.8-3.06,3.05-2.92c1.64,0.1,3.12,0.12,2.87,2.27
		C61.4,142.93,62.01,145.67,58.71,144.52z"/>
	<path class="designCircled13" d="M61.48,152.77c0.15,1.53-1.06,2.38-2.68,2.49c-1.89,0.12-2.96-1.05-2.99-2.91c-0.02-1.83,1.06-3.08,2.86-3.12
		C60.56,149.18,61.39,150.53,61.48,152.77z"/>
	<path class="designCircled21" d="M61.4,163.07c0.52,2.32-0.48,2.95-2.82,3.05c-2.86,0.13-2.77-1.36-2.89-3.42c-0.13-2.45,0.86-2.87,3.07-2.94
		C61.45,159.67,61.71,161,61.4,163.07z"/>
	<path class="designCircled19" d="M61.38,99.67c0.49,2.34-0.3,3.14-2.73,3.22c-2.77,0.09-2.88-1.21-2.95-3.35c-0.07-2.35,0.71-2.97,3.01-3.01
		C61.29,96.49,61.82,97.58,61.38,99.67z"/>
	<path class="designCircled33" d="M67.64,132.73c-0.64-0.94-0.64-1.87,0-2.81C68.47,130.86,68.47,131.79,67.64,132.73z"/>
	<path class="designCircled34" d="M69.33,89.27c0.16-0.83-0.35-2.11,1.05-2.16c1.65-0.06,1.15,1.36,1.18,2.26c0.03,0.85,0.31,2.08-1.14,2.03
		C68.99,91.35,69.48,90.11,69.33,89.27z"/>
	<path class="designCircled10" d="M67.11,91.48c0-1.49,0-2.98,0-4.47c1.94-0.18,1.63,1.21,1.67,2.37C68.82,90.57,68.77,91.66,67.11,91.48z"/>
	<path class="designCircled11" d="M69.9,118.62c1.37,1.54,2.22,3.01-0.57,3.96c0,0,0-0.01,0-0.01c-0.38-1.32-0.47-2.64,0.05-3.95
		C69.54,118.63,69.72,118.62,69.9,118.62z"/>
	<path class="designCircled25" d="M69.37,118.63c-0.01,1.32-0.03,2.63-0.04,3.95C68.48,121.25,68.41,119.93,69.37,118.63z"/>
	<path class="designCircled35" d="M67.03,154.23c0.02-0.74,0.06-1.48,0.04-2.22c-0.05-1.94,0.87-1.99,2.24-1.18c-0.02,0.9,0.12,1.84-0.1,2.68
		C68.91,154.66,68.15,155.2,67.03,154.23z"/>
	<path class="designCircled11" d="M67.12,107.91c4.96,0.03,4.46-0.65,4.44,4.44C66.44,112.48,67.06,112.8,67.12,107.91z"/>
	<path class="designCircled10" d="M56.38,130.52c1.49,0,2.97-0.01,4.46-0.01c0.19,1.66-0.91,1.71-2.09,1.67
		C57.59,132.14,56.21,132.45,56.38,130.52z"/>
	<path class="designCircled36" d="M57.99,109.18c-0.01,0.24-0.09,0.7-0.66,0.8c-0.58,0.1-0.86-0.26-0.92-0.76c-0.07-0.59,0.06-1.17,0.79-1.19
		C57.73,108.01,57.99,108.41,57.99,109.18z"/>
	<path class="designCircled37" d="M58.86,91.49c-1.65-0.12-2.28-1.11-2.29-2.27c-0.01-1.28,0.99-2.09,2.21-2.1c1.3-0.01,2.04,0.92,2.01,2.21
		C60.76,90.68,59.8,91.23,58.86,91.49z"/>
	<path class="designCircled38" d="M59.73,144.04c-2.75,0.5-3.88-0.61-3.38-3.37C58.84,140.54,59.83,141.53,59.73,144.04z"/>
	<path class="designCircled11" d="M57.51,139.53c2.74-0.5,3.84,0.64,3.35,3.36C59.07,142.44,57.94,141.34,57.51,139.53z"/>
	<path class="designCircled39" d="M57.51,139.53c0.86,1.37,2,2.48,3.35,3.36c-0.21,0.55-0.58,0.93-1.13,1.14c-0.51-1.74-1.63-2.88-3.38-3.37
		C56.56,140.1,56.94,139.72,57.51,139.53z"/>
	<path class="designCircled10" d="M60.82,152.12c0.02,1.55-0.78,2.22-1.87,2.28c-1.33,0.08-2.43-0.6-2.46-2.05c-0.03-1.3,0.88-2.03,2.15-2.04
		C59.96,150.29,60.55,151.21,60.82,152.12z"/>
	<path class="designCircled40" d="M60.19,162.81c-0.05,0.96-0.54,1.41-1.38,1.48c-0.92,0.07-1.33-0.4-1.34-1.31c0-0.85,0.27-1.43,1.24-1.4
		C59.57,161.61,60.05,162.05,60.19,162.81z"/>
</g>
</svg>
