<?xml version="1.0" encoding="utf-8"?>
<!-- Generator: Adobe Illustrator 26.5.0, SVG Export Plug-In . SVG Version: 6.00 Build 0)  -->
<svg version="1.1" id="Layer_1" xmlns="http://www.w3.org/2000/svg" xmlns:xlink="http://www.w3.org/1999/xlink" x="0px" y="0px"
	 viewBox="0 0 327.15 289.5" style="enable-background:new 0 0 327.15 289.5;" xml:space="preserve">
<style type="text/css">
	.design0{fill:#999999;}
	.design1{fill:#EFEFEF;}
	.design2{fill:#D1D2D1;}
	.design3{fill:#FFFFFF;}
	.design4{fill:#B6B6B8;}
	.design5{fill:#EDEFEF;}
	.design6{fill:#FDFDFD;}
	.design7{fill:#666666;}
	.design8{fill:#D6D6D6;}
	.design9{fill:#FCFCFC;}
	.design10{fill:#FBFBFB;}
	.design11{fill:#E4E4E4;}
	.design12{fill:#DDDDDD;}
	.design13{fill:#E3E3E3;}
	.design14{fill:#F6B426;}
	.design15{fill:#F55A62;}
	.design16{fill:#22A9B3;}
	.design17{fill:#D1D1D1;}
	.design18{fill:#D2D2D2;}
	.design19{fill:#D2D2D1;}
	.design20{fill:#D4D4D4;}
	.design21{fill:#D9D9D9;}
	.design22{fill:#D2D3D3;}
	.design23{fill:#DFE0DF;}
	.design24{fill:#DADADA;}
	.design25{fill:#E2E3E2;}
	.design26{fill:#DEDEDE;}
	.design27{fill:#D5D5D5;}
	.design28{fill:#D3D3D2;}
	.design29{fill:#D8D8D8;}
	.design30{fill:#D5D6D6;}
	.design31{fill:#DDDCDC;}
	.design32{fill:#F3F3F3;}
	.design33{fill:#F7F7F7;}
	.design34{fill:#F9FAF9;}
	.design35{fill:#F5F5F5;}
	.design36{fill:#FBFCFC;}
	.design37{fill:#F9F9F9;}
	.design38{fill:#E1E1E1;}
	.design39{fill:#F6F6F6;}
</style>
<path class="design0" d="M18.25,0c1.23,0.05,2.47,0.14,3.71,0.14c94.62,0.01,189.24,0.01,283.86,0c1.23,0,2.47-0.1,3.71-0.14
	c1.68,0.05,3.36,0.11,5.04,0.16c7.28,0.19,12.45,5.28,12.65,12.51c0.08,2.92,0.05,5.84,0.07,8.76c-0.02,35.03-0.05,70.07-0.1,105.11
	c-0.02,20.73-0.07,41.46-0.12,62.18c-0.95,0.96-2.15,1.16-3.41,1.22c-1.23,0.06-2.48,0.05-3.72,0.05
	c-104.1,0-208.21,0.01-312.31-0.04c-2.39,0-5,0.71-7.09-1.26C0.52,155.16,0.5,121.63,0.48,88.11C0.46,65.84,0.44,43.56,0.42,21.3
	c0.01-2.57,0.02-5.16,0.05-7.73C0.55,5.28,5.6,0.24,13.88,0.16C15.34,0.13,16.79,0.05,18.25,0z"/>
<path class="design1" d="M0.55,188.68c108.84,0.01,217.69,0.01,326.53,0.02c0.02,13.06,0.18,26.11,0.01,39.17
	c-0.08,6.68-6.15,11.45-14.09,11.47c-20.94,0.04-41.89,0.01-62.83,0.01c-13.62,0-27.25-0.01-40.87,0.01c-1.24,0-2.82-0.55-3.34,1.36
	c-3.17-0.89-6.43-0.79-9.68-0.79c-22.05,0.01-44.1,0.02-66.15-0.02c-2.81-0.01-5.6,0.39-8.4,0.2c-1.05-1.29-2.51-0.74-3.78-0.74
	c-33.89-0.04-67.78-0.02-101.67-0.02c-11.01,0-16.22-5.24-16.22-16.35c0-10.24-0.01-20.49,0.01-30.73
	C0.07,191.07-0.27,189.79,0.55,188.68z"/>
<path class="design2" d="M121.73,240.13c0.86-1.33,2.18-1.32,3.57-1.32c25.65,0.02,51.28,0.04,76.93,0c1.68,0,3.11,0.1,3.75,1.94
	c2.07,12.21,4.15,24.43,6.21,36.63c0.3,1.76,0.55,3.53,0.83,5.3c-1.2,1.35-2.85,1.23-4.39,1.23c-29.82,0.05-59.64,0.04-89.46,0
	c-1.56,0-3.2,0.12-4.42-1.18c1.65-10.09,3.3-20.19,4.95-30.28C120.35,248.34,121.04,244.24,121.73,240.13z"/>
<path class="design1" d="M114.72,282.73c32.76-0.01,65.51-0.04,98.27-0.05c3.6,0.05,7.2,0.26,10.78,0.08c2.59-0.13,3.22,0.79,3.22,3.27
	c0,2.55-0.59,3.47-3.36,3.47c-32.05-0.07-64.1-0.01-96.15,0c-7.76,0-15.52-0.17-23.28,0c-2.75,0.06-3.09-1.09-3.1-3.39
	c-0.01-2.36,0.44-3.51,3.15-3.34C107.74,282.97,111.24,282.76,114.72,282.73z"/>
<path class="design3" d="M164.19,12.49c49.01,0,98.01,0.02,147.02-0.07c2.91,0,3.77,0.6,3.76,3.66c-0.11,52.27-0.1,104.54-0.01,156.81
	c0,2.9-0.9,3.47-3.61,3.47c-98.34-0.07-196.7-0.07-295.04,0c-2.78,0-3.58-0.66-3.57-3.51c0.08-52.27,0.1-104.54-0.02-156.81
	c-0.01-3.14,0.95-3.64,3.79-3.64C65.73,12.52,114.95,12.49,164.19,12.49z"/>
<path class="design4" d="M163.83,220.05c-3.59-0.01-6.41-2.9-6.32-6.4c0.11-3.39,2.91-6.06,6.34-6.06c3.43,0.01,6.24,2.7,6.32,6.08
	C170.26,217.2,167.41,220.06,163.83,220.05z"/>
<path class="design5" d="M163.52,169.85c-46.75,0-93.5,0-140.24,0c-4.38,0-4.39,0-4.39-4.39c0-47.2,0-94.39,0-141.6
	c0-4.79,0-4.79,4.87-4.79c93.39,0,186.78,0.01,280.17-0.07c3.32,0,4.38,0.67,4.37,4.22c-0.13,47.54-0.12,95.08-0.01,142.61
	c0.01,3.3-0.96,4.08-4.16,4.07C257.24,169.82,210.39,169.85,163.52,169.85z"/>
<path class="design6" d="M151.02,160.39c-30.08,0-60.15-0.05-90.22,0.07c-3.21,0.01-4.16-0.79-4.15-4.08c0.12-35.93,0.12-71.86,0-107.79
	c-0.01-3.18,0.96-3.91,4-3.91c60.26,0.08,120.52,0.08,180.78,0c3.06,0,3.99,0.77,3.97,3.93c-0.11,36.04-0.11,72.08,0,108.12
	c0.01,3.05-0.91,3.73-3.82,3.72C211.39,160.35,181.21,160.39,151.02,160.39z"/>
<path class="design7" d="M150.64,44.06c-30.08,0-60.15-0.05-90.22,0.08c-3.04,0.01-4.01-0.77-3.63-3.72c0.36-2.76-1.15-6.39,0.55-8.15
	c1.87-1.93,5.57-0.66,8.45-0.66c58.35-0.04,116.69-0.02,175.04-0.02c4.57,0,4.57,0,4.57,4.4c0,8.07,0,8.07-7.91,8.07
	C208.54,44.06,179.59,44.06,150.64,44.06z"/>
<path class="design6" d="M276.92,88.07c-7.42,0-14.85-0.01-22.27,0.01c-1.6,0-2.91-0.08-2.9-2.25c0.12-12.73,0.25-25.48,0.22-38.21
	c-0.01-2.54,1.05-2.93,3.23-2.92c14.63,0.07,29.25,0.08,43.88-0.01c2.38-0.01,3.09,0.75,3.06,3.1c-0.1,12.48-0.08,24.98,0,37.46
	c0.01,2.25-0.78,2.9-2.94,2.86C291.77,88.01,284.34,88.07,276.92,88.07z"/>
<path class="design6" d="M302.05,100.73c0.01,10.58-0.02,21.16,0.08,31.75c0.02,2.18-0.63,2.94-2.87,2.93
	c-14.86-0.08-29.72-0.06-44.58-0.01c-1.86,0-2.98-0.34-2.94-2.56c0.17-10.66,0.25-21.33,0.36-31.99c1.08-0.98,2.43-1.08,3.78-1.09
	c14.23-0.05,28.46-0.06,42.69,0C299.81,99.76,301.03,99.88,302.05,100.73z"/>
<path class="design7" d="M302.05,100.73c-16.66,0.04-33.31,0.06-49.97,0.1c-0.02-0.11-0.05-0.22-0.07-0.34
	c-0.92-6.14-0.92-6.13,5.16-6.13c13.45,0,26.89,0,40.35,0c4.58,0,4.58,0,4.55,4.68C302.06,99.61,302.05,100.17,302.05,100.73z"/>
<path class="design7" d="M276.78,44.06c-7.43,0-14.85-0.13-22.28,0.07c-2.68,0.07-2.82-1.1-2.76-3.16c0.05-1.83-0.02-3.11,2.56-3.1
	c15.08,0.12,30.16,0.14,45.23-0.01c2.98-0.04,2.44,1.59,2.59,3.38c0.18,2.14-0.41,2.92-2.72,2.87
	C291.86,43.96,284.32,44.06,276.78,44.06z"/>
<path class="design8" d="M25.56,138.09c-1.03-1.02-0.63-2.33-0.63-3.52c-0.02-22.68-0.02-45.35,0-68.03c0-1.18-0.42-2.5,0.65-3.51
	c0.31,0.24,0.54,0.53,0.69,0.89c0.68,2.43,0.31,4.92,0.38,7.37c0.06,1.96,0.91,2.72,2.87,2.86c7.15,0.54,7.17,0.56,7.17-6.56
	c0-1.23-0.06-2.48,0.07-3.71c0.01-0.55,0.01-1.11,0-1.66c-0.17-2.44-0.06-4.9-0.07-7.35c-0.01-2.02-0.71-3.08-2.93-3.04
	c-7.59,0.13-7.09-0.83-7.12,6.58c-0.01,1.22,0.02,2.47-0.67,3.57c-0.14,0.12-0.29,0.24-0.42,0.36c-0.95-0.91-0.61-2.09-0.62-3.18
	c-0.02-5.94-0.04-11.88,0-17.82c0.01-1.18-0.38-2.5,0.79-3.45c0.12,0.14,0.24,0.29,0.37,0.43c1.02,2.59,0.45,5.29,0.56,7.95
	c0.07,1.94,0.84,2.81,2.81,2.85c8.25,0.12,7.16-0.07,7.25-6.59c0.02-1.54-0.18-3.15,0.89-4.49c0.37-0.23,0.73-0.19,1.07,0.07
	c1.45,2.41,0.73,5.05,0.72,7.58c-0.01,2.49,0.92,3.36,3.34,3.43c2.63,0.08,5.42-0.74,7.85,1.01c0,0.25,0.01,0.51,0.01,0.77
	c-2.3,1.71-4.98,0.99-7.48,1.01c-2.53,0.02-3.71,0.89-3.6,3.52c0.1,2.23,0.12,4.48-0.06,6.71c-0.01,0.59-0.01,1.16,0,1.75
	c0.12,2.45,0.01,4.9-0.01,7.35c-0.02,2.14,0.95,2.9,3.04,3c2.72,0.14,5.59-0.87,8.13,0.92c0,0.26,0,0.51-0.01,0.78
	c-2.31,1.69-4.98,0.97-7.49,0.98c-2.55,0.01-3.66,0.93-3.63,3.53c0.04,2.23,0.23,4.48-0.04,6.7c-0.01,0.59-0.01,1.16,0,1.74
	c0.26,2.35,0.05,4.7,0.06,7.06c0.02,2.31,1.02,3.12,3.26,3.2c2.63,0.1,5.42-0.74,7.84,1.03c-0.01,0.25-0.01,0.51-0.02,0.77
	c-2.31,1.69-4.98,0.96-7.49,0.98c-2.54,0.02-3.55,0.93-3.64,3.53c-0.18,6.43-0.26,6.43,6.32,6.52c1.65,0.02,3.39-0.22,4.8,1.01
	c0.01,0.26,0.01,0.51,0.02,0.78c-2.3,1.74-4.95,0.92-7.43,0.91c-2.69-0.01-3.9,0.85-3.75,3.66c0.13,2.21,0.16,4.44,0.02,6.67
	c-0.01,0.59-0.01,1.16,0,1.75c0.2,2.24,0.16,4.5,0.07,6.74c-0.11,2.65,1.08,3.52,3.61,3.53c2.51,0.01,5.21-0.72,7.49,1.05
	c-0.56,0.69-1.35,0.67-2.14,0.67c-6.92,0-13.82,0-20.74,0c-0.78,0-1.58,0.02-2.15-0.65c2.29-1.83,4.98-0.98,7.48-0.97
	c2.59,0.01,3.73-0.84,3.64-3.47c-0.07-2.13-0.05-4.26-0.01-6.4c0.02-0.75-0.22-1.48-0.16-2.24c0.22-2.55,0.22-5.11,0.14-7.67
	c-0.05-1.6-0.75-2.5-2.43-2.51c-0.23,0-0.44-0.01-0.67-0.04c-6.8-0.53-6.93-0.41-6.93,6.39c0,1.34,0.05,2.67-0.06,4.01
	c0,0.6,0,1.18,0.02,1.77C26.42,130.71,27.69,134.56,25.56,138.09z"/>
<path class="design7" d="M38.45,38.07c-0.23,0-0.47,0-0.69,0.01c-4.06,1.65-8.1,1.81-12.12-0.12l0.1-0.04
	c-0.68-6.42-0.68-6.42,5.63-6.42c5.16,0,10.32,0.17,15.46-0.07c2.99-0.14,4.42,0.59,3.87,3.79c-0.16,0.87-0.06,1.78-0.08,2.68
	C46.57,39.94,42.52,39.72,38.45,38.07z"/>
<path class="design6" d="M38.47,62.32c-0.01-3.04,0.04-6.08-0.05-9.11c-0.05-1.76,0.66-2.41,2.38-2.36c3.26,0.08,6.52,0.04,9.78,0.05
	c-0.01,3.81-0.01,7.61-0.02,11.42C46.54,63.9,42.51,63.91,38.47,62.32z"/>
<path class="design9" d="M50.61,138.09c-3.22,0.01-6.45-0.05-9.67,0.05c-1.87,0.06-2.59-0.65-2.53-2.53c0.11-2.99,0.04-6,0.05-9
	c4.05-1.58,8.08-1.56,12.12-0.01C50.6,130.43,50.61,134.26,50.61,138.09z"/>
<path class="design9" d="M50.57,113c-3.26,0.01-6.52-0.02-9.78,0.06c-1.74,0.05-2.29-0.65-2.39-2.37c-0.62-9.79-0.66-9.79,9.13-9.78
	c1.02,0,2.02,0.02,3.03,0.05C50.57,104.97,50.57,108.98,50.57,113z"/>
<path class="design6" d="M50.6,100.2c-3.27,0.01-6.52-0.04-9.79,0.05c-1.72,0.05-2.44-0.6-2.38-2.36c0.08-3.04,0.04-6.08,0.05-9.11
	c4.03-1.6,8.08-1.57,12.12-0.02C50.6,92.57,50.6,96.38,50.6,100.2z"/>
<path class="design9" d="M38.45,38.07c4.05-0.06,8.09-0.11,12.12-0.17c0,4.08,0,8.15,0,12.23c-3.26,0.01-6.51-0.02-9.77,0.06
	c-1.72,0.05-2.43-0.6-2.38-2.36C38.51,44.58,38.45,41.33,38.45,38.07z"/>
<path class="design9" d="M38.45,87.36c0-3.04,0.06-6.07-0.02-9.11c-0.05-1.75,0.63-2.42,2.38-2.37c3.26,0.08,6.52,0.05,9.78,0.06
	c0.01,3.81,0.01,7.62,0.02,11.43C46.55,88.46,42.5,88.48,38.45,87.36z"/>
<path class="design9" d="M38.47,125.19c-0.01-3.04,0.04-6.08-0.05-9.11c-0.05-1.76,0.66-2.41,2.38-2.36c3.26,0.08,6.52,0.04,9.79,0.05
	c-0.01,3.81-0.01,7.61-0.02,11.43C46.54,126.34,42.51,126.35,38.47,125.19z"/>
<path class="design10" d="M50.59,75.16c-3.27,0.01-6.52-0.04-9.79,0.06c-1.74,0.05-2.43-0.61-2.38-2.36c0.08-3.04,0.04-6.07,0.05-9.11
	c4.03-1.15,8.08-1.13,12.12-0.01C50.59,67.55,50.59,71.35,50.59,75.16z"/>
<path class="design11" d="M38.47,125.19c4.03,0,8.07,0,12.1,0c0,0.47,0.01,0.93,0.01,1.41c-4.05,0-8.08,0.01-12.12,0.01
	C38.47,126.15,38.47,125.67,38.47,125.19z"/>
<path class="design12" d="M38.45,87.36c4.05,0,8.1,0.01,12.15,0.01c0,0.47-0.01,0.92-0.01,1.39c-4.05,0.01-8.08,0.01-12.12,0.02
	C38.46,88.3,38.45,87.84,38.45,87.36z"/>
<path class="design13" d="M50.59,63.74c-4.05,0-8.08,0.01-12.12,0.01c0-0.48,0-0.96,0.01-1.44c4.03,0,8.07,0.01,12.1,0.01
	C50.57,62.8,50.59,63.26,50.59,63.74z"/>
<path class="design13" d="M25.61,63.73c-0.01-0.24-0.02-0.47-0.02-0.71c0.01-0.23,0-0.44-0.04-0.67l0.08-0.01
	c4.02-1.59,8.04-1.58,12.08-0.05c0,0.49,0,0.98,0,1.47C33.68,65.49,29.64,65.28,25.61,63.73z"/>
<path class="design14" d="M136.39,131.11c-13.38,0.04-26.77,0.02-40.15,0.14c-2.29,0.02-2.86-0.85-2.85-2.97
	c0.06-20.48,0.07-40.94-0.01-61.42c-0.01-2.45,0.89-3.03,3.16-3.02c20.48,0.07,40.94,0.07,61.42-0.01c2.27-0.01,2.86,0.75,2.81,2.91
	c-0.13,5.28,0.05,10.58-0.1,15.86c-0.05,1.82,0.74,2.35,2.26,2.48c-0.93,1.58-2.53,1.16-3.91,1.21
	c-12.26,0.35-22.62,9.11-25.84,20.93c-2.08,7.64-0.49,14.4,2.67,21.17C136.23,129.25,137.22,130,136.39,131.11z"/>
<path class="design15" d="M136.39,131.11c-11.43-17.68-3.11-39.63,17.19-45.31c3.06-0.86,6.24-0.5,9.35-0.72
	c9.83,0.86,17.23,5.76,22.79,13.74c1.24,1.35,0.19,2.55-0.35,3.67c-1.39,2.94-2.88,5.84-4.33,8.75c-2.09,4.2-2.08,4.15,2.76,4.27
	c2.05,0.05,4.3-0.73,6.07,1.03c-1.26,12.57-9.17,22.36-20.92,25.91c-11.6,3.51-23.76-0.45-31.69-10.33
	C136.97,131.78,136.67,131.45,136.39,131.11z"/>
<path class="design16" d="M189.87,116.56c-3.99,0-7.97,0-12.36,0c2.53-6.44,6.24-11.69,8.2-17.74c2.82-3.75,4.33-8.2,6.53-12.28
	c0.47-0.85,1.04-2.24,1.65-2.29c1.13-0.08,1.56,1.26,2.05,2.25c4.86,9.78,9.73,19.54,14.97,30.05
	C203.61,116.56,196.74,116.56,189.87,116.56z"/>
<path class="design17" d="M276.74,67.76c6.3,0,12.6,0.07,18.9-0.05c2.27-0.05,3.28,0.55,3.15,3c-0.18,3.36-0.12,6.75-0.01,10.13
	c0.06,1.93-0.73,2.53-2.59,2.51c-12.94-0.05-25.88-0.06-38.8,0.01c-2.17,0.01-2.68-0.89-2.62-2.82c0.11-3.38,0.12-6.75,0-10.13
	c-0.08-2.09,0.74-2.73,2.75-2.69C263.92,67.82,270.32,67.76,276.74,67.76z"/>
<path class="design17" d="M276.45,54.97c-6.14,0-12.28-0.1-18.42,0.05c-2.47,0.06-3.36-0.61-3.33-3.2c0.04-2.41,0.86-3.03,3.15-3.02
	c12.59,0.08,25.17,0.08,37.76,0c2.23-0.01,3.2,0.48,3.21,2.96c0.01,2.51-0.75,3.32-3.28,3.26
	C289.19,54.86,282.82,54.97,276.45,54.97z"/>
<path class="design18" d="M258.14,64.38c-2.32,0.38-3.39-0.26-3.46-2.94c-0.07-2.96,1.3-3.14,3.63-3.2c2.48-0.07,3.26,0.72,3.27,3.22
	C261.59,64.16,260.41,64.76,258.14,64.38z"/>
<path class="design18" d="M267.12,64.35c-2.86,0.54-2.78-1.21-2.93-3.2c-0.23-2.96,1.51-2.79,3.57-2.91c2.86-0.16,2.54,1.62,2.66,3.47
	C270.59,64.44,269.06,64.68,267.12,64.35z"/>
<path class="design18" d="M276.67,58.39c2.6-0.53,3.22,0.63,3.22,2.93c0,2.24-0.55,3.17-3,3.18c-2.53,0.01-3.29-0.78-3.24-3.28
	C273.68,58.82,274.41,57.83,276.67,58.39z"/>
<path class="design18" d="M289.22,61.28c0.41,2.29-0.38,3.22-2.85,3.23c-2.48,0.01-3.33-0.68-3.3-3.23c0.02-2.41,0.86-3.05,3.15-3.03
	C288.48,58.26,289.74,58.79,289.22,61.28z"/>
<path class="design18" d="M295.73,58.36c2.44-0.49,3.02,0.67,3.09,2.96c0.08,2.63-0.96,3.16-3.35,3.18c-2.57,0.04-2.85-1.15-2.91-3.27
	C292.5,58.8,293.4,57.91,295.73,58.36z"/>
<path class="design19" d="M276.62,111.71c-6.3,0-12.6-0.1-18.9,0.05c-2.48,0.06-2.98-0.92-3-3.17c-0.04-2.39,0.8-3.08,3.12-3.05
	c10.13,0.11,20.25,0.08,30.38,0.01c2.68-0.02,5.36-0.34,8.03-0.59c2.61-0.25,2.57,1.42,2.54,3.23c-0.04,1.81,0.34,3.6-2.59,3.54
	C289.68,111.62,283.14,111.71,276.62,111.71z"/>
<path class="design17" d="M276.58,121.18c-6.19,0-12.38-0.1-18.56,0.05c-2.45,0.06-3.38-0.6-3.33-3.2c0.04-2.41,0.87-3.04,3.16-3.03
	c12.6,0.08,25.19,0.1,37.8,0c2.3-0.01,3.12,0.62,3.16,3.03c0.05,2.61-0.9,3.24-3.34,3.2C289.19,121.08,282.89,121.18,276.58,121.18z
	"/>
<path class="design18" d="M276.66,124.52c1.01,0,2.02,0.08,3.02-0.02c2.43-0.25,3.63,0.35,3.59,3.23c-0.02,2.85-1.39,3.04-3.54,2.94
	c-2.35-0.11-4.7-0.13-7.05,0c-2.43,0.13-2.36-1.39-2.33-3.05c0.02-1.6-0.18-3.28,2.29-3.11
	C273.96,124.59,275.32,124.52,276.66,124.52z"/>
<path class="design18" d="M261.25,124.52c0.9,0,1.81,0.13,2.68-0.02c3.45-0.6,3.91,1.29,3.71,4.07c-0.12,1.63-0.8,2.13-2.31,2.08
	c-2.24-0.06-4.48-0.1-6.71,0.01c-2.35,0.11-4,0.06-3.95-3.22c0.04-3.23,1.82-3,3.89-2.93C259.46,124.53,260.35,124.51,261.25,124.52
	z"/>
<path class="design18" d="M292.76,130.63c-0.9,0-1.81-0.07-2.69,0.01c-2.36,0.22-3.72-0.19-3.66-3.18c0.05-2.82,1.35-3.11,3.55-2.98
	c1.8,0.11,3.6,0.13,5.39,0c2.29-0.17,3.58,0.28,3.47,3.04c-0.1,2.21-0.54,3.43-3.02,3.12C294.8,130.54,293.78,130.63,292.76,130.63z
	"/>
<path class="design9" d="M31.77,87.42c-6.19,0-6.19,0-6.19-6.25c0-0.79,0.07-1.58-0.01-2.35c-0.24-2.13,0.54-3.21,2.8-2.92
	c0.44,0.06,0.9,0.01,1.34,0.01c8.11-0.01,8.02-0.01,8.08,8.08c0.01,2.54-0.56,3.87-3.35,3.45C33.58,87.3,32.67,87.42,31.77,87.42z"
	/>
<path class="design9" d="M31.38,100.23c-6.71-0.1-5.76,0.89-5.77-5.97c-0.01-6.31-0.8-5.51,5.51-5.54c6.63-0.04,6.67-0.01,6.62,6.46
	C37.7,101.14,38.5,100.13,31.38,100.23z"/>
<path class="design9" d="M25.61,63.73c4.03,0.01,8.07,0.02,12.1,0.04c0.01,2.92-0.07,5.85,0.06,8.77c0.11,2.11-0.75,2.64-2.75,2.7
	c-9.45,0.28-9.45,0.32-9.43-9.14C25.58,65.31,25.61,64.52,25.61,63.73z"/>
<path class="design9" d="M25.62,37.95c4.05,0.04,8.08,0.08,12.12,0.12c0,2.91-0.11,5.83,0.02,8.74c0.11,2.42-0.72,3.38-3.26,3.41
	c-8.94,0.17-8.94,0.25-8.93-8.58C25.58,40.42,25.61,39.18,25.62,37.95z"/>
<path class="design10" d="M31.11,113.04c-6.31-0.07-5.49,0.77-5.52-5.58c-0.04-6.55,0-6.55,6.58-6.55c0.9,0,1.8,0.05,2.69-0.01
	c2.24-0.16,3.04,0.97,2.88,3.06c-0.06,0.78,0,1.57-0.01,2.36C37.71,113.76,38.56,113.02,31.11,113.04z"/>
<path class="design9" d="M25.62,125.2c-0.01-3.03,0.04-6.06-0.05-9.08c-0.05-1.72,0.61-2.3,2.35-2.41c9.73-0.62,11.26,1.02,9.72,10.71
	c-0.05,0.3-0.35,0.56-0.51,0.84C33.27,126.73,29.44,126.8,25.62,125.2z"/>
<path class="design10" d="M37.73,126.64c0,3.04-0.05,6.08,0.04,9.12c0.05,1.75-0.66,2.42-2.38,2.38c-3.27-0.07-6.53-0.02-9.8-0.02
	l-0.01-0.01c0.01-3.83,0.02-7.66,0.04-11.49C29.65,125.5,33.69,125.46,37.73,126.64z"/>
<path class="design9" d="M37.71,62.31c-4.02,0.01-8.05,0.04-12.08,0.05c-0.01-3.04,0.04-6.08-0.06-9.12c-0.05-1.74,0.6-2.54,2.36-2.37
	c0.11,0.01,0.23,0,0.34,0C37.91,50.47,37.91,50.47,37.71,62.31z"/>
<path class="design13" d="M37.73,126.64c-4.05-0.01-8.08-0.02-12.12-0.04c0-0.47,0.01-0.93,0.01-1.4c3.83,0.02,7.66,0.04,11.49,0.06
	C37.31,125.71,37.52,126.17,37.73,126.64z"/>
<path class="design12" d="M42.23,58.5c1.29-1.27,2.59-2.54,4.52-4.44C45.6,56.66,44.06,57.72,42.23,58.5z"/>
<path class="design8" d="M46.51,132.23c0.13,1.28-0.57,1.82-1.99,1.82c-1.39,0-2.09-0.5-2.05-1.97c0.04-1.1,0.13-2.03,1.57-2.08
	C45.49,129.95,46.45,130.44,46.51,132.23z"/>
<path class="design20" d="M41.77,106.33c-1.05-2.15,1.11-1.8,1.9-2.14c1.38-0.61,2.6,0.47,3.57,1.28c0.79,0.66-0.55,0.95-0.71,1.51
	C44.63,109.06,43.13,108.13,41.77,106.33z"/>
<path class="design21" d="M41.77,106.33c1.51,0.81,3.03,1.52,4.76,0.66c2.07,1.78-0.07,1.95-0.99,2.57c-1.56,1.04-2.8-0.04-4.01-0.73
	C39.92,107.91,42.27,107.22,41.77,106.33z"/>
<path class="design22" d="M42.51,92.12c1.99,0.26,5.17-1.11,5.17,2.27c0,3.2-3.06,2.33-5.16,2.42c-0.23-0.22-0.34-0.48-0.32-0.79
	c0.1-1.03,0.08-2.06-0.01-3.1C42.18,92.61,42.29,92.34,42.51,92.12z"/>
<path class="design23" d="M42.5,96.15c0,0.22,0.01,0.44,0.02,0.66c-2.19-1.56-2.8-3.12-0.01-4.69c0,0.23-0.01,0.45-0.01,0.67
	C42.64,93.92,42.63,95.03,42.5,96.15z"/>
<path class="design8" d="M41.16,40.74c0.89-0.01,1.78-0.02,2.67-0.02c3.85,0,5.19,1.9,4.05,5.58c-0.36,1.15-1.15,1.21-2.06,1.21
	c-1.56,0.01-3.11-0.01-4.67-0.01c-0.26-0.55,0.05-0.89,0.43-1.21c1.95-1.45,1.95-2.9-0.01-4.34C41.19,41.63,40.89,41.28,41.16,40.74
	z"/>
<path class="design13" d="M41.16,40.74c0.24,0.23,0.47,0.47,0.71,0.69c1.3,1.78,1.3,3.57,0,5.35c-0.24,0.24-0.48,0.47-0.71,0.71
	C40.1,45.24,40.08,42.99,41.16,40.74z"/>
<path class="design20" d="M45.82,85.27c-1.32,0.01-2.73,0.43-3.78-0.74c-0.97-1.09-1.83-2.21-1.24-3.88c0.93-2.63,3.11-2.01,5.05-2.05
	c0.28,0.44,0.02,0.78-0.25,1.1c-0.19,0.22-0.39,0.42-0.59,0.62c-0.42,0.84-0.34,1.7-0.2,2.57c0.11,0.24,0.22,0.49,0.36,0.72
	C45.44,84.15,46.24,84.48,45.82,85.27z"/>
<path class="design24" d="M45.2,79.27c0.23-0.22,0.44-0.44,0.67-0.66c2.96,2.44,2.94,4.3-0.04,6.67c-0.44-0.42-0.87-0.85-1.32-1.27
	C45.95,82.61,45.27,80.89,45.2,79.27z"/>
<path class="design18" d="M47.87,116.46c0.1,6.8,0.1,6.8-6.69,6.69c-0.59-0.65-0.31-1.14,0.29-1.57c2.99-0.34,1.72-3.04,2.55-4.58
	C45.13,115.6,46.51,116.02,47.87,116.46z"/>
<path class="design25" d="M47.87,116.46c-1.22,0.22-2.92-0.78-3.38,1.35c-2.21,0.48-1.38,3.02-2.74,4.07c-0.49,0.29-0.6,0.75-0.59,1.27
	c-1.4-1.8-0.56-3.84-0.59-5.77c-0.01-1.03,0.85-1.63,1.83-1.56C44.24,115.97,46.21,115.08,47.87,116.46z"/>
<path class="design26" d="M47.85,72.47c-1.8,1.39-3.83,0.55-5.74,0.57c-1.03,0.01-1.63-0.85-1.54-1.82c0.14-1.81-0.75-3.76,0.63-5.42
	c0.42,0.24,0.87,0.44,1.13,0.9c0.04,3.05,1.57,4.62,4.64,4.63C47.4,71.59,47.61,72.05,47.85,72.47z"/>
<path class="design27" d="M47.85,72.47c-0.22-0.24-0.44-0.47-0.66-0.71c-0.63-2.91-2.45-4.63-5.31-5.31c-0.23-0.22-0.45-0.43-0.68-0.65
	C49.03,65.8,47.86,64.57,47.85,72.47z"/>
<path class="design28" d="M31.75,84.02c-1.65-0.14-3.54,0.49-3.46-2.12c0.1-2.9,2.27-1.82,3.71-1.93c1.34-0.1,3.05-0.5,3.1,1.88
	C35.16,84.75,32.99,83.72,31.75,84.02z"/>
<path class="design29" d="M35.06,92.78c0.74,2.57-0.19,3.69-2.88,3.79c-2.79,0.11-4.57-0.47-3.85-3.77c0.55-0.26,0.89,0.05,1.2,0.43
	c1.46,1.94,2.91,1.94,4.34-0.04C34.18,92.81,34.53,92.53,35.06,92.78z"/>
<path class="design11" d="M35.06,92.78c-0.24,0.24-0.48,0.48-0.71,0.72c-1.77,1.29-3.55,1.3-5.34,0.01c-0.24-0.24-0.47-0.48-0.71-0.71
	C30.56,91.71,32.81,91.74,35.06,92.78z"/>
<path class="design30" d="M35.06,70.94c0.2,1.99-1.18,2.85-2.42,2.02c-1.71-1.15-3.06-2.97-4.26-4.72c-0.43-0.63-0.39-2.18,1.03-2.37
	c1.13-0.16,3-0.59,2.8,1.26C31.95,69.58,35.73,68.59,35.06,70.94z"/>
<path class="design31" d="M35.09,43.33c0.04,2.75-0.85,4.07-3.08,4.19c-2.26,0.11-3.65-0.83-3.71-3.24c-0.06-2.32,1.05-3.53,3.41-3.55
	C33.91,40.69,34.93,41.87,35.09,43.33z"/>
<path class="design8" d="M31.81,110.26c-2.99,0.63-3.53-0.71-3.6-3.26c-0.08-2.87,0.96-3.66,3.65-3.49c1.96,0.12,3.73,0.14,3.43,2.72
	C35.03,108.36,35.76,111.64,31.81,110.26z"/>
<path class="design12" d="M35.12,120.14c0.18,1.83-1.27,2.85-3.21,2.98c-2.26,0.14-3.54-1.26-3.58-3.48c-0.02-2.19,1.27-3.69,3.42-3.73
	C34.02,115.84,35.02,117.46,35.12,120.14z"/>
<path class="design20" d="M35.03,132.47c0.62,2.78-0.57,3.53-3.38,3.65c-3.42,0.16-3.32-1.63-3.46-4.09c-0.16-2.93,1.03-3.43,3.67-3.52
	C35.09,128.4,35.4,129.99,35.03,132.47z"/>
<path class="design18" d="M35,56.59c0.59,2.8-0.36,3.76-3.27,3.85c-3.32,0.11-3.45-1.45-3.53-4.01c-0.08-2.81,0.85-3.55,3.6-3.6
	C34.9,52.78,35.53,54.08,35,56.59z"/>
<path class="design32" d="M42.5,96.15c-0.77-1.13-0.77-2.24,0-3.36C43.49,93.92,43.49,95.03,42.5,96.15z"/>
<path class="design33" d="M44.52,44.14c0.19-0.99-0.42-2.53,1.26-2.59c1.97-0.07,1.38,1.63,1.41,2.7c0.04,1.02,0.37,2.49-1.36,2.43
	C44.11,46.63,44.7,45.14,44.52,44.14z"/>
<path class="design9" d="M41.86,46.78c0-1.78,0-3.57,0-5.35c2.32-0.22,1.95,1.45,2,2.84C43.91,45.69,43.85,47,41.86,46.78z"/>
<path class="design10" d="M45.2,79.27c1.64,1.84,2.66,3.6-0.68,4.74v-0.01c-0.45-1.58-0.56-3.16,0.06-4.73
	C44.77,79.28,44.99,79.27,45.2,79.27z"/>
<path class="design24" d="M44.57,79.28c-0.01,1.58-0.04,3.15-0.05,4.73C43.5,82.41,43.42,80.83,44.57,79.28z"/>
<path class="design34" d="M41.77,121.89c0.02-0.89,0.07-1.77,0.05-2.66c-0.06-2.32,1.04-2.38,2.68-1.41c-0.02,1.08,0.14,2.2-0.12,3.21
	C44.02,122.4,43.11,123.05,41.77,121.89z"/>
<path class="design10" d="M41.87,66.45c5.94,0.04,5.34-0.78,5.31,5.31C41.06,71.92,41.8,72.3,41.87,66.45z"/>
<path class="design9" d="M29.02,93.51c1.78,0,3.55-0.01,5.34-0.01c0.23,1.99-1.09,2.05-2.5,2C30.47,95.45,28.82,95.82,29.02,93.51z"/>
<path class="design35" d="M30.95,67.97c-0.01,0.29-0.11,0.84-0.79,0.96c-0.69,0.12-1.03-0.31-1.1-0.91c-0.08-0.71,0.07-1.4,0.95-1.42
	C30.64,66.57,30.95,67.05,30.95,67.97z"/>
<path class="design36" d="M31.99,46.8c-1.97-0.14-2.73-1.33-2.74-2.72c-0.01-1.53,1.18-2.5,2.64-2.51c1.56-0.01,2.44,1.1,2.41,2.64
	C34.26,45.83,33.11,46.48,31.99,46.8z"/>
<path class="design37" d="M33.03,109.69c-3.29,0.6-4.64-0.73-4.05-4.03C31.96,105.5,33.15,106.69,33.03,109.69z"/>
<path class="design10" d="M30.37,104.29c3.28-0.6,4.6,0.77,4.01,4.02C32.24,107.77,30.89,106.46,30.37,104.29z"/>
<path class="design38" d="M30.37,104.29c1.03,1.64,2.39,2.97,4.01,4.02c-0.25,0.66-0.69,1.11-1.35,1.36c-0.61-2.08-1.95-3.45-4.05-4.03
	C29.24,104.97,29.69,104.52,30.37,104.29z"/>
<path class="design9" d="M34.33,119.36c0.02,1.86-0.93,2.66-2.24,2.73c-1.59,0.1-2.91-0.72-2.94-2.45c-0.04-1.56,1.05-2.43,2.57-2.44
	C33.3,117.17,34.01,118.27,34.33,119.36z"/>
<path class="design39" d="M33.58,132.15c-0.06,1.15-0.65,1.69-1.65,1.77c-1.1,0.08-1.59-0.48-1.6-1.57c0-1.02,0.32-1.71,1.48-1.68
	C32.84,130.72,33.41,131.24,33.58,132.15z"/>
</svg>
