<?xml version="1.0" encoding="UTF-8"?>
<svg id="Layer_1" data-name="Layer 1" xmlns="http://www.w3.org/2000/svg" viewBox="0 0 345.28 338.06">
  <defs>
    <style>
      .logistics-1 {
        fill: #647989;
      }

      .logistics-2 {
        fill: #fc5426;
      }

      .logistics-3 {
        fill: #fbb429;
      }

      .logistics-4 {
        fill: #685e67;
      }

      .logistics-5 {
        fill: #0101a2;
      }

      .logistics-6 {
        fill: #887e8a;
      }

      .logistics-7 {
        fill: #546e7a;
      }

      .logistics-8 {
        fill: #ecb993;
      }

      .logistics-9 {
        fill: #ffb07b;
      }

      .logistics-10 {
        fill: #f0f5f6;
      }

      .logistics-11 {
        fill: #fc6930;
      }

      .logistics-12 {
        fill: #21d0c3;
      }

      .logistics-13 {
        fill: #9e999f;
      }

      .logistics-14 {
        fill: #aebcc2;
      }

      .logistics-15 {
        fill: #989198;
      }

      .logistics-16 {
        fill: #f88a00;
      }

      .logistics-17 {
        fill: #fdbc91;
      }

      .logistics-18 {
        fill: #f28c53;
      }

      .logistics-19 {
        fill: #ada6ae;
      }

      .logistics-20 {
        fill: #887d8a;
      }

      .logistics-21 {
        fill: #3a556a;
      }

      .logistics-22 {
        fill: #9cc5fa;
      }

      .logistics-23 {
        fill: #fc7a51;
      }

      .logistics-24 {
        fill: #fea426;
      }

      .logistics-25 {
        fill: #e4a77f;
      }

      .logistics-26 {
        fill: #788e9a;
      }

      .logistics-27 {
        fill: #8ea2ac;
      }

      .logistics-28 {
        fill: #fefefe;
      }
    </style>
  </defs>
  <path class="logistics-23" d="M242.29,305.67c-5.05-.99-10.15-1.79-15.26-2.4-2.41-.29-4.23,1.06-4.81,3.51-.58,2.46,.48,4.22,2.75,5.27,.58,.27,1.44-.04,1.72,.88-.48,1.02-1.54,1.25-2.42,1.7-17.41,8.93-35.93,13.49-55.45,14.19-2.14,0-4.28,0-6.42,0-18.21-.54-35.61-4.57-52.14-12.26-3.18-1.48-5.85-.64-6.94,1.99-1.09,2.63,.09,4.99,3.4,6.46,38.8,17.27,77.65,17.45,116.53,.3,3.51-1.55,6.91-3.36,10.73-5.22-.2,1.23-.39,1.99-.43,2.75-.14,2.69,1.15,4.47,3.75,4.96,2.44,.46,4.42-.61,5.1-3.03,1.27-4.51,2.37-9.08,3.34-13.67,.58-2.75-.66-4.9-3.45-5.44Z"/>
  <path class="logistics-12" d="M26.94,211.61c2.01,1.62,3.48,4.63,6.89,2.75,3.14-1.31,3.94-4.59,5.8-6.96,.99-1.26,1.77-2.67,2.69-3.99,1.36-1.95,1.83-4.03,.49-6.09-1.7-2.6-4.26-2.09-6.77-1.33-.42-2.85,.18-5.44,.41-8.05,2.31-26.98,12.36-50.76,29.58-71.57,5.57-6.74,11.87-12.74,18.66-18.24,3.29-2.67,3.53-6.04,.66-8.04-2.43-1.71-4.49-.68-6.53,.95-14.88,11.91-26.84,26.26-35.83,43.05-10.06,18.79-15.43,38.88-16.21,60.19-.07,1.79,.57,4.24-2.9,2.38-1.73-.93-3.9-.41-5.15,1.54-1.35,2.11-1.15,4.2,.58,5.97,2.48,2.54,5.08,4.97,7.62,7.45Z"/>
  <path class="logistics-3" d="M247.51,87.26c-2.66-.13-4.95,.95-5.09,3.92-.23,4.57-.16,9.17-.03,13.74,.06,2.22,1.54,3.54,3.72,3.86,2.17,.32,3.81-.6,4.75-2.58,.4-.86,.58-1.82,.96-3.09,5.18,4.52,9.67,9.24,13.76,14.31,19.78,24.57,29.7,52.57,29.18,84.19-.04,2.28-.37,4.66,1.94,6.21,1.28,1.35,2.72,1.27,4.23,.45h0s0,0,0,0c1.54-.34,2.48-1.25,2.7-2.84,.13-1.48,.37-2.96,.39-4.44,.22-18.67-3.12-36.67-10.19-53.96-7.38-18.06-18.15-33.84-32.13-47.45-.8-.78-3.15-1.46-.79-3.26,1.8-1.36,1.9-3.38,1.21-5.32-.69-1.93-2.36-2.64-4.34-2.8-3.42-.28-6.83-.78-10.26-.94Z"/>
  <path class="logistics-5" d="M237.3,186.14c-4.43-.48-8.81-1.46-13.22-2.14-2.52-.39-4.21-1.56-4.86-4.14-1.16-4.58-2.95-8.93-5.34-13-1.43-2.44-1.08-4.49,.53-6.66,2.66-3.59,5.19-7.28,7.77-10.93,.46-.65,.87-1.33,1.37-2.1-.36-.48-.64-.97-1.03-1.37-2.5-2.53-5.07-4.99-7.51-7.57-1.28-1.36-2.26-.94-3.53,0-3.69,2.72-7.5,5.28-11.19,8-2.2,1.62-4.26,1.78-6.69,.43-2.6-1.44-5.27-3.32-8.08-3.69-7.77-1.01-9.72-6.06-10-12.68,0-.23-.04-.46-.07-.68q-1.27-9.29-10.53-9.29c-.8,0-1.61,.08-2.41-.01-2.25-.26-3.31,.56-3.58,2.95-.45,4.09-1.3,8.14-1.87,12.23-.44,3.12-1.65,5.23-5.06,6.05-4.23,1.01-8.27,2.75-12.01,5.01-2.5,1.51-4.69,1.32-6.99-.38-3.59-2.66-7.32-5.14-10.9-7.82-1.54-1.15-2.64-1.38-4.06,.21-2.14,2.39-4.41,4.68-6.79,6.82-1.5,1.34-1.23,2.29-.16,3.72,2.6,3.49,4.9,7.21,7.58,10.64,2.07,2.65,2.15,5.03,.45,7.86-2.14,3.54-3.72,7.38-4.69,11.4-.75,3.12-2.59,4.58-5.71,5.01-4.42,.61-8.8,1.55-13.22,2.18-1.73,.25-2.36,.98-2.33,2.67,.07,3.21,.12,6.43-.02,9.63-.09,2.05,.74,2.76,2.71,3.04,4.65,.67,9.24,1.67,13.88,2.37,2.53,.38,3.9,1.85,4.49,4.12,1.16,4.47,2.89,8.71,5.25,12.66,1.5,2.52,1.25,4.68-.47,6.96-2.62,3.48-4.99,7.15-7.7,10.56-1.49,1.88-1.25,3.08,.43,4.58,2.14,1.91,4.17,3.94,6.09,6.07,1.39,1.54,2.46,1.86,4.24,.43,3.12-2.51,6.59-4.59,9.71-7.1,2.96-2.38,5.68-2.84,9.03-.67,3.17,2.05,6.73,3.57,10.43,4.34,3.8,.79,5.3,3.08,5.79,6.63,.56,4.08,1.41,8.13,1.93,12.22,.26,2.04,1.14,2.71,3.13,2.63,3.09-.13,6.2-.1,9.29,0,1.77,.05,2.65-.38,2.92-2.37,.64-4.65,1.67-9.24,2.36-13.89,.39-2.61,1.76-4.18,4.21-4.83,4.57-1.22,8.9-3,12.97-5.39,2.28-1.34,4.3-1.13,6.38,.39,3.7,2.71,7.54,5.24,11.14,8.06,1.78,1.4,2.81,1.12,4.2-.45,1.98-2.23,4.11-4.33,6.33-6.31,1.51-1.35,1.63-2.39,.37-4.01-2.73-3.54-5.2-7.27-7.89-10.85-1.71-2.27-2-4.39-.48-6.95,2.36-3.95,4.12-8.2,5.24-12.67,.64-2.54,2.15-3.94,4.69-4.35,3.62-.58,7.22-1.26,10.85-1.77,5.5-.77,5.5-.72,5.5-6.09,0-2.06-.11-4.14,.03-6.19,.15-2.21-.45-3.27-2.92-3.54Zm-46.82,15.84c-.47,1.54-1.31,3-1.37,4.65-.42,.16-.79,.48-1.11,.92-1.86,2.57-3.81,5.02-6.49,6.83-.28,.19-.47,.44-.57,.72-.11-.01-.21-.02-.32-.02-2.58,1.2-5.12,2.44-7.92,3.16-7.08,1.8-13.54-.09-19.86-3.05-.56,.29-1.12,.48-1.68,.58-2.51-1.77-4.51-4.03-6.34-6.48,.2-.55,.37-1.09,.42-1.61-.8-2.13-1.85-4.16-2.51-6.36-5.38-18.06,9.61-34.13,26.09-32.51,16.69,1.63,26.58,17.11,21.64,33.18Z"/>
  <path class="logistics-6" d="M107.74,72.37c-2.52,0-5.04-.04-7.55,.02-1.19,.03-2.1-.3-2.7-1.36v-6.21c1.13-1.56,2.83-.94,4.31-1.13,.25-.2,.55-.33,.87-.33,2.83-.02,5.66-.19,8.48,.1,.56,.19,.52,.58,.24,.94-1.7,2.17-2.78,4.6-3.17,7.34-.04,.27-.22,.49-.47,.63Z"/>
  <path class="logistics-19" d="M222.72,51.83c1.52,0,3.03,.02,4.55,.03,.42,.48,.43,1.06,.43,1.65,.01,2.82,.02,5.63,0,8.45,0,.67,.01,1.36-.55,1.87-1.45,.62-2.96,.29-4.44,.27-.66-.1-1.1-.55-1.58-.97-5.02-4.44-12.63-4.45-17.64-.03-.47,.42-.91,.88-1.57,.99-2.25,.13-4.5,.13-6.74,0-.76-.11-1.23-.7-1.79-1.13-4.63-3.58-9.59-4.16-14.89-1.66-.94,.44-1.78,1.04-2.52,1.77-.48,.48-.97,.94-1.69,1.03-5.81,.17-11.62,.07-17.44,.06-.4,0-.8-.08-1.14-.34-.33-.41-.36-.91-.37-1.4-.03-3.05-.02-6.1,0-9.15,0-.49,.02-.99,.33-1.42,.4-.35,.9-.39,1.39-.39,3.23,0,6.46-.06,9.69,.02,1.39,.03,2.78,.02,4.18,0,7.24-.07,14.48-.07,21.72,0,1.39-.04,2.79-.04,4.18,0,7.25-.06,14.49-.07,21.74,0,1.39,.08,2.81-.34,4.15,.36Z"/>
  <path class="logistics-11" d="M111.5,63.76c-3.23-.02-6.47-.04-9.7-.06,.01-4.86,.02-9.73,.03-14.59,.5-.4,1.1-.33,1.68-.33,2.24-.01,4.49-.02,6.73,0,1.54,.01,2.76-.5,3.71-1.78,1.9-2.55,4.4-3.78,7.66-3.66,3.76,.14,7.54,.04,11.31,.03,2.51-.01,3.01-.51,3.02-2.98,0-3.99,0-7.99,0-11.98,0-.99,.02-1.97-.57-2.85-.16-.24-.33-.57,.04-.83,1.58-.51,3.2-.27,4.8-.19,.68,.03,1.01,.5,1.1,1.16,.08,.58,.06,1.16,.06,1.75,0,11.3,0,22.61,0,33.91,0,.8,.13,1.62-.31,2.37-.38,.39-.88,.43-1.37,.43-2.52,0-5.03,.1-7.55-.06-.67-.07-1.12-.51-1.6-.91-5.53-4.6-12.42-4.57-17.88,.05-.33,.28-.62,.68-1.15,.52Z"/>
  <path class="logistics-22" d="M135.18,24.92c.9,.61,1.19,1.45,1.18,2.54-.05,4.54-.02,9.08-.02,13.62,0,2.01-.62,2.63-2.68,2.63-4,.01-8,.09-12-.02-2.98-.08-5.41,.91-7.14,3.29-1.22,1.67-2.71,2.25-4.73,2.14-2.64-.14-5.3-.02-7.95,0,0-4.89-.02-9.79-.04-14.68,0-.62,.19-1.14,.55-1.62,1.99-2.65,3.98-5.29,5.97-7.94,.6-.38,1.26-.42,1.94-.42,7.68,0,15.35,0,23.03,0,.66,0,1.37-.11,1.89,.47Z"/>
  <path class="logistics-4" d="M174.65,63.73c2.94-2.96,6.47-4.45,10.65-4.3,3.78,.13,6.89,1.79,9.58,4.33,.81,.31,1.22,1.01,1.66,1.69,1.37,2.11,2.23,4.38,2.22,6.93,0,.49-.01,.98,.04,1.47,.06,.35,.15,.71-.14,1.01-.48,.27-.34,.8-.43,1.19-1.64,7.1-8.01,11.68-15.15,10.88-6.87-.78-12.08-6.66-12.17-13.73,0-.27-.01-.54-.02-.81-.35-.4-.19-.84-.13-1.28,.33-2.35,1.22-4.47,2.66-6.37,.34-.45,.8-.7,1.24-1Z"/>
  <path class="logistics-4" d="M111.5,63.76c3.01-2.99,6.59-4.54,10.86-4.32,3.71,.19,6.76,1.81,9.39,4.34,.6,.25,1.01,.7,1.37,1.23,1.89,2.74,2.93,5.68,2.17,9.06-.15,6.4-5.44,12.06-11.99,12.86-6.78,.82-13.26-3.5-15.01-10.02-.4-1.48-.52-3-.56-4.53,.4-2.56,1.03-5.03,2.62-7.15,.37-.49,.76-.98,1.14-1.47Z"/>
  <path class="logistics-4" d="M198.65,74.85c-.08-.29-.17-.58-.25-.86,.29-.52,.07-1.08,.14-1.62-.25-2.77,.73-5.16,2.28-7.37,.37-.52,.77-.98,1.36-1.24,2.71-2.63,5.88-4.22,9.71-4.33,4.15-.12,7.6,1.45,10.52,4.32,2.07,1.23,2.62,3.43,3.47,5.44,.79,1.88,.1,3.79,.08,5.69-.43,5.94-5.57,11.17-11.83,12.04-7.55,1.04-14.66-4.5-15.48-12.05Z"/>
  <path class="logistics-25" d="M205.42,.06c4.28-.24,4.36,.1,4.34,4.07-.05,7.25,.02,14.51,.04,21.76-.76,.79-1.74,.42-2.64,.5-.57,.05-1.15,.02-1.72-.02-2.86,.05-5.73,.06-8.59,0-1.37,.04-2.73,.04-4.1,0-1.53,.04-3.05,.04-4.58,0-2.77,.01-5.54,.09-8.31-.04-.16-.02-.32-.05-.48-.1-1.65-.32-3.31-.07-4.97-.15-1.16-.06-2.32,.14-3.49-.15-.18-.04,.29,.11,.2,.31,.23,.61,.19,1.24,.19,1.87,0,7.13,0,14.26,0,21.39,0,.71,.11,1.45-.34,2.09-1.4,.28-2.79,.2-4.2,.04-.38-.45-.37-1-.37-1.54-.01-7.51-.01-15.02,0-22.53,0-.4,.01-.81,.14-1.2,.09-.21,.24-.37,.52-.54-1.6,.52-3.18,0-4.69,.39-.15,.05-.31,.08-.46,.1-1.35-.07-2.77,.5-4.04-.41,.03-1.32,.06-2.64,.09-3.97,.64-.58,1.44-.44,2.19-.44,5.66-.01,11.32,0,16.98,0,1.9,0,1.94-.05,1.95-1.98,0-5.75,0-11.5,0-17.25,0-.75-.12-1.54,.43-2.19,1.44,0,2.88,0,4.32,0,.55,.65,.43,1.44,.43,2.19,.01,5.75,0,11.5,0,17.24,0,1.93,.05,1.99,1.94,1.99,5.61,0,11.23,0,16.84,0,1.89,0,1.94-.05,1.94-1.99,0-5.75,0-11.5,0-17.24,0-.75-.12-1.54,.43-2.19Z"/>
  <path class="logistics-8" d="M196.78,25.97c2.88,0,5.76,0,8.64,0,.43,.49,.37,1.09,.38,1.67,.01,1.93-.03,3.86,.02,5.8,.04,1.3,.43,1.62,1.59,1.09,1.59-.73,3.05-.73,4.65,0,1.16,.53,1.55,.21,1.59-1.09,.06-1.93,0-3.86,.02-5.8,0-.58-.05-1.18,.38-1.67,1.53,0,3.06-.02,4.59-.02,.45,.52,.44,1.16,.44,1.78,0,7.44,0,14.88,0,22.32,0,.62,.06,1.27-.43,1.78-7.29,0-14.57,0-21.86,0-.49-.51-.43-1.16-.43-1.78-.01-7.43-.01-14.87,0-22.3,0-.62-.03-1.27,.43-1.78Z"/>
  <path class="logistics-8" d="M166.83,25.97c0,8.54,0,17.09,0,25.63,.09,.05,.12,.1,.09,.15-.03,.05-.06,.07-.1,.07-3.69,.01-7.38,.03-11.06,.04-.39,.36-.88,.42-1.38,.42-2.73,.02-5.47,.03-8.2,0-.45,0-.9-.06-1.27-.36-.43-.59-.37-1.28-.37-1.94,0-7.35-.01-14.69,0-22.04,0-.7-.14-1.45,.48-2.02,2.86,.01,5.73,.03,8.59,.04,.43,.49,.37,1.09,.38,1.67,.02,1.93-.03,3.86,.02,5.8,.04,1.29,.43,1.62,1.59,1.09,1.59-.73,3.05-.73,4.65,0,1.16,.53,1.55,.2,1.59-1.09,.06-1.93,0-3.86,.02-5.8,0-.58-.05-1.18,.38-1.66h.02c1.52-.22,3.04-.22,4.57,0Z"/>
  <path class="logistics-2" d="M145.02,25.93c0,8.64,0,17.28-.01,25.91,.33,.41,.39,.9,.39,1.39,.02,3.08,.02,6.16,0,9.25,0,.45-.05,.9-.33,1.28-1.39,.58-2.77,.71-4.14-.07,0-12.39-.03-24.77,.03-37.16,0-1.42-.42-1.79-1.74-1.67-1.34,.12-2.69,.05-4.04,.06-7.97-.01-15.94-.03-23.91-.04-.99,0-1.97-.01-2.96-.02,1.92-2.6,3.83-5.19,5.75-7.79,.46-.63,1.08-.85,1.87-.85,8.99,.01,17.98,0,26.96,0,1.5,0,2.07,.63,2.08,2.15,.02,2.52,.03,5.03,.05,7.55Z"/>
  <path class="logistics-8" d="M205.42,.06c0,6.78-.02,13.56,.02,20.34,0,1.12-.2,1.57-1.46,1.55-6.24-.07-12.48-.07-18.72,0-1.26,.01-1.46-.43-1.46-1.55,.05-6.78,.02-13.56,.02-20.34,2.88,0,5.76,0,8.64,0,.43,.49,.37,1.09,.38,1.67,.02,1.93-.03,3.86,.02,5.79,.04,1.29,.43,1.62,1.59,1.09,1.59-.73,3.05-.73,4.65,0,1.16,.53,1.55,.2,1.59-1.09,.06-1.93,0-3.86,.02-5.79,0-.58-.05-1.18,.38-1.67,1.44,0,2.88,0,4.32,0Z"/>
  <path class="logistics-8" d="M179.51,.06c0,6.79-.03,13.57,.03,20.36,0,1.16-.27,1.54-1.49,1.53-6.7-.06-13.39-.02-20.09-.02-.01-6.6-.03-13.19-.03-19.79,0-1.48,.65-2.09,2.17-2.1,2.15-.01,4.31,.01,6.46,.02,.43,.49,.37,1.09,.38,1.67,.02,1.93-.03,3.86,.02,5.79,.04,1.29,.43,1.62,1.59,1.09,1.59-.73,3.05-.73,4.65,0,1.16,.53,1.55,.2,1.59-1.09,.06-1.93,0-3.86,.02-5.79,0-.58-.05-1.18,.38-1.67,1.44,0,2.88,0,4.32,0Z"/>
  <path class="logistics-6" d="M140.93,63.69l4.02,.03c.4-.33,.89-.4,1.39-.41,2.69-.02,5.37-.02,8.06,0,.5,0,.99,.06,1.38,.41,6.29,0,12.58,0,18.87,0-2.23,2.46-3.44,5.36-3.77,8.65-11.41,0-22.83,.03-34.24-.06-1.59-.01-.96,1.11-1.34,1.73,.25-3.92-1.01-7.32-3.54-10.29,3.06-.03,6.11-.05,9.17-.08Z"/>
  <path class="logistics-25" d="M218.64,51.83c0-8.63,0-17.25,0-25.88,3.96-.16,4.05-.06,4.05,3.8,0,7.36,.02,14.72,.03,22.08-1.36,0-2.72,0-4.08,0Z"/>
  <path class="logistics-6" d="M225.97,74.87c0-1.11,.06-2.23-.02-3.33-.21-3.03-1.63-5.52-3.53-7.79,1.53,0,3.05,0,4.58,0,1.45-.62,2.91-.64,4.36-.01,.22,0,.45,.01,.67,.01,3.46,.02,3.6,.16,3.6,3.68,0,.9,.02,1.8,0,2.69-.03,1.52-.72,2.22-2.23,2.25-1.93,.03-3.86,.07-5.79-.02-1.07-.05-1.61,.18-1.44,1.36,.05,.38,.07,.81-.2,1.17Z"/>
  <path class="logistics-11" d="M175.19,.07c0,2.61,.01,5.21,0,7.82,0,1.52-.42,1.88-1.77,1.22-1.75-.86-3.34-.86-5.09,0-1.35,.66-1.76,.3-1.77-1.22-.01-2.61,0-5.21,0-7.82,2.87,0,5.75,0,8.62,0Z"/>
  <path class="logistics-11" d="M201.09,.07c0,2.61,.01,5.21,0,7.82,0,1.52-.42,1.88-1.77,1.22-1.75-.86-3.34-.86-5.09,0-1.35,.66-1.76,.3-1.77-1.22-.01-2.61,0-5.21,0-7.82,2.87,0,5.75,0,8.62,0Z"/>
  <path class="logistics-11" d="M214.05,25.97c0,2.61,.01,5.21,0,7.82,0,1.52-.42,1.88-1.77,1.22-1.75-.86-3.34-.86-5.09,0-1.35,.66-1.76,.3-1.77-1.22-.01-2.61,0-5.21,0-7.82,1.46-.03,2.91-.05,4.37-.08,1.42,.03,2.84,.06,4.25,.08Z"/>
  <path class="logistics-11" d="M162.24,25.97c0,2.61,.01,5.21,0,7.82,0,1.53-.42,1.9-1.76,1.22-1.81-.92-3.44-.82-5.22,.05-1.18,.58-1.63,.2-1.64-1.13-.02-2.65,0-5.3,0-7.96,1.42-.03,2.84-.05,4.26-.08,1.46,.02,2.91,.05,4.37,.07Z"/>
  <path class="logistics-13" d="M231.37,63.72c-1.45,0-2.91,0-4.36,.01,.31-.48,.27-1.02,.27-1.56,0-3.44,0-6.88,0-10.32,3.87-.18,4.05-.01,4.05,3.81,0,2.69,.03,5.37,.04,8.06Z"/>
  <path class="logistics-8" d="M188.14,25.97c1.53,0,3.06,0,4.59,0,.46,.52,.44,1.16,.44,1.78,0,7.44,.01,14.87,0,22.31,0,.62,.06,1.27-.43,1.78-7.29,0-14.57,0-21.86,0-.09-.05-.13-.1-.1-.15,.03-.05,.06-.08,.09-.08,0-8.55,0-17.09,0-25.64,2.87-.22,5.75-.22,8.62,0h.02c.43,.49,.38,1.09,.38,1.67,.01,1.89-.02,3.78,.02,5.66,.03,1.46,.41,1.77,1.72,1.18,1.51-.68,2.88-.68,4.39,0,1.32,.59,1.69,.28,1.72-1.18,.04-1.89,0-3.77,.02-5.66,0-.58-.05-1.18,.38-1.67Z"/>
  <path class="logistics-13" d="M155.77,63.73c-3.61,0-7.22,0-10.83,0,.02-3.96,.04-7.92,.07-11.88,3.58,0,7.17,.02,10.75,.03,0,3.95,0,7.9,.01,11.86Z"/>
  <path class="logistics-25" d="M192.73,51.83c0-8.62,0-17.24,0-25.86,1.35,0,2.7,0,4.05,0,0,8.62,0,17.24,0,25.86-1.35,0-2.7,0-4.05,0Z"/>
  <path class="logistics-20" d="M202.19,63.76c-2.04,2.52-3.53,5.27-3.54,8.63-.07,.11-.15,.11-.22,0,0-3.36-1.49-6.11-3.54-8.63,2.43,0,4.87,0,7.3,0Z"/>
  <path class="logistics-25" d="M170.87,51.6c0,.08,0,.15,0,.23-1.35,0-2.7,0-4.05,0,0-.08,0-.15,0-.23h4.04Z"/>
  <path class="logistics-10" d="M134.32,54.09c-.67,0-1.35,.05-2.02-.01-1.15-.1-1.78-.79-1.88-1.92-.09-1.08,.69-2.07,1.8-2.14,1.43-.09,2.87-.08,4.31-.01,1.1,.05,1.93,1.03,1.91,2.07-.02,1.06-.83,1.93-1.96,2.01-.71,.05-1.44,0-2.15,0Z"/>
  <path class="logistics-10" d="M190.05,73.25c-.02,2.97-2.47,5.37-5.44,5.31-2.89-.05-5.28-2.52-5.24-5.4,.03-2.9,2.45-5.32,5.33-5.32,2.97,0,5.37,2.42,5.35,5.41Z"/>
  <path class="logistics-15" d="M198.42,72.39c.07,0,.15,0,.22,0-.06,.54,.25,1.13-.24,1.6,0-.53,.01-1.07,.02-1.6Z"/>
  <path class="logistics-10" d="M126.92,73.22c0,2.99-2.42,5.38-5.4,5.34-2.9-.04-5.24-2.43-5.23-5.37,0-2.94,2.36-5.33,5.26-5.35,2.97-.02,5.38,2.39,5.37,5.38Z"/>
  <path class="logistics-10" d="M217.64,73.15c.02,2.94-2.29,5.35-5.19,5.41-2.98,.06-5.42-2.32-5.44-5.3-.02-3,2.35-5.41,5.33-5.42,2.89,0,5.28,2.38,5.3,5.31Z"/>
  <path class="logistics-11" d="M188.14,25.97c0,2.61,.01,5.22,0,7.82,0,1.53-.42,1.89-1.77,1.22-1.75-.86-3.34-.86-5.09,0-1.35,.67-1.76,.3-1.77-1.22-.01-2.61,0-5.22,0-7.82,2.88,0,5.75,0,8.63,0Z"/>
  <path class="logistics-25" d="M179.5,25.97c-2.87,0-5.75,0-8.62,0-.04,0-.1,0-.13-.03-.05-.05-.08-.11-.12-.17,.3-.02,.6-.07,.9-.07,2.24,0,4.47-.01,6.71,0,.43,0,.91-.16,1.25,.26Z"/>
  <path class="logistics-25" d="M166.83,25.97c-1.52,0-3.04,0-4.57,0,1.59-.55,3.21-.21,4.82-.19,0,.03,0,.09,0,.1-.08,.04-.16,.06-.24,.1Z"/>
  <path class="logistics-18" d="M43.02,318.08h-.66c-1.1-1.06-1.52-2.42-1.53-3.88-.11-15.6-.27-31.19,.08-46.79,0-.33,.11-.65,.17-.97,.72-1.87,2.13-2.96,3.97-3.67,11.05-4.31,22.16-8.48,33.26-12.67,1.99-.75,4.45-2.34,6.68-.06,.13,16.73,0,33.46,.08,50.19,.01,2.31-.94,3.64-3.07,4.48-9.83,3.86-19.73,7.51-29.57,11.35-3.01,1.17-6.32,1.12-9.41,2.02Z"/>
  <path class="logistics-17" d="M42.4,265.77c-.01,17.44-.03,34.87-.04,52.31h-.66c-13.64-2.4-25.87-8.9-38.81-13.33-1.36-.47-2.08-1.54-2.89-2.57v-53c.4-.36,.85-.58,1.39-.56,4.67,1.37,9.43,2.49,13.73,4.92,.48,.27,.98,.48,1.33,.92,.16,.28,.28,.59,.35,.9,.46,2.58,.7,5.17,.74,7.8,.06,3.84,2.87,5.73,6.95,4.88,1.76-2.58,1.02-5.8,2.25-8.51,3.78-1.16,6.96,.98,10.32,1.97,1.32,.39,2.51,1.28,3.88,1.72,1.15,.38,1.8,1.21,1.46,2.53Z"/>
  <path class="logistics-9" d="M68.29,243.23c5.48,2.06,11.17,3.61,16.3,6.53-9.9,3-19.31,7.28-29.03,10.77-4.44,1.6-8.78,3.48-13.16,5.24-5.08-1.99-10.16-3.99-15.24-5.98-.56-1.75,.64-2.36,1.91-2.86,11.32-4.44,22.7-8.75,34.03-13.16,1.69-.66,3.46-.31,5.19-.54Z"/>
  <path class="logistics-9" d="M1.27,249.12c13.31-5.11,26.62-10.22,39.91-15.36,.89-.34,1.66-.31,2.53,.03,4.58,1.82,9.17,3.61,13.76,5.41-.12,2.68-2.52,2.83-4.19,3.49-9.77,3.9-19.64,7.57-29.43,11.41-2.05,.8-4.14,1.41-6.35,1.57-.58,.04-1.08-.07-1.5-.47-5.02-1.75-10.25-3.01-14.72-6.09Z"/>
  <path class="logistics-1" d="M15.99,255.21c13.83-5.33,27.65-10.67,41.48-16,3.76,.93,7.31,2.42,10.82,4.02-7.51,3.66-15.52,6.07-23.21,9.26-5.96,2.47-12.2,4.23-17.91,7.3-.75,3.86,.39,7.83-.65,11.68-1.66-1.22-1.78-3.05-1.6-4.79,.46-4.29-1.2-7-5.44-8.05-1.58-.39-2.73-1.36-3.45-2.83-.05-.19-.07-.39-.03-.59Z"/>
  <path class="logistics-21" d="M16.03,255.8c2.28,.82,4.51,1.81,6.84,2.4,2.94,.74,3.75,2.52,3.57,5.34-.17,2.63,.03,5.28,.07,7.93-3.29-.49-6.19-2.16-9.33-3.1-1.23-.37-1.33-1.28-1.32-2.33,.06-3.41,.1-6.83,.15-10.24Z"/>
  <g>
    <path class="logistics-27" d="M293.59,254.24c.19,.79,.86,1.22,1.32,1.81,.13,.4-.13,.7-.3,1.01-.95,1.67-2.07,3.21-3.34,4.66-.67,.77-.67,.77,.07,1.52,2.1,2.11,4.21,4.21,6.32,6.32,7.5,7.5,15,15,22.49,22.5,.37,.37,.89,.68,.79,1.35-.48,.91-1.08,1.76-1.15,2.84-.13,1.94,.54,3.52,2.21,4.58,1.78,1.13,3.55,1.04,5.31-.07,.28-.18,.5-.46,.87-.45,1.39,1.01,2.56,2.24,3.62,3.59-1.22,1.61-2.96,2.41-4.82,2.86-3.85,.94-7.18-.01-9.89-2.99-5.35-5.89-10.72-11.76-16.08-17.64-1.49-1.64-2.99-3.26-4.49-4.89-.28-.08-.49-.25-.67-.46-1.5-1.72-3.1-3.34-4.57-5.08-1.65-1.7-3.15-3.53-4.81-5.22-.21-.22-.44-.43-.46-.76-.92-1.25-1.96-2.39-3.1-3.44-.8-.74-1.78-.67-2.74-.31-2.54,.93-5.16,1.34-7.86,1.22-6.85-.3-12.79-4.52-14.89-11.17-.04-.12-.1-.22-.14-.33-.5-.59-.58-1.29-.51-2.03-.06-1.24-.27-2.47-.2-3.72,.02-.4,.05-.78,.21-1.15,.06-.44,.44-.46,.76-.56,.86-.06,1.49,.47,2.16,.86,3.45,1.97,6.89,3.96,10.32,5.97,.7,.41,1.31,.37,1.95-.06,1.85-1.25,3.12-3.03,4.35-4.85,.19-.28,.37-.56,.55-.84,.58-.26,.81,.25,1.1,.54,3.23,3.21,6.44,6.43,9.66,9.65,.86,.86,.88,.86,1.65-.07,1.43-1.74,2.75-3.55,3.65-5.63,.09-.22,.18-.46,.49-.49,.29,.26,.01,.65,.2,.93Z"/>
    <path class="logistics-26" d="M298.92,259.54c2.89-2.95,6.03-5.67,8.6-8.92,1.87-2.36,3.06-4.99,3.14-8.09,.09-3.26-1.43-5.42-4.24-6.82-2.89-1.44-6.02-1.86-9.18-2.07-1.64-.11-3.28-.06-4.92-.07-.81,0-1.56-.14-1.79-1.06-.22-.9,.31-1.38,1.06-1.77,4.09-2.13,8.34-3.81,12.93-4.51,6.8-1.03,12.77,.53,17.66,5.59,2.13,2.21,4.33,4.35,6.49,6.52-.32,.45-.76,.78-1.15,1.17-7.73,7.74-15.47,15.48-23.21,23.21-.32,.32-.59,.7-1.03,.88-.27,.02-.44-.15-.63-.3-1.17-.9-2.18-1.99-3.3-2.95-.23-.2-.55-.41-.44-.82Z"/>
    <path class="logistics-14" d="M298.92,259.54c1.32,1.48,2.86,2.72,4.35,4.02,.55,.1,.83,.57,1.2,.9,1.08,.94,2.17,1.87,3.18,2.9,.16,.74,.87,.98,1.34,1.42,2.54,2.35,5.12,4.66,7.68,6.99,4.99,4.54,9.96,9.09,14.95,13.62,2.28,2.07,3.38,4.66,3.22,7.71-.14,2.62-1.02,4.98-3.04,6.79-1.26-1.08-2.44-2.24-3.51-3.51-.22-.39,.1-.62,.27-.89,1.3-2.04,1.02-4.64-.69-6.24-1.75-1.64-4.24-1.76-6.25-.3-.24,.17-.44,.43-.79,.37-.03-.49-.44-.71-.73-1-9.64-9.65-19.3-19.3-28.94-28.95-.88-.88-.86-.86-.05-1.79,1.48-1.69,2.78-3.52,3.8-5.52,1.39,1.1,2.56,2.46,4.01,3.49Z"/>
    <path class="logistics-7" d="M307.66,267.36c-.58-.04-.83-.56-1.2-.88-1.09-.94-2.12-1.94-3.18-2.92,.22-.25,.43-.51,.66-.75,7.91-7.92,15.82-15.83,23.74-23.74,.29-.29,.51-.71,1-.73,.9,.7,1.3,1.61,1.27,2.76-.04,1.48,.1,2.98-.03,4.45-.27,3.17,2.93,5.73,6.05,4.24,.15,.49-.27,.7-.52,.96-1.51,1.54-3.05,3.06-4.57,4.58-.7,.71-.7,.72,.02,1.44,1.52,1.53,3.07,3.03,4.57,4.59,.54,.56,.88,.51,1.4-.02,2.19-2.24,4.41-4.44,6.64-6.64,.27-.27,.49-.76,1.04-.48,1,1.31,.99,2.6-.15,3.76-4.09,4.15-8.2,8.28-12.34,12.38-1.44,1.43-2.93,1.36-4.39-.07-1.32-1.3-2.63-2.61-3.93-3.94-1.14-1.17-1.29-2.46-.4-3.8,.76-1.15,1.15-2.28,.24-3.52-.9-1.23-2.18-1.33-3.52-1.08-2.61,.5-4.8,1.81-6.68,3.64-1.93,1.89-3.82,3.82-5.72,5.74Z"/>
    <path class="logistics-14" d="M293.59,254.24c-.26-.19-.07-.53-.27-.81-.9,2.24-2.29,4.14-3.74,6-1.04,1.33-1.01,1.35-2.18,.18-3.22-3.23-6.45-6.45-9.68-9.67-.25-.25-.44-.6-.87-.61,1.34-2.32,2.54-4.69,3.01-7.37,.22-1.27-.01-1.83-1.14-2.47-3.18-1.83-6.37-3.67-9.55-5.51-.24-.14-.47-.27-.69-.44-.87-.65-.83-1.7,.13-2.21,2.88-1.53,5.93-2.42,9.22-2.49,3.6-.08,6.96,.69,9.93,2.72,5.07,3.47,7.33,8.39,7.18,14.49-.05,2.17-.44,4.28-1.2,6.31-.23,.62-.08,1.27-.15,1.9Z"/>
    <path class="logistics-24" d="M286.01,269.72c1.91,1.86,3.64,3.88,5.4,5.87-.24,.4-.62,.66-.94,.99-8.38,8.39-16.77,16.78-25.16,25.16-.36,.36-.66,.8-1.09,1.09-1.12-1.12-2.23-2.23-3.35-3.35-1.54-1.55-1.56-3.04-.01-4.59,8.13-8.13,16.26-16.26,24.4-24.39,.26-.26,.51-.52,.77-.78Z"/>
    <path class="logistics-16" d="M264.21,302.83c.01-.42,.34-.63,.59-.88,8.6-8.6,17.2-17.2,25.81-25.8,.23-.23,.41-.54,.8-.55,1.71,1.88,3.41,3.76,5.12,5.64-8.11,8.11-16.21,16.21-24.32,24.32-.73,.73-1.44,1.48-2.61,1.47-.77-.01-1.44-.22-1.99-.76-1.14-1.14-2.27-2.29-3.4-3.43Z"/>
    <path class="logistics-26" d="M344.55,254.24c-.43,0-.62,.35-.87,.6-2.3,2.29-4.61,4.58-6.89,6.91-.46,.46-.73,.55-1.23,.03-1.66-1.73-3.36-3.43-5.09-5.09-.55-.53-.45-.82,.04-1.29,1.64-1.59,3.24-3.21,4.84-4.83,.23-.23,.53-.42,.62-.77,1.88-1.27,2.99-1.19,4.56,.38,1.35,1.35,2.68,2.7,4.02,4.06Z"/>
    <path class="logistics-28" d="M320.84,293.32c2.38-2.48,6.03-1.93,7.75,.34,1.33,1.74,1.4,4.37,.09,6.12-.14,.19-.36,.34-.38,.61-.7,.35-1.26,.92-2.03,1.18-2.15,.72-4.44,.02-5.83-1.83-1.23-1.64-1.22-4.13,.02-5.89,.12-.17,.25-.34,.37-.51Z"/>
  </g>
</svg>