
<svg id="visual" viewBox="0 0 500 400" width="500" height="400" xmlns="http://www.w3.org/2000/svg" xmlns:xlink="http://www.w3.org/1999/xlink" version="1.1"><g transform="translate(246.53539806209534 222.09180391527354)"><path d="M107.7 -147.8C138.6 -125.8 162 -93 173.4 -56.7C184.8 -20.3 184.2 19.7 171.4 54.7C158.6 89.6 133.7 119.7 103.1 130.6C72.5 141.4 36.2 133.2 5.9 125.1C-24.5 117 -49 109.1 -80.7 98.6C-112.4 88 -151.3 74.9 -166.5 49.1C-181.7 23.4 -173.1 -15 -159.9 -50.8C-146.7 -86.6 -128.9 -119.8 -101.5 -142.8C-74.1 -165.9 -37 -179 0.7 -179.9C38.4 -180.9 76.8 -169.7 107.7 -147.8"></path></g></svg>