<?xml version="1.0" encoding="UTF-8"?>
<svg id="Layer_1" data-name="Layer 1" xmlns="http://www.w3.org/2000/svg" viewBox="0 0 372.17 377.57">
  <defs>
    <style>
      .manpower-1 {
        fill: #fbb429;
      }

      .manpower-2 {
        fill: #0101a2;
      }

      .manpower-3 {
        fill: #21d0c3;
      }

      .manpower-4 {
        fill: #eb9;
      }

      .manpower-5 {
        fill: #fc7a51;
      }
    </style>
  </defs>
  <path class="manpower-1" d="M57.84,357.4c-17.19,0-34.37,0-51.56,0-5.41,0-6.45-.9-6.26-6.35,.28-7.93-.05-16.04,1.56-23.73,2.6-12.46,10.56-21.35,22.17-26.68,1.44-.66,3.89-.53,5.26,.27,19.08,11.1,38.16,11.16,57.2,.13,2.4-1.39,4.2-1.46,6.53-.28,14.62,7.43,22.51,19.15,22.87,35.68,.11,5.03,.05,10.06,.03,15.09s-.8,5.86-5.83,5.86c-17.33,.02-34.65,0-51.98,0Z"/>
  <path class="manpower-5" d="M314.1,357.4c-17.2,0-34.39,.01-51.59,0-5.27,0-6.14-.79-6.01-6.08,.18-7.53-.28-15.21,1.08-22.54,2.41-13.02,10.32-22.41,22.34-28.03,1.51-.71,4.11-.51,5.59,.34,19,10.93,37.94,11.02,56.83-.04,2.23-1.31,3.92-1.5,6.13-.41,15.2,7.53,22.99,19.84,23.62,36.7,.18,4.89-.04,9.79,.07,14.68,.09,3.96-1.77,5.44-5.63,5.42-17.48-.09-34.95-.04-52.43-.04Z"/>
  <path class="manpower-3" d="M186.06,137.89c-17.33,0-34.65,.01-51.98,0-5.36,0-6.64-1.09-6.46-6.31,.28-7.93-.07-16.06,1.57-23.73,2.68-12.5,10.93-21.14,22.59-26.29,1.45-.64,3.84-.42,5.27,.37,19.05,10.57,38,10.61,57.09,.09,1.53-.84,4.13-1.1,5.65-.39,15.34,7.21,23.17,19.55,23.92,36.39,.21,4.74,.08,9.5,.03,14.25-.05,4.72-.91,5.6-5.7,5.6-17.33,.03-34.65,.01-51.98,.01Z"/>
  <path class="manpower-2" d="M211.48,181.73c9.62,5.26,16.43,12.38,21.24,21.46,1.3,2.46,2.5,5.04,3.27,7.69,1.26,4.36,2.12,8.37,7.17,10.65,4.09,1.85,5.96,10.35,3.59,14.34-.99,1.66-4.03,2.92-6.15,2.95-15.94,.24-31.88,.13-47.82,.13-19.58,0-39.15,0-58.73,0-9.19,0-12.8-6.33-8.19-14.49,.67-1.19,1.59-2.75,2.71-3.08,5.23-1.53,5.7-6.03,7.09-10.17,4.26-12.69,12.24-22.37,24.48-29.49,.84,6.09,1.58,11.69,2.39,17.28,.62,4.26,3.22,6.49,7.07,5.95,3.81-.53,5.16-3.17,4.8-6.63-.77-7.36-1.82-14.7-2.62-22.06-.63-5.82,.14-6.6,5.98-6.61,5.73-.01,11.47-.03,17.2,0,4.91,.03,5.79,1.01,5.2,5.69-.91,7.21-1.86,14.41-2.82,21.61-.6,4.53,1.12,7.52,4.63,7.99,3.96,.53,6.65-1.64,7.32-6.21,.79-5.39,1.4-10.8,2.19-17.02Z"/>
  <path class="manpower-4" d="M186.01,69.87c-19.31-.03-35.02-15.73-34.97-34.94C151.1,15.72,166.9-.02,186.11,0c19.21,.02,35,15.84,34.96,35.02-.04,19.28-15.73,34.88-35.06,34.85Z"/>
  <path class="manpower-4" d="M348.95,254.53c-.06,19.29-15.8,34.97-35.04,34.88-19.26-.09-34.8-15.8-34.76-35.15,.04-19.31,15.76-34.94,35.03-34.82,19.38,.12,34.82,15.71,34.77,35.09Z"/>
  <path class="manpower-4" d="M23.17,254.33c.01-19.32,15.68-34.96,34.96-34.9,19.35,.06,34.88,15.66,34.84,35.02-.04,19.31-15.72,34.99-34.96,34.95-19.25-.04-34.85-15.74-34.84-35.08Z"/>
  <path class="manpower-2" d="M129.17,252.93h36.68c-.58,7.92,1.41,14.78,7.8,19.77,4.02,3.14,8.58,4.53,13.69,4.27,11.46-.58,17.73-8.42,19.14-24.23h36.75c0,3.14-.06,6.17,.02,9.2,.07,3.03-1.3,4.76-4.3,5.13-4.02,.5-8.12,.66-12.04,1.6-1.62,.39-3.42,2.16-4.1,3.75-.6,1.39-.29,3.78,.58,5.06,2.03,2.99,4.68,5.55,7.02,8.32,2.92,3.45,2.87,5.54-.2,8.7-2.24,2.31-4.56,4.53-6.81,6.83-2.46,2.51-4.93,2.83-7.7,.39-2.51-2.22-5.18-4.27-7.76-6.41-1.61-1.34-2.93-2.62-5.49-1.4-2.61,1.25-4.43,2.45-4.53,5.66-.11,3.48-.7,6.95-.99,10.43-.27,3.2-1.88,4.81-5.14,4.78-3.64-.04-7.27-.07-10.91,.01-3.31,.07-4.88-1.61-5.16-4.75-.34-3.76-.92-7.52-.93-11.28,0-3.17-2.03-4.18-4.34-4.59-1.47-.26-3.42,.13-4.65,.96-2.88,1.95-5.45,4.36-8.18,6.55-2.71,2.18-5.29,2.17-7.8-.42-2.43-2.51-4.95-4.94-7.41-7.42-2.23-2.24-2.44-4.56-.35-7.05,2.16-2.57,4.23-5.21,6.38-7.79,1.41-1.71,2.86-3.06,1.67-5.85-1.27-2.98-2.92-4.4-6.12-4.52-3.35-.13-6.67-.68-10.01-.95-2.99-.24-4.67-1.78-4.77-4.77-.11-3.18-.02-6.37-.02-9.96Z"/>
  <path class="manpower-3" d="M131.81,366.91c5.5-7.76,3.7-16.22,4.21-24.86,33.66,15.38,66.9,14.78,100.7-.14,.88,8.48-1.3,17.17,4.31,24.95-36.48,14.1-72.38,14.46-109.22,.05Z"/>
  <path class="manpower-5" d="M108.09,116.81c0,5.14-.25,9.3,.07,13.42,.34,4.41,1.27,8.77,1.8,13.17,.13,1.06,.14,2.66-.5,3.22-16.93,14.96-28.89,33.16-35.62,54.27-8.58-.52-16.84-1.01-25.48-1.53,9.69-34.21,29.31-61.52,59.72-82.55Z"/>
  <path class="manpower-1" d="M264.06,117.16c29.89,20.56,49.44,47.86,58.93,82.23-8.37,.5-16.36,.98-25.05,1.5-6.59-21.54-19.18-40.09-35.72-54.22,.64-10.25,1.22-19.47,1.84-29.51Z"/>
</svg>