<?xml version="1.0" encoding="UTF-8"?>
<svg id="Layer_1" data-name="Layer 1" xmlns="http://www.w3.org/2000/svg" xmlns:xlink="http://www.w3.org/1999/xlink" viewBox="0 0 634.8 772.05">
  <defs>
    <style>
      .mobile-1 {
        fill: url(#linear-gradient-2);
      }

      .mobile-2, .mobile-3 {
        fill: #fff;
      }

      .mobile-4 {
        fill: #fbb429;
      }

      .mobile-5 {
        opacity: .57;
      }

      .mobile-5, .mobile-6 {
        fill: #3e479b;
      }

      .mobile-7, .mobile-8 {
        opacity: .36;
      }

      .mobile-7, .mobile-9 {
        fill: #599af2;
      }

      .mobile-10 {
        fill: #00aeef;
      }

      .mobile-8 {
        fill: #f47e2f;
      }

      .mobile-11 {
        fill: #21d0c3;
      }

      .mobile-12 {
        fill: url(#radial-gradient);
      }

      .mobile-3 {
        opacity: .43;
      }

      .mobile-13 {
        opacity: .26;
      }

      .mobile-14 {
        fill: url(#radial-gradient-2);
      }

      .mobile-15 {
        fill: #ce7c89;
      }

      .mobile-16 {
        fill: none;
      }

      .mobile-17 {
        fill: #2be0c6;
      }

      .mobile-18 {
        fill: url(#linear-gradient-3);
      }

      .mobile-19 {
        fill: url(#linear-gradient);
      }

      .mobile-20 {
        fill: #6fead8;
      }
    </style>
    <radialGradient id="radial-gradient" cx="472.87" cy="-18.5" fx="472.87" fy="-18.5" r="645.51" gradientUnits="userSpaceOnUse">
      <stop offset="0" stop-color="#97ecff"/>
      <stop offset=".91" stop-color="#598bc7"/>
    </radialGradient>
    <radialGradient id="radial-gradient-2" cx="38.81" cy="185.39" fx="38.81" fy="185.39" r="258.18" xlink:href="#radial-gradient"/>
    <linearGradient id="linear-gradient" x1="422.33" y1="563.34" x2="546.44" y2="563.34" gradientTransform="translate(44.34 -38.56) rotate(4.13)" gradientUnits="userSpaceOnUse">
      <stop offset="0" stop-color="#97ecff"/>
      <stop offset=".91" stop-color="#598bc7"/>
    </linearGradient>
    <linearGradient id="linear-gradient-2" x1="257.63" y1="609.78" x2="381.92" y2="609.78" xlink:href="#linear-gradient"/>
    <linearGradient id="linear-gradient-3" x1="371" y1="586.3" x2="432.87" y2="586.3" xlink:href="#linear-gradient"/>
  </defs>
  <path class="mobile-12" d="M627.92,203.19l-19.17-11.06c-1.14-.66-1.76-1.91-1.63-3.22,.34-3.37,.54-6.77,.54-10.22,0-6.53-.59-12.91-1.71-19.11-.25-1.39,.37-2.76,1.59-3.46l16.12-9.31c6.58-3.81,8.83-12.22,5.04-18.8l-22.06-38.2c-3.8-6.58-12.22-8.84-18.8-5.04l-17.57,10.14c-1.18,.68-2.62,.56-3.69-.27-8.28-6.45-17.57-11.65-27.55-15.45-1.29-.49-2.15-1.7-2.15-3.08v-15.83c0-7.6-6.16-13.76-13.77-13.76h-44.11c-7.6,0-13.76,6.16-13.76,13.76v15.83c0,1.38-.87,2.59-2.16,3.09-11.36,4.33-21.78,10.54-30.89,18.28-1.07,.91-2.58,1.07-3.81,.37l-9.84-5.68c-6.58-3.8-15-1.55-18.8,5.04l-22.05,38.2c-3.8,6.58-1.54,15,5.03,18.8l11.24,6.49c1.19,.68,1.82,2.01,1.63,3.37-.69,4.79-1.12,9.66-1.12,14.64,0,8.02,.98,15.8,2.68,23.31,.32,1.43-.29,2.89-1.56,3.62l-8.59,4.96c-6.58,3.8-8.84,12.21-5.04,18.79l22.06,38.21c3.8,6.58,12.22,8.84,18.8,5.04l12.85-7.41c1.13-.66,2.52-.57,3.57,.19,9.65,6.88,20.46,12.19,32.12,15.57,1.43,.41,2.42,1.7,2.42,3.18v12.98c0,7.6,6.17,13.76,13.77,13.76h44.11c7.6,0,13.76-6.16,13.76-13.76v-19.49c0-1.27,.74-2.42,1.89-2.97,9.52-4.59,18.26-10.53,25.94-17.6,1.07-1,2.64-1.18,3.91-.46l14.96,8.64c6.59,3.8,15,1.55,18.8-5.04l22.06-38.2c3.8-6.58,1.55-15-5.03-18.8Zm-122.6,27.73c-28.85,0-52.24-23.39-52.24-52.23s23.39-52.24,52.24-52.24,52.22,23.39,52.22,52.24-23.38,52.23-52.22,52.23Z"/>
  <path class="mobile-17" d="M477.38,47.06c0-13.96-6.26-27.11-17.15-36.09-8.58-7.07-19.46-10.96-30.66-10.96L108.89,.14c-12.73,0-24.7,4.88-33.71,13.73-9.07,8.9-14.06,20.75-14.05,33.36l.3,677.76c0,19.52,12.51,37.23,31.11,44.06,5.41,1.99,11.02,3,16.67,3h.02l320.68-.14c9.65,0,18.97-2.84,26.94-8.21,13.05-8.8,20.84-23.34,20.83-38.88l-.3-677.76ZM109.21,761.73h0Z"/>
  <polygon class="mobile-16" points="65.97 90.44 68.7 99.74 68.69 87.34 65.97 90.44"/>
  <polygon class="mobile-16" points="68.96 698.46 68.95 686.06 66.24 695.36 68.96 698.46"/>
  <path class="mobile-20" d="M71.45,47.23l.02,51.64v12s.07,143.36,.07,143.36l.12,280.52,.07,143.36v11.99s.02,34.88,.02,34.88c0,15.76,10.14,29.15,24.34,34.37,4.09,1.5,8.5,2.36,13.13,2.36h26.7s293.98-.14,293.98-.14c7.86,0,15.14-2.39,21.17-6.45,9.83-6.63,16.29-17.73,16.28-30.32l-.3-677.76c0-11.3-5.21-21.39-13.39-28.13-6.52-5.37-14.91-8.61-24.09-8.61l-320.68,.14c-20.69,0-37.45,16.47-37.44,36.76Z"/>
  <g>
    <path class="mobile-2" d="M448.89,102.56l.25,563.01c0,5.03-4.07,9.11-9.1,9.11l-341.01,.15c-5.03,0-9.11-4.07-9.11-9.1l-.25-563.01c0-5.03,4.07-9.11,9.1-9.11l341.01-.15c5.03,0,9.11,4.08,9.11,9.1Z"/>
    <g>
      <path class="mobile-9" d="M448.89,102.33l.02,36.5-359.22,.16-.02-36.95c0-4.82,3.9-8.72,8.71-8.72l341.34-.15c5.06,0,9.17,4.1,9.17,9.16Z"/>
      <g>
        <path class="mobile-2" d="M404.54,110.9c-.73,0-1.33-.59-1.33-1.33s.59-1.33,1.33-1.33h26.95c.73,0,1.33,.58,1.33,1.32s-.59,1.33-1.33,1.33h-26.95Z"/>
        <path class="mobile-2" d="M404.54,117.79c-.73,0-1.32-.59-1.32-1.33s.59-1.33,1.32-1.33h26.95c.73-.01,1.33,.58,1.33,1.31s-.59,1.33-1.33,1.33h-26.95Z"/>
        <path class="mobile-2" d="M404.55,124.67c-.73,0-1.32-.59-1.32-1.33s.59-1.33,1.32-1.33h26.95c.73-.01,1.33,.58,1.33,1.31s-.59,1.33-1.33,1.33h-26.95Z"/>
      </g>
      <path class="mobile-2" d="M121.78,129.06c-.34,0-.68-.13-.94-.39l-9.79-9.78c-.84-.84-.84-2.22,0-3.06l9.41-9.41c.52-.52,1.36-.52,1.87,0,.52,.51,.52,1.36,0,1.87l-9.06,9.07,9.45,9.44c.52,.52,.52,1.36,0,1.87-.26,.26-.6,.39-.94,.39Z"/>
    </g>
  </g>
  <path class="mobile-11" d="M255.61,739.1c-5.21,0-9.45-4.24-9.45-9.44v-27.9c-.01-5.21,4.22-9.45,9.43-9.46h27.91c5.21-.01,9.45,4.23,9.45,9.43l.02,27.91c0,5.21-4.23,9.45-9.44,9.45h-27.91Zm27.89-42.79h-27.91c-3,.01-5.43,2.45-5.43,5.45v27.9c.01,3,2.45,5.43,5.45,5.43h27.91c2.99-.02,5.43-2.45,5.43-5.45l-.02-27.91c0-2.99-2.44-5.43-5.43-5.43Z"/>
  <g>
    <path class="mobile-11" d="M149.32,707.38c-.73,0-1.33-.59-1.33-1.33s.59-1.33,1.33-1.33h17.74c.73,0,1.33,.59,1.33,1.32s-.59,1.33-1.33,1.33h-17.74Z"/>
    <path class="mobile-11" d="M149.33,716.96c-.73,0-1.33-.59-1.33-1.33s.59-1.33,1.33-1.33h17.74c.73,0,1.33,.58,1.33,1.32s-.6,1.33-1.33,1.33h-17.74Z"/>
    <path class="mobile-11" d="M149.33,726.66c-.73,0-1.33-.59-1.33-1.33s.59-1.33,1.33-1.33h17.74c.73,0,1.33,.58,1.33,1.32s-.59,1.33-1.33,1.33h-17.74Z"/>
  </g>
  <path class="mobile-11" d="M394.29,729.84c-.34,0-.68-.13-.94-.39l-13.95-13.94,13.59-13.59c.52-.52,1.36-.52,1.87,0,.52,.52,.52,1.36,0,1.87l-11.71,11.72,12.08,12.07c.52,.52,.52,1.36,0,1.87-.26,.26-.6,.39-.94,.39Z"/>
  <g>
    <rect class="mobile-7" x="90.25" y="139.48" width="358.68" height="117.47"/>
    <rect class="mobile-2" x="163.86" y="157.46" width="216.35" height="21.23" rx="2.29" ry="2.29"/>
    <path class="mobile-2" d="M269.28,209.41c0,1.09-.88,1.97-1.97,1.97H118.74c-1.09,0-1.97-.88-1.97-1.97h0c0-1.09,.88-1.97,1.97-1.97h148.58c1.09,0,1.97,.88,1.97,1.97h0Z"/>
    <path class="mobile-2" d="M214.99,227.77c0,1.09-.57,1.97-1.27,1.97H118.04c-.7,0-1.27-.88-1.27-1.97h0c0-1.09,.57-1.97,1.27-1.97h95.69c.7,0,1.27,.88,1.27,1.97h0Z"/>
    <path class="mobile-2" d="M432.82,209.41c0,1.09-.88,1.97-1.97,1.97h-148.57c-1.09,0-1.97-.88-1.97-1.97h0c0-1.09,.88-1.97,1.97-1.97h148.57c1.09,0,1.97,.88,1.97,1.97h0Z"/>
    <path class="mobile-2" d="M378.52,227.77c0,1.09-.57,1.97-1.27,1.97h-95.69c-.7,0-1.27-.88-1.27-1.97h0c0-1.09,.57-1.97,1.27-1.97h95.69c.7,0,1.27,.88,1.27,1.97h0Z"/>
  </g>
  <path class="mobile-4" d="M193.44,383.05l-59.33,.03c-6.67,0-12.08-5.4-12.08-12.07l-.03-59.34c0-6.67,5.4-12.08,12.07-12.08l59.33-.03c6.67,0,12.08,5.4,12.08,12.07l.03,59.34c0,6.67-5.4,12.08-12.07,12.08Z"/>
  <path class="mobile-8" d="M181.77,341.72c0,9.95-8.06,18.02-18.01,18.03-9.95,0-18.02-8.06-18.02-18.01,0-9.95,8.06-18.02,18.01-18.02,9.95,0,18.02,8.06,18.03,18.01Z"/>
  <g class="mobile-13">
    <path class="mobile-6" d="M421.46,327.51l-198.41,.02c-1.67,0-3.02-1.35-3.02-3.02v-8.94c0-1.67,1.35-3.02,3.01-3.02l198.41-.02c1.67,0,3.02,1.35,3.02,3.02v8.94c0,1.67-1.34,3.02-3.01,3.02Z"/>
    <path class="mobile-6" d="M220.05,350.55c-1.46,0-2.65-1.19-2.65-2.65,0-1.46,1.19-2.65,2.65-2.65l90.43-.04h0c1.46,0,2.65,1.19,2.65,2.65s-1.19,2.65-2.65,2.65l-90.43,.04h0Z"/>
    <path class="mobile-6" d="M220.05,369.47c-1.46,0-2.65-1.19-2.65-2.65s1.19-2.65,2.65-2.65l147.45-.07h0c1.46,0,2.65,1.19,2.65,2.65s-1.19,2.65-2.65,2.65l-147.45,.07h0Z"/>
    <path class="mobile-6" d="M330.63,350.5c-1.46,0-2.65-1.19-2.65-2.65s1.19-2.65,2.65-2.65l90.43-.04h0c1.46,0,2.65,1.19,2.65,2.65s-1.19,2.65-2.65,2.65l-90.43,.04h0Z"/>
  </g>
  <g>
    <g>
      <path class="mobile-10" d="M193.55,625.95l-59.34,.03c-6.67,0-12.08-5.4-12.08-12.07l-.03-59.34c0-6.67,5.4-12.08,12.07-12.08l59.34-.03c6.67,0,12.08,5.4,12.08,12.07l.03,59.34c0,6.67-5.4,12.08-12.07,12.08Z"/>
      <path class="mobile-5" d="M181.88,584.62c0,9.95-8.06,18.02-18.01,18.03-9.95,0-18.02-8.06-18.02-18.01,0-9.95,8.06-18.02,18.01-18.03,9.95,0,18.02,8.06,18.03,18.01Z"/>
    </g>
    <g class="mobile-13">
      <path class="mobile-6" d="M422.31,570.42l-199.15,.02c-1.66,0-3.02-1.35-3.02-3.02v-8.94c0-1.67,1.35-3.02,3.01-3.02l199.15-.02c1.67,0,3.02,1.35,3.02,3.02v8.94c0,1.67-1.35,3.02-3.01,3.02Z"/>
      <path class="mobile-6" d="M220.15,593.45c-1.46,0-2.65-1.19-2.65-2.65s1.19-2.65,2.65-2.65l90.43-.04h0c1.46,0,2.65,1.19,2.65,2.65s-1.19,2.65-2.65,2.65l-90.43,.04h0Z"/>
      <path class="mobile-6" d="M220.16,612.37c-1.47,0-2.65-1.19-2.65-2.65s1.19-2.65,2.65-2.65l147.45-.06h0c1.46,0,2.65,1.19,2.65,2.65s-1.19,2.65-2.65,2.65l-147.45,.07h0Z"/>
      <path class="mobile-6" d="M330.74,593.4c-1.46,0-2.65-1.19-2.65-2.65s1.19-2.65,2.65-2.65l90.43-.04h0c1.46,0,2.65,1.19,2.65,2.65s-1.19,2.65-2.65,2.65l-90.43,.04h0Z"/>
    </g>
  </g>
  <g>
    <g>
      <path class="mobile-15" d="M193.49,504.22l-59.34,.03c-6.67,0-12.08-5.4-12.08-12.07l-.03-59.34c0-6.67,5.4-12.08,12.07-12.08l59.34-.03c6.67,0,12.08,5.4,12.08,12.07l.03,59.34c0,6.67-5.4,12.08-12.07,12.08Z"/>
      <path class="mobile-3" d="M181.83,462.89c0,9.95-8.06,18.02-18.01,18.03-9.95,0-18.02-8.06-18.03-18.01,0-9.95,8.06-18.02,18.01-18.03,9.95,0,18.02,8.06,18.03,18.01Z"/>
    </g>
    <g class="mobile-13">
      <path class="mobile-6" d="M422.2,448.68l-199.09,.02c-1.67,0-3.02-1.35-3.02-3.02v-8.94c0-1.67,1.35-3.02,3.01-3.02l199.09-.02c1.67,0,3.02,1.35,3.02,3.02v8.94c0,1.67-1.35,3.02-3.02,3.02Z"/>
      <path class="mobile-6" d="M220.1,471.72c-1.47,0-2.65-1.19-2.65-2.65s1.19-2.65,2.65-2.65l41.82-.02h0c1.47,0,2.65,1.19,2.65,2.65s-1.19,2.65-2.65,2.65l-41.82,.02h0Z"/>
      <path class="mobile-6" d="M220.11,490.64c-1.46,0-2.65-1.19-2.65-2.65,0-1.46,1.19-2.65,2.65-2.65l85.82-.04h0c1.46,0,2.65,1.19,2.65,2.65,0,1.46-1.19,2.65-2.65,2.65l-85.82,.04h0Z"/>
      <path class="mobile-6" d="M279.42,471.69c-1.47,0-2.65-1.19-2.65-2.65s1.19-2.65,2.65-2.65l83.52-.04h0c1.46,0,2.65,1.19,2.65,2.65s-1.19,2.65-2.65,2.65l-83.52,.04h0Z"/>
      <path class="mobile-6" d="M378.49,471.65c-1.46,0-2.65-1.18-2.65-2.65s1.19-2.65,2.65-2.65l41.83-.02h0c1.46,0,2.65,1.19,2.65,2.65s-1.19,2.65-2.65,2.65l-41.83,.02h0Z"/>
    </g>
  </g>
  <path class="mobile-11" d="M326.64,63.18c0,2.53-2.05,4.59-4.59,4.59h-104.57c-2.53,0-4.59-2.05-4.59-4.59h0c0-2.53,2.05-4.59,4.59-4.59h104.57c2.54,0,4.59,2.05,4.59,4.59h0Z"/>
  <path class="mobile-11" d="M202.94,63.18c0,2.53-2.06,4.59-4.59,4.59s-4.59-2.05-4.59-4.59,2.06-4.59,4.59-4.59,4.59,2.05,4.59,4.59Z"/>
  <path class="mobile-14" d="M100.82,274.05l-7.67-4.43c-.45-.26-.71-.77-.65-1.29,.13-1.35,.22-2.71,.22-4.09,0-2.61-.24-5.17-.68-7.64-.1-.56,.15-1.1,.64-1.39l6.45-3.72c2.63-1.52,3.53-4.89,2.01-7.52l-8.82-15.28c-1.52-2.63-4.89-3.54-7.52-2.02l-7.03,4.06c-.47,.27-1.05,.22-1.48-.11-3.31-2.58-7.03-4.66-11.02-6.18-.52-.2-.86-.68-.86-1.23v-6.33c0-3.04-2.46-5.5-5.51-5.5h-17.64c-3.04,0-5.5,2.46-5.5,5.5v6.33c0,.55-.35,1.04-.86,1.24-4.54,1.73-8.71,4.22-12.36,7.31-.43,.37-1.03,.43-1.52,.15l-3.94-2.27c-2.63-1.52-6-.62-7.52,2.01L.74,246.93c-1.52,2.63-.62,6,2.01,7.52l4.49,2.59c.48,.27,.73,.81,.65,1.35-.27,1.91-.45,3.86-.45,5.86,0,3.21,.39,6.32,1.07,9.32,.13,.57-.12,1.15-.63,1.45l-3.43,1.98c-2.63,1.52-3.54,4.88-2.02,7.52l8.82,15.28c1.52,2.63,4.89,3.53,7.52,2.01l5.14-2.96c.45-.26,1.01-.23,1.43,.07,3.86,2.75,8.18,4.88,12.85,6.23,.57,.17,.97,.68,.97,1.27v5.19c0,3.04,2.47,5.5,5.51,5.5h17.64c3.04,0,5.5-2.46,5.5-5.5v-7.8c0-.51,.3-.97,.75-1.19,3.81-1.84,7.3-4.21,10.38-7.04,.43-.4,1.05-.47,1.56-.18l5.98,3.46c2.63,1.52,6,.62,7.52-2.01l8.82-15.28c1.52-2.63,.62-6-2.01-7.52Zm-49.03,11.09c-11.54,0-20.89-9.35-20.89-20.89s9.35-20.89,20.89-20.89,20.89,9.36,20.89,20.89-9.35,20.89-20.89,20.89Z"/>
  <g>
    <path class="mobile-19" d="M550.66,535.76c.19,6.21-2.51,11.43-5.42,16.68-14.17,25.57-28.18,51.23-42.3,76.83-5.67,10.29-17.15,13.7-26.67,8.06-9.02-5.35-11.98-16.15-6.87-25.68,4.65-8.68,9.47-17.26,14.21-25.89,7.34-13.32,14.68-26.64,22.12-40.16-1.04-.62-1.93-1.19-2.84-1.69-20.99-11.56-42.01-23.07-62.98-34.68-11.19-6.19-13.78-19.69-5.74-29.2,5.89-6.97,15.54-8.61,24.08-3.93,18.4,10.07,36.77,20.21,55.16,30.33,7.58,4.17,15.1,8.46,22.76,12.47,5.2,2.72,9.89,5.86,12.82,11.13,.55,1.91,1.11,3.82,1.66,5.73Z"/>
    <path class="mobile-1" d="M300.54,605.34c1.06,.62,1.98,1.17,2.91,1.69,21.08,11.6,42.19,23.13,63.22,34.82,11.57,6.43,13.67,21.25,4.47,30.36-5.97,5.92-15.02,7.09-22.86,2.83-10.31-5.6-20.56-11.3-30.84-16.95-16.81-9.25-33.62-18.5-50.43-27.75-11.38-6.26-14.45-16.81-8.18-28.21,14.75-26.84,29.5-53.67,44.28-80.48,4.41-8,11.46-11.89,19.5-10.91,13.05,1.6,20.58,15.48,14.8,27.31-.48,.98-1.02,1.93-1.55,2.89-11.26,20.47-22.52,40.94-33.78,61.41-.52,.94-.99,1.91-1.55,3Z"/>
    <path class="mobile-18" d="M391.55,645.24c-.61-5.43-1.44-12.53-2.21-19.62-3.76-34.73-7.49-69.47-11.24-104.2-.38-3.55-.82-7.1-1.16-10.66-.99-10.15,6.18-19.56,15.86-20.87,10.72-1.45,20.29,5.05,21.76,15.59,1.89,13.56,3.13,27.21,4.62,40.82,3.29,30.19,6.52,60.39,9.87,90.57,1.15,10.35-2.39,17.97-10.55,21.9-10.61,5.1-23.17-.54-26.93-13.53Z"/>
  </g>
</svg>