<?xml version="1.0" encoding="UTF-8"?>
<svg id="Capa_1" data-name="Capa 1" xmlns="http://www.w3.org/2000/svg" viewBox="0 0 59 60">
  <defs>
    <style>
      .project-1 {
        fill: #fb8a05;
      }

      .project-2 {
        fill: #fbb429;
      }

      .project-3 {
        fill: #0101a2;
      }

      .project-4 {
        fill: #00bac3;
      }

      .project-5 {
        fill: #004fff;
      }

      .project-6 {
        fill: #21d0c3;
      }

      .project-7 {
        fill: #eb9;
      }

      .project-8 {
        fill: #fc7a51;
      }
    </style>
  </defs>
  <rect class="project-7" x="6" y="3" width="12" height="13" rx="5" ry="5"/>
  <rect class="project-7" x="8" y="5" width="8" height="9" rx="3" ry="3"/>
  <rect class="project-5" x="29" width="24" height="14" rx="1" ry="1"/>
  <rect class="project-5" x="31" y="2" width="20" height="10"/>
  <path class="project-6" d="M38,37h-14c-.6,0-1,.4-1,1v8c0,.6,.4,1,1,1h6v3h-6c-.6,0-1,.4-1,1v8c0,.6,.4,1,1,1h14c.6,0,1-.4,1-1v-8c0-.6-.4-1-1-1h-6v-3h6c.6,0,1-.4,1-1v-8c0-.6-.4-1-1-1Z"/>
  <rect class="project-6" x="25" y="52" width="12" height="6"/>
  <rect class="project-6" x="25" y="39" width="12" height="6"/>
  <path class="project-3" d="M53,35v-3c0-.6-.4-1-1-1h-10v-15h-2v15h-9c-.6,0-1,.4-1,1v3h2v-2h19v2h2Z"/>
  <rect class="project-3" x="33" y="4" width="12" height="2"/>
  <rect class="project-3" x="33" y="8" width="16" height="2"/>
  <path class="project-8" d="M18,39.1H5v19.9c0,.6,.4,1,1,1h5.66v-14.47h.88v14.47h5.46c.6,0,1-.4,1-1v-19.9h-1Z"/>
  <path class="project-6" d="M33.21,17H14.46l-.76,2h0l-1.6,4.2-.38-1h0s-1.99-5.2-1.99-5.2h-2.73c-3.9,0-7,3.1-7,7v13.19c0,.45,.36,.81,.81,.81H3.74c.45,0,.81-.36,.81-.81v-11.06h.45v12.55h14v-13.07c.34-.85,.79-1.58,1.36-2.18,.81-.84,1.88-1.46,3.21-1.88h9.64c.45,0,.81-.36,.81-.81v-2.94c0-.45-.36-.81-.81-.81Zm-14.21,4.56h0s0,0,0,0c0,0,0,0,0,0Z"/>
  <rect class="project-4" x="11" y="27" width="2" height="2"/>
  <rect class="project-4" x="11" y="32" width="2" height="2"/>
  <rect class="project-4" x="25.5" y="39.75" width="8.32" height="1.5"/>
  <rect class="project-4" x="25.5" y="42.75" width="11" height="1.5"/>
  <rect class="project-4" x="25.5" y="52.75" width="8.32" height="1.5"/>
  <rect class="project-4" x="25.5" y="55.75" width="11" height="1.5"/>
  <path class="project-2" d="M58,37h-14c-.6,0-1,.4-1,1v8c0,.6,.4,1,1,1h6v3h-6c-.6,0-1,.4-1,1v8c0,.6,.4,1,1,1h14c.6,0,1-.4,1-1v-8c0-.6-.4-1-1-1h-6v-3h6c.6,0,1-.4,1-1v-8c0-.6-.4-1-1-1Z"/>
  <rect class="project-2" x="45" y="52" width="12" height="6"/>
  <rect class="project-2" x="45" y="39" width="12" height="6"/>
  <rect class="project-1" x="45.5" y="39.75" width="8.62" height="1.5"/>
  <rect class="project-1" x="45.5" y="42.75" width="11" height="1.5"/>
  <rect class="project-1" x="45.5" y="52.75" width="8.88" height="1.5"/>
  <rect class="project-1" x="45.5" y="55.75" width="11" height="1.5"/>
</svg>