<?xml version="1.0" encoding="UTF-8"?>
<svg id="Layer_1" data-name="Layer 1" xmlns="http://www.w3.org/2000/svg" viewBox="0 0 310.85 286.2">
  <defs>
    <style>
      .cls-1 {
        fill: #0101a2;
      }

      .cls-2 {
        fill: #21d0c3;
      }

      .cls-3 {
        fill: #eb9;
      }

      .cls-4 {
        fill: #fc7a51;
      }
    </style>
  </defs>
  <path class="cls-1" d="M232.26,73.24v7.78c-.08,.33-.21,.66-.24,1-.44,5.47-1.32,10.86-2.91,16.11-5.07,16.76-14.73,30.31-28.87,40.59-9.14,6.64-19.32,11-30.46,13.01-3.27,.59-6.59,.91-9.88,1.36h-8.67c-1.08-.12-2.16-.25-3.24-.37-16.1-1.8-30.52-7.71-42.53-18.6-21.55-19.55-29.9-43.89-24.7-72.55,3.01-16.56,11.24-30.46,23.67-41.74C117.43,8.02,132.79,1.47,150.36,.21c14.47-1.04,28.13,1.85,40.95,8.59,13.94,7.34,24.53,18.11,31.99,31.92,4.22,7.81,6.95,16.16,8.11,24.99,.33,2.5,.56,5.02,.84,7.53Zm-30-49.14C176.11,.82,138.72,1.62,114.83,19.67c3.14-.03,5.9,.69,8.72,2.76h3.83c-.8-2.56-3.09-.81-4.2-1.6,.08-.58,.33-1.15,.15-1.52-.13-.28-.81-.37-1.25-.42-.69-.07-1.38-.02-2.07-.02,.98-1.09,1.97-1.85,2.98-2.57,1.55-1.09,4.54-.6,5.64,.9,1.22,1.67,3.43,1.88,4.92,.35,.75-.76,1.36-.88,2.07-.11-1.27,2.13-3.17,2.99-5.72,2.53,.14,.95,.25,1.67,.36,2.41,.99,0,1.84,.03,2.68-.01,.52-.03,1.4-.02,1.5-.27,.42-1.07,1.27-1.01,2.09-1.01,1.27,0,1.81-.52,1.54-1.84-.47-.12-.94-.25-1.39-.36,.04-1.12,.54-1.81,1.59-1.85,1.47-.06,2.95-.02,4.62-.02-.71,1.54-3.01,1.94-1.99,3.74,.36,.63,1.6,.76,2.73,1.23-.06-1.17-.16-1.91-.12-2.63,.02-.39,.18-.98,.46-1.1,1.06-.5,2.18-.88,3.3-1.26,2.84-.98,5.18,.53,7.68,1.48,1.63,.62,2.65,1.4,2.28,3.29-.01,.07,.08,.17,.13,.25,.59,.2,1.18,.39,1.77,.59-.73,1.89-.74,1.96-2.54,1.88-1.04-.05-1.58,.29-1.8,1.29-.07,.33-.27,.62-.45,1.02-2.14-.51-4.22-1-6.69-1.59,1.95-1.06,3.54-1.93,5.37-2.93-.97-.65-1.69-1.53-2.43-1.54-1.5-.02-3.09,.23-4.5,.76-1.28,.49-2.35,1.5-3.68,2.39,.09,.15,.37,.61,.58,.95-1.07,.59-2.1,1.17-3.26,1.82-.25-.96-.41-1.57-.69-2.63-2.65,1.41-5.14,2.7-7.6,4.06-1.75,.96-1.8,2.98,.02,3.94,1.31,.69,2.87,.93,4.44,1.41,0,.5,0,1.09,0,1.68,0,.63,0,1.25,0,1.88,.17,.1,.34,.21,.51,.31,.54-.5,1.13-.96,1.59-1.52,.58-.69,.99-2.03,1.6-2.11,2.97-.39,3.51-2.16,3.13-4.67-.03-.19-.09-.49,.01-.58,.78-.72,1.58-1.94,2.41-1.97,1.51-.04,3.04,.63,4.6,1.01-.1,1.11-.18,2.03-.3,3.43,1.84-.72,3.38-1.32,5.08-1.97,0,.84,.06,1.49-.01,2.13-.14,1.36,.34,2.31,1.64,2.79,1.13,.42,1.09,1.3,1.1,2.3,.01,1.11-.83,1.05-1.45,1.36-.37,.19-.7,.45-1.04,.68,.33,.31,.64,.66,1,.93,.23,.18,.53,.29,.81,.37,1.16,.36,1.6,1.05,1.01,2.45-1.07-.3-2.15-.59-3.21-.92-1.75-.54-1.8-.79-.73-2.24,.23-.31,.1-.88,.13-1.32-.39,.1-.9,.09-1.16,.34-.94,.9-2.82,.79-3.76,.04-.58-.47-1.57-.49-2.39-.54-.19-.01-.59,.66-.58,1.01,0,.31,.4,.69,.73,.87,.4,.23,.9,.28,1.54,.46-.44,.5-.78,.88-1.16,1.31-.98-1.07-1.79-.93-2.68,.02-1.12,1.19-2.2,2.59-3.6,3.31-2.71,1.39-4.61,3.6-6.64,5.7-.23,.23-.46,.6-.45,.9,.05,1.24-.68,1.87-1.64,2.43-.86,.49-1.68,1.07-2.5,1.64-1.71,1.19-3.01,2.58-2.47,4.92,.11,.5,.02,1.04,.02,1.77-.98-.47-2.01-.67-2.5-1.29-.47-.6-.37-1.64-.53-2.56-2.59,0-5.18-.32-7.64,.11-1.74,.31-3.61,1.33-4.87,2.58-1.11,1.11-1.48,2.98-2.15,4.52-.65,1.48,.08,2.95,1.05,3.57,1.08,.69,2.71,.99,4.09,.04,1.42-.98,2.88-1.92,4.34-2.9,1.38,1.94-.6,3.16-.84,4.76,1.31,.24,2.57,.48,3.87,.73,.09,1.05,.18,2.04,.25,3.02,.08,1.04,.14,2.08,.21,3.21,.71,.14,1.42,.17,2.06,.41,2.55,.94,4.47,.28,5.86-2.07,.57-.96,1.31-1.73,2.67-1.17,.99,.41,2.61,.3,2.99,.97,1.07,1.87,2.54,1.81,4.18,1.53,.64-.11,1.24-.51,2.16-.9,1.55,.65,1.62,.61,3.12,3.19,.71,1.23,1.54,1.91,2.95,1.6,2.23-.5,3.3,.79,3.95,2.59,.28,.78,.4,1.66,.36,2.49-.04,1.12,.55,1.44,1.44,1.88,2.74,1.36,5.63,1.47,8.59,1.42,.48,0,1.24,.16,1.41,.48,.91,1.76,2.09,3.1,4.69,3.3-.79,1.52-1.25,2.84-2.06,3.87-1.2,1.52-2.2,3-2.15,5.06,.03,1.18-.43,2.39-.33,3.56,.17,1.97-.87,3.18-2.39,3.89-1,.46-2.28,.42-3.43,.44-.85,0-1.28,.29-1.79,.97-1.02,1.37-.44,2.68-.09,3.98,.32,1.19,.23,2.12-.65,3.11-1.29,1.44-2.66,2.93-3.5,4.64-1.38,2.83-3.93,3.54-6.53,4.37-.6,.19-1.14,.53-1.72,.79,.51,.35,1.01,.7,1.52,1.06,.08,.06,.15,.13,.49,.43-.63,.89-1.28,1.8-2.16,3.03,1.07,.44,2.05,.84,3.12,1.28,0,.09,.08,.37-.01,.58-1.1,2.51-.56,4.44,1.89,5.84,.17,.1-.16,1.52-.22,1.52-1.58-.09-3.23,.56-4.73-.63-2.33-1.86-4.17-4.05-5.56-6.72-.76-1.45-1.23-2.83-.86-4.39,.51-2.12,.02-3.86-1.47-5.46-.41-.44-.54-1.33-.48-1.99,.13-1.47,.45-2.92,.71-4.51-1.4,0-1.48-.83-1.46-1.82,.04-2.54-.18-5.1,.07-7.62,.23-2.32-.65-3.67-2.54-4.82-1.91-1.17-4.63-1.57-4.86-4.57-.01-.16-.23-.31-.36-.47-.87-1.09-1.67-2.25-2.63-3.25-1.37-1.42-2.18-2.89-1.37-4.91,.18-.44,.19-1,.12-1.48-.26-1.78,.53-2.93,2.07-3.67,.18-.09,.32-.24,.5-.33,.97-.49,1.25-1.19,1.07-2.3-.47-2.96-.42-2.91-3.44-3.17-1.02-.09-2.39-.29-2.92-.97-2.17-2.75-4.58-4.92-8.26-5.17-.04,0-.07-.06-.14-.13v-1.98c-1.11,.33-2.11,.98-2.91,.79-2.69-.62-5.86-.44-7.23-3.78-.35-.85-.86-1.44-.22-2.41,.23-.35,.04-1.23-.26-1.66-1.8-2.62-3.79-5.13-3.85-8.54,0-.08-.11-.15-.22-.3-.37,.02-.79,.04-1.2,.07-.19,2.72,.8,4.91,2.29,6.99,.48,.67,.54,1.63,.8,2.46-.17,.14-.35,.28-.52,.42-.8-.35-1.9-.48-2.34-1.08-1.64-2.26-3.12-4.66-2.51-7.69,.07-.34,.1-.73-.01-1.04-.19-.49-.44-1.22-.81-1.33-1.92-.55-2.38-1.82-2.09-3.6,.04-.23-.05-.48-.11-.96-13.7,31.79-1.57,73.1,34.64,90.39,34.25,16.36,69.37,1.07,84.19-19.09-.6-.04-1.19-.07-1.95-.12,0-1.23,.05-2.41-.02-3.59-.03-.56-.13-1.28-.49-1.64-1.96-1.96-2.51-4.31-2.17-6.96,.15-1.12-.23-1.98-1.09-2.75-1.27-1.15-1.43-2.6-.63-4.16,.48-.93,.91-1.89,1.46-2.77,.53-.85,.54-1.56,0-2.45-1.32-2.17-2.56-4.38-3.75-6.63-.3-.57-.41-1.31-.39-1.96,.06-1.58,.25-3.15,.4-4.78-.53-.08-.92-.17-1.31-.2-1.62-.14-3.09-.31-4.5-1.51-.71-.61-2.46-.11-3.71,.07-.87,.13-1.67,.68-2.54,.84-1.43,.26-2.88,.4-4.33,.51-1.33,.11-2.57,.17-3.58-1.17-1.43-1.91-3.12-3.62-4.7-5.42-.74-.84-1.29-5.91-.75-6.87,.04-.08,.14-.13,.19-.21,.47-.75,.93-1.51,1.51-2.45-.96-.17-1.43-.25-1.68-.3-1.21-1.67-.55-2.62,.84-3.5,1.64-1.04,3.12-2.32,4.76-3.36,1.07-.68,1.45-1.48,1.34-2.7-.07-.76-.15-1.99,.25-2.24,1.46-.91,2.75-2.3,4.8-2.02,1.82,.24,3.68,.27,5.29-.95,.26-.2,.64-.33,.97-.35,2.42-.2,4.85-.36,7.43-.55v3.96c1.57,.41,3.02,.73,4.45,1.17,1.36,.41,2.68,.94,4.13,1.45,.06-.94,.1-1.58,.14-2.23,1.94-.45,3.74-.68,5.32,.89,2.21,2.19,4.91,.87,7.69,1.24-.55-1.65-1.08-2.89-1.37-4.17-.34-1.48-1.06-1.95-2.6-1.81-2.27,.2-3.5-1.06-3.71-3.41-.05-.52-.13-1.04-.2-1.54-2.78,.45-1.98,3.05-3.09,4.75-.9-1.18-2.32-2.21-2.36-3.28-.06-2.13-1.32-3.1-2.57-4.39-1.28-1.33-2.62-1.2-4.04-1.04-.15,3.41,3.25,3.42,4.65,4.98-.19,.71-.49,1.22-.41,1.68,.23,1.36-.73,1.67-1.63,1.83-1.02,.18-1.98-.1-2.28-1.33,.83-.51,2.24,.58,2.61-.97-1.79-1.93-4.75-2.39-5.9-5.17-1.08,1.19-2.19,2.26-3.97,1.55-.17-.07-.56,.18-.72,.38-1.02,1.29-2.39,2.47-2.91,3.94-.69,1.92-1.96,1.96-3.47,1.97-.8,0-1.61,.11-2.39-.02-1.28-.22-2.56-.53-2.57-2.28,0-.69-.29-1.38-.26-2.07,.05-1.22,.24-2.47,1.88-2.51,1.85-.04,3.7-.01,5.67-.01,.11-.44,.25-1.01,.4-1.64-.54-.2-.99-.36-1.47-.54,.11-.76,.1-1.49,.36-2.1,.18-.44,.73-1.02,1.12-1.03,2-.04,3.37-.94,4.22-2.71,.53-1.09,1.39-1.63,2.62-1.61,1.36,.02,2.73,0,4.18,0-.16-1.05-.3-2.02-.46-3.11-1.01,.35-1.92,.66-2.6,.89-.73-.91-1.19-1.97-1.99-2.38-1.2-.63-1.71-1.58-.69-2.51,.78-.71,1.84-1.09,2.74-1.68,.77-.5,1.48-1.09,2.28-1.69Zm4.88,4.67c-.03,1.98-.35,3.58-2.54,4.15-.29,.08-.46,.6-.68,.92,.32,.17,.63,.45,.96,.47,.94,.07,1.9-.07,2.82,.07,1.32,.2,1.83-.71,2.14-1.59,.15-.43-.31-1.18-.66-1.66-.61-.84-1.35-1.58-2.04-2.36Zm-76.69,12.76c.46-1.29-.14-2.08-1-2.32-1.95-.54-4.03,.42-4.38,2.08,1.84,.08,3.63,.16,5.38,.24Zm-4.47,4.5c.87-1.22,1.76-2.47,2.72-3.83-2.17-.28-3.42,.49-3.86,2.08-.27,.99-.12,1.64,1.14,1.74Zm-11.46-22.78v1.3c2.97,.39,4.38,.31,3.84-2.04-1.26,.24-2.52,.49-3.84,.74Zm7.53,13.71c1.83-.01,2.2-1.14,2.23-3.02-1.19,.22-2.24,.41-3.43,.62,.39,.83,.61,1.32,.85,1.8,.11,.22,.24,.42,.35,.59Zm6.93,10.11c2.51,.39,3.2-.1,2.97-2.1-1.88,.02-2.76,.65-2.97,2.1Zm-14.24-19.79c0,.2,0,.4,0,.59,1.14,.48,2.37,.22,3.55,.02,.18-.03,.23-.78,.44-1.53-1.56,.36-2.77,.63-3.98,.91Zm18.62,16.11c-.17,2.3,.16,2.53,2.6,2.18,.3-2.17-1.7-1.28-2.6-2.18Zm-3.02,.76c1.93-.02,2.43-.51,2.05-2h-2.05v2Zm89.56,3.89c-.58-1.2-1.06-2.2-1.54-3.19-.13,.05-.26,.09-.38,.14v3.17c.61-.04,1.1-.07,1.93-.12Z"/>
  <path class="cls-1" d="M190.97,29.81c.53,2.66,1.23,5.08,3.97,6.22-1.38,2.65-3.8,1.66-5.97,1.92,.11-1.35-.25-2.78,2.31-2.74-.72-.84-1.1-1.36-1.55-1.79-.66-.64-2.02-.77-1.66-2.13,.37-1.44,1.64-1.34,2.9-1.48Z"/>
  <path class="cls-1" d="M184.39,36.92c-.31-1.99,.95-3.85,2.75-3.94,.55-.03,1.51,.32,1.59,.66,.12,.51-.2,1.4-.63,1.72-1.05,.79-1.98,2.05-3.71,1.56Z"/>
  <path class="cls-1" d="M147.48,42.96c.96-.54,1.76-1.06,2.61-1.44,.36-.16,.85-.03,1.67-.03-.99,.95-1.63,1.84-2.49,2.32-.88,.48-1.71,.12-1.79-.85Z"/>
  <path class="cls-3" d="M137.14,113.69c-.7,.49-1.5,.87-2,1.62-.82,.26-1.26,.96-1.81,1.53-.11,.07-.25,.12-.34,.21-7.95,8.11-11.14,17.77-9.11,28.97,1.59,8.77,6.31,15.61,13.66,20.63,.95,.71,1.98,1.28,3.05,1.76,1.57,.92,3.23,1.62,5,2.05,.62,.37,1.32,.46,2.01,.6,.05,.05,.08,.13,.13,.14,4.64,.98,9.28,1.14,13.95,.21,14.3-2.83,25.21-15.7,25.54-30.28,.23-9.84-3.27-18.18-10.55-24.83-10.9-9.97-27.46-11.03-39.55-2.62h.02Z"/>
  <path class="cls-2" d="M89.73,213.71c-.69,2.08-1.27,4.22-1.44,6.43-.32,.64-.21,1.36-.39,2.03-.02,.26-.04,.51-.05,.77-.05,.16-.06,.32-.06,.46-.39,2.6-.42,5.21-.28,7.83,0,.06,0,.14,.02,.2-.02,.1-.05,.2-.05,.3v20.87c0,.2-.14,.49,.22,.56h.38c5.09,.02,10.19,.04,15.29,.04,.83,0,2.01,.38,2.4-.15,.39-.55,.03-1.65,0-2.51,0-.24,.04-.46,.02-.7-.31-5.55-.62-11.1-.92-16.66-.09-1.57-.23-3.14-.22-4.71,0-1.69,1.59-3.19,3.25-3.23,1.61-.04,3.22,1.4,3.33,3.03,.27,4.47,.53,8.96,.78,13.44,.2,3.58,.42,7.16,.57,10.74,.03,.68,.24,.79,.87,.78,9.46-.03,18.91,0,28.37-.02,2.14,0,4.28-.04,6.43-.06,.13,.02,.26,.05,.39,.05,9.37,0,18.73,0,28.1,0,.36,0,.73-.04,1.1-.05,.26,.04,.53,.09,.79,.09,6.23,0,12.47-.02,18.7,0,.58,0,.63-.21,.66-.68,.14-2.74,.32-5.48,.44-8.22,.23-5.05,.74-10.08,.73-15.14,.27-1.06,.27-2.22,1.24-3,.46-.41,.98-.68,1.57-.87,.61-.15,1.21-.03,1.81,.06,.62,.29,1.11,.75,1.58,1.23,.46,.73,.65,1.53,.68,2.39-.03,.12-.05,.24-.07,.35-.25,.96-.17,1.91-.12,2.88-.03,.26-.07,.53-.09,.8-.35,6.42-.67,12.85-1.05,19.27-.05,.71,0,.95,.83,.94,5.59-.05,11.2-.04,16.79,0,.64,0,.83-.12,.82-.8-.04-3.49,.04-6.97-.03-10.46-.13-6.46,.37-12.94-.4-19.39-.66-5.49-2.16-10.73-4.49-15.73-3.9-8.36-9.6-15.24-17.12-20.61-7.68-5.49-16.26-8.57-25.62-9.57-.52-.05-.82,.1-1.13,.54-5.27,7.58-10.64,15.09-15.81,22.73-1.66,2.45-4.79,2.54-6.49,.05-5.15-7.62-10.5-15.11-15.74-22.66-.38-.55-.76-.73-1.38-.65-2.31,.33-4.64,.6-6.91,1.18-19.33,4.93-32,16.97-38.29,35.82h-.02Z"/>
  <path class="cls-3" d="M216.45,132.94c-.77,.54-1.65,.96-2.2,1.78-.9,.28-1.38,1.05-1.99,1.68-.12,.08-.27,.13-.37,.23-8.72,8.9-12.23,19.5-10,31.79,1.75,9.63,6.92,17.13,14.99,22.64,1.04,.78,2.17,1.41,3.35,1.93,1.72,1.01,3.55,1.78,5.49,2.25,.68,.41,1.45,.5,2.21,.66,.05,.05,.09,.14,.14,.15,5.09,1.08,10.18,1.25,15.31,.23,15.69-3.11,27.67-17.23,28.03-33.23,.25-10.8-3.59-19.95-11.58-27.25-11.96-10.94-30.14-12.11-43.4-2.87h.02Z"/>
  <path class="cls-4" d="M164.41,242.71c-.76,2.28-1.39,4.63-1.58,7.06-.35,.7-.23,1.49-.43,2.23-.02,.28-.04,.56-.06,.84-.06,.18-.07,.35-.07,.51-.43,2.85-.46,5.72-.31,8.59,0,.07,.01,.15,.02,.22-.02,.11-.05,.22-.05,.33v22.9c0,.22-.15,.54,.24,.62h.42c5.59,.02,11.18,.04,16.78,.04,.91,0,2.21,.42,2.63-.16,.43-.6,.03-1.81,0-2.75,0-.26,.04-.51,.02-.77-.34-6.09-.68-12.18-1.01-18.28-.1-1.72-.25-3.45-.24-5.17,.01-1.86,1.75-3.5,3.57-3.54,1.77-.04,3.53,1.54,3.65,3.33,.3,4.91,.58,9.83,.86,14.75,.22,3.93,.46,7.86,.63,11.79,.03,.75,.26,.87,.96,.86,10.38-.03,20.75-.01,31.13-.02,2.35,0,4.7-.04,7.06-.07,.14,.02,.29,.05,.43,.05,10.28,0,20.56,0,30.84-.01,.4,0,.8-.04,1.21-.05,.29,.04,.58,.1,.87,.1,6.84,0,13.68-.02,20.52,0,.64,0,.69-.23,.72-.75,.15-3.01,.35-6.01,.48-9.02,.25-5.54,.81-11.06,.8-16.62,.3-1.16,.3-2.44,1.36-3.29,.5-.45,1.08-.75,1.72-.96,.67-.16,1.33-.03,1.99,.07,.68,.32,1.22,.82,1.73,1.35,.51,.8,.71,1.68,.75,2.62-.03,.13-.05,.26-.08,.38-.27,1.05-.19,2.1-.13,3.16-.03,.29-.08,.58-.1,.88-.38,7.05-.74,14.1-1.15,21.15-.05,.78,0,1.04,.91,1.03,6.14-.05,12.29-.04,18.43,0,.7,0,.91-.13,.9-.88-.04-3.83,.04-7.65-.03-11.48-.14-7.09,.41-14.2-.44-21.28-.72-6.02-2.37-11.78-4.93-17.26-4.28-9.17-10.54-16.73-18.79-22.62-8.43-6.02-17.85-9.4-28.12-10.5-.57-.06-.9,.11-1.24,.59-5.78,8.32-11.68,16.56-17.35,24.95-1.82,2.69-5.26,2.79-7.12,.05-5.65-8.36-11.52-16.58-17.27-24.87-.42-.6-.83-.8-1.51-.71-2.54,.36-5.09,.66-7.58,1.3-21.21,5.41-35.12,18.62-42.02,39.31h-.02Z"/>
  <path class="cls-3" d="M54.57,132.94c-.77,.54-1.65,.96-2.2,1.78-.9,.28-1.38,1.05-1.99,1.68-.12,.08-.27,.13-.37,.23-8.72,8.9-12.23,19.5-10,31.79,1.75,9.63,6.92,17.13,14.99,22.64,1.04,.78,2.17,1.41,3.35,1.93,1.72,1.01,3.55,1.78,5.49,2.25,.68,.41,1.45,.5,2.21,.66,.05,.05,.09,.14,.14,.15,5.09,1.08,10.18,1.25,15.31,.23,15.69-3.11,27.67-17.23,28.03-33.23,.25-10.8-3.59-19.95-11.58-27.25-11.96-10.94-30.14-12.11-43.4-2.87h.02Z"/>
  <path class="cls-4" d="M2.53,242.71c-.76,2.28-1.39,4.63-1.58,7.06-.35,.7-.23,1.49-.43,2.23-.02,.28-.04,.56-.06,.84-.06,.18-.07,.35-.07,.51-.43,2.85-.46,5.72-.31,8.59,0,.07,.01,.15,.02,.22-.02,.11-.05,.22-.05,.33v22.9c0,.22-.15,.54,.24,.62h.42c5.59,.02,11.18,.04,16.78,.04,.91,0,2.21,.42,2.63-.16,.43-.6,.03-1.81,0-2.75,0-.26,.04-.51,.02-.77-.34-6.09-.68-12.18-1.01-18.28-.1-1.72-.25-3.45-.24-5.17,.01-1.86,1.75-3.5,3.57-3.54,1.77-.04,3.53,1.54,3.65,3.33,.3,4.91,.58,9.83,.86,14.75,.22,3.93,.46,7.86,.63,11.79,.03,.75,.26,.87,.96,.86,10.38-.03,20.75-.01,31.13-.02,2.35,0,4.7-.04,7.06-.07,.14,.02,.29,.05,.43,.05,10.28,0,20.56,0,30.84-.01,.4,0,.8-.04,1.21-.05,.29,.04,.58,.1,.87,.1,6.84,0,13.68-.02,20.52,0,.64,0,.69-.23,.72-.75,.15-3.01,.35-6.01,.48-9.02,.25-5.54,.81-11.06,.8-16.62,.3-1.16,.3-2.44,1.36-3.29,.5-.45,1.08-.75,1.72-.96,.67-.16,1.33-.03,1.99,.07,.68,.32,1.22,.82,1.73,1.35,.51,.8,.71,1.68,.75,2.62-.03,.13-.05,.26-.08,.38-.27,1.05-.19,2.1-.13,3.16-.03,.29-.08,.58-.1,.88-.38,7.05-.74,14.1-1.15,21.15-.05,.78,0,1.04,.91,1.03,6.14-.05,12.29-.04,18.43,0,.7,0,.91-.13,.9-.88-.04-3.83,.04-7.65-.03-11.48-.14-7.09,.41-14.2-.44-21.28-.72-6.02-2.37-11.78-4.93-17.26-4.28-9.17-10.54-16.73-18.79-22.62-8.43-6.02-17.85-9.4-28.12-10.5-.57-.06-.9,.11-1.24,.59-5.78,8.32-11.68,16.56-17.35,24.95-1.82,2.69-5.26,2.79-7.12,.05-5.65-8.36-11.52-16.58-17.27-24.87-.42-.6-.83-.8-1.51-.71-2.54,.36-5.09,.66-7.58,1.3-21.21,5.41-35.12,18.62-42.02,39.31h-.02Z"/>
</svg>