<?xml version="1.0" encoding="utf-8"?>
<!-- Generator: Adobe Illustrator 26.5.0, SVG Export Plug-In . SVG Version: 6.00 Build 0)  -->
<svg version="1.1" id="Layer_1" xmlns="http://www.w3.org/2000/svg" xmlns:xlink="http://www.w3.org/1999/xlink" x="0px" y="0px"
	 viewBox="0 0 729.87 173.58" style="enable-background:new 0 0 729.87 173.58;" xml:space="preserve">
<style type="text/css">
	.logoExact0{fill:#2F4589;}
	.logoExact1{fill:#F5BD31;}
	.logoExact2{fill:#F6BA26;}
	.logoExact3{fill:#2A3F86;}
	.logoExact4{fill:#2A3F87;}
	.logoExact5{fill:#F5C03F;}
	.logoExact6{fill:#F5BF3E;}
	.logoExact7{fill:#F5C042;}
	.logoExact8{fill:#F5C041;}
	.logoExact9{fill:#42508B;}
	.logoExact10{fill:#43508A;}
	.logoExact11{fill:#33498C;}
	.logoExact12{fill:#43518C;}
	.logoExact13{fill:#45538E;}
	.logoExact14{fill:#6470A2;}
	.logoExact15{fill:#4F5D93;}
	.logoExact16{fill:#4D5A92;}
	.logoExact17{fill:#F7F8FA;}
	.logoExact18{fill:#F9F9FB;}
	.logoExact19{fill:#34478A;}
	.logoExact20{fill:#31468A;}
	.logoExact21{fill:#2B3F87;}
</style>
<path class="logoExact0" d="M253.96,52.9c1.63,1.19,3.52,0.8,5.32,0.81c27.97,0.08,55.94,0.11,83.92,0.2c4.11,0.01,6.12-1.6,6.01-5.95
	c-0.18-6.99,0.23-13.99-0.14-20.96c-0.25-4.65,2.67-4.67,5.68-4.89c3.05-0.22,6.51-0.46,6.59,3.93c0.2,11.14,0.19,22.29,0.17,33.43
	c0,2.38-1.48,3.6-3.87,3.63c-1.5,0.02-3,0.03-4.5,0.03c-89.75,0-179.5-0.01-269.25,0.02c-7.82,0-15.63,0.31-23.45,0.39
	c-3.47,0.04-5.73,1.15-7.31,4.65c-2.73,6.02-7.05,10.14-14.4,10.57c-6.65,0.4-13.25,1.28-19.91,0.49
	c-7.2-0.86-14.16-2.12-16.77-10.39c0-10.33,0-20.65,0-30.98c1.15-0.18,2.3-0.48,3.46-0.52c6.72-0.24,7.44,0.5,7.48,7.19
	c0.03,5.49,0.04,10.99,0.21,16.48c0.15,4.58,2.67,7.01,7.26,7.17c3.16,0.11,6.35,0.39,9.47,0.08c8.99-0.89,12.1-4.31,12.17-13.51
	c0.12-15.49,0.02-30.97,0.04-46.46c0.01-6.15,0.58-6.44,6.44-6.69c5.48-0.23,5.71,2.9,5.66,7.03c-0.16,13.15-0.02,26.31-0.14,39.46
	c-0.04,4.04,1.53,5.85,5.64,5.61c2.8-0.16,5.64-0.17,8.43,0.08c4.46,0.4,5.95-1.65,5.83-5.87c-0.19-6.99,0.02-13.99-0.18-20.98
	c-0.08-3,0.43-4.42,3.98-4.39c8.54,0.08,8.53-0.12,8.43,8.5c-0.07,5.66,0,11.33-0.22,16.98c-0.16,3.99,1.26,5.8,5.47,5.7
	c8.16-0.19,16.33-0.2,24.49,0c5.11,0.13,8.17-1.9,9.37-6.92c1.43-5.96,3.51-11.49,10.48-13.05c1.46-0.55,2.54-1.47,2.89-3.07
	c0.73-2.59,3.39-2.52,5.13-3.74c2.94-0.59,5.69-1.79,8.57-2.55c3.31-0.87,6.69-2.67,9.49,1.1c0.36,0.48-0.22,0.25,0.39,0.24
	c10.2-0.2,8.58,8.3,10.04,14.13c0.77,3.09,0.75,6.53,0.74,9.85c0,4.43,1.26,5.35,5.66,4.72c2.63-0.38,5.24,0.4,7.9-0.03
	c1.42-0.23,2.55-0.43,3.29-1.7l-0.07,0.06c1.42-3.13,1.94-6.51,2.74-9.82c-0.24,0.54-0.05,1.28-0.56,1.65
	c-0.7,0.5-1.31,0.13-1.39-0.63c-0.17-1.47-0.31-2.96,0.24-4.4c0.76-3.3,3.45-1.11,5.13-1.79c4.42,0.25,6.3,2.68,6.01,6.99
	c-0.09,1.33,0.46,2.58,0.49,3.9c0.05,2.2-0.76,5.36,2.4,5.6c3.43,0.27,7.7,2.04,10-2.63c0.14-5.64,0.51-11.29,0.34-16.92
	c-0.18-6.21,4.16-4.52,7.54-4.83c3.99-0.37,5.31,1.41,5.11,5.26c-0.23,4.47,0.07,8.96-0.02,13.44c-0.07,3.37,0.94,5.56,4.77,5.3
	c3.73-0.25,7.71-0.32,7.71-5.59c0.01-6.31,0.06-12.63-0.3-18.92c-0.24-4.16,0.39-6.89,5.43-5.9c0.16,0.03,0.33,0,0.5,0
	c7.25-0.01,7.25-0.01,7.05,7.27c0.43,6.26-1.38,12.5-0.08,18.77C253.2,50.75,253.25,51.91,253.96,52.9z"/>
<path class="logoExact1" d="M2.05,103.85c10.43-1.34,20.91-0.71,31.37-0.79c3.83-0.03,7.66,0.1,11.49,0.17c3.9,0.07,5.07,2.34,5.04,5.91
	c-0.03,3.52-0.02,6.94-4.7,7.28c-2.31,0.17-4.66,0.13-6.97-0.09c-4.41-0.42-6.81,1.61-6.83,5.87c-0.07,14.13-0.02,28.25,0.17,42.38
	c0.04,2.73,0.61,5.57-2.15,7.12c-3.11,1.75-6.59,1.43-9.6-0.22c-2.7-1.48-2.57-4.47-2.38-7.14c0.99-13.97,0.27-27.95,0.38-41.92
	c0.04-4.97-1.75-6.34-6.89-5.9c-3.03,0.26-5.96-0.33-8.93-0.68C2.05,111.84,2.05,107.84,2.05,103.85z"/>
<path class="logoExact2" d="M729.79,124.83c0,13.14-0.14,26.29,0.07,39.43c0.08,4.69-1.49,6.64-6.32,6.56c-11.48-0.2-22.97-0.11-34.46-0.04
	c-4.2,0.02-7.87-1.23-10.94-4.05c-14.51-13.36-31.14-23.27-49.49-30.31c-3.51-1.35-4.82-3.55-4.78-7.18
	c0.12-9.81-0.01-19.63,0.06-29.45c0.04-5.11,0.61-5.22,5.58-3.98c19.78,4.94,36.02,16.83,53.29,26.72c2.66,1.52,5.59,5.2,8.08,3.8
	c2.5-1.4,0.87-5.8,0.88-8.85c0.1-22.96,0.04-45.92,0.08-68.88c0-2.22-0.76-5.13,1.92-6.18c2.56-1,4.25,1.44,5.89,2.96
	c10.13,9.42,19.52,19.49,27.08,31.17c1.98,3.06,2.91,6.27,2.9,9.86c-0.03,12.81-0.01,25.62-0.01,38.43
	C729.69,124.83,729.74,124.83,729.79,124.83z"/>
<path class="logoExact2" d="M455.88,43.64c0.44,16.94,0.85,32.7,1.26,48.47c0.3,11.3,0.58,22.6,0.93,33.9c0.04,1.25-0.54,2.97,0.92,3.6
	c1.42,0.61,2.35-0.89,3.33-1.71c17.57-14.7,37.19-25.61,59.07-32.52c3.62-1.14,5.18-1.04,4.85,3.31c-0.55,7.3-0.01,14.61,0.59,21.9
	c0.71,8.55-3.15,14.67-11.04,17.59c-17.18,6.35-32.01,16.14-44.75,29.2c-2.02,2.07-4.52,2.63-7.28,2.63
	c-12.49-0.02-24.97-0.08-37.46,0.04c-3.81,0.04-5.37-1.35-5.36-5.26c0.09-26.62,0.05-53.25,0.04-79.87c0-2.04,0.23-4.02,1.43-5.71
	C431.65,66.1,442.44,54.46,455.88,43.64z"/>
<path class="logoExact3" d="M661.12,60.86c-4.29-1.14-7.36-2.71-10.39-4.45c-45.94-26.36-92.92-26.47-140.67-5.37
	c-5.65,2.5-10.67,6.1-15.71,9.65c-3.57,2.51-5.32,1.91-5.4-2.3c-0.23-11.3-0.12-22.62,0.08-33.93c0.05-2.89,2.28-4.67,4.83-5.87
	c29.78-14.03,61.07-20.22,93.98-18.23c20.78,1.26,40.77,5.8,60.05,13.62c1.22,0.49,2.55,0.71,3.83,1.06
	c5.8,1.58,9.23,5.38,9.35,11.42C661.28,37.75,661.12,49.05,661.12,60.86z"/>
<path class="logoExact4" d="M594.2,119.11c0,14.98,0.02,29.96-0.01,44.95c-0.01,5.81-0.98,6.59-6.68,6.51c-8.66-0.12-17.32-0.26-25.98-0.02
	c-4.15,0.12-5.43-1.25-5.4-5.4c0.16-24.64,0.09-49.27,0.07-73.91c0-5.66-0.1-11.32-0.19-16.97c-0.06-3.69,1.61-5.56,5.4-5.55
	c9.31,0.03,18.64,0.2,27.94-0.1c4.37-0.14,5.3,1.61,5.25,5.56c-0.18,14.98-0.07,29.95-0.07,44.93
	C594.42,119.11,594.31,119.11,594.2,119.11z"/>
<path class="logoExact1" d="M155.23,135.33c0-9.99,0.12-19.98-0.06-29.96c-0.06-3.51,1.15-4.9,4.62-4.52c1.65,0.18,3.33,0.06,4.99,0.04
	c3.56-0.04,5.29,1.93,5.21,5.26c-0.08,3.31-0.47,6.63-0.99,9.9c-0.53,3.37,0.32,4.91,4.08,4.66c4.14-0.28,8.33-0.19,12.48,0.03
	c7.92,0.42,12.67,4.93,13.35,12.79c0.96,10.94,0.99,21.93,1.17,32.91c0.07,4.06-1.49,5.67-5.63,5.54c-7.61-0.24-8.45-0.59-8.51-5.81
	c-0.09-6.82,0.04-13.65-0.06-20.47c-0.04-2.31-0.32-4.65-0.81-6.91c-0.95-4.36-3.66-6.53-8.28-6.08c-5.37,0.52-7.68,2.67-7.94,7.73
	c-0.41,7.96-0.98,15.91-0.11,23.9c0.62,5.68-1.23,7.39-7.13,7.6c-5.7,0.2-6.58-0.73-6.59-7.16c-0.02-9.82,0-19.64,0-29.46
	C155.09,135.33,155.16,135.33,155.23,135.33z"/>
<path class="logoExact1" d="M105.77,131.86c-2.66,0-5.33-0.09-7.98,0.03c-2.36,0.11-4.59,1.45-4.99,3.51c-0.44,2.29,1.75,3.93,3.87,4.58
	c3.8,1.18,7.72,1.99,11.58,2.99c6.69,1.73,9.39,4.76,9.72,10.87c0.51,9.48-1.84,14.7-8.12,17.05c-10.01,3.75-20.04,1.39-30.02-0.33
	c-1.79-0.31-2.57-2.02-2.37-3.9c0.29-2.69,1.37-4.85,4.29-5.4c2.98-0.57,5.96-0.1,8.93,0.26c3.67,0.44,7.35,0.68,10.4-2.08
	c2.98-2.69,2.63-4.84-1.23-6.03c-4.45-1.37-9.05-2.24-13.49-3.63c-6.74-2.1-9.26-5.75-9.4-12.97c-0.13-6.54,3.31-12.18,8.83-14.33
	c9.31-3.63,18.61-2.29,27.9,0.14c3.61,0.95,2.31,3.93,2.46,6.18c0.18,2.63-1.61,3.35-3.91,3.32c-2.16-0.03-4.32-0.01-6.48-0.01
	C105.77,132.02,105.77,131.94,105.77,131.86z"/>
<path class="logoExact1" d="M359.92,137.23c0,9.66-0.11,19.31,0.05,28.97c0.07,4.09-0.69,6.72-5.63,6.73c-7.32,0.01-10.43-1.65-10.62-6.74
	c-0.28-7.48-0.29-14.97-0.39-22.44c-0.17-12.3,0.48-24.61,0.95-36.91c0.14-3.65,0.26-7.77,5.64-7.66c7.48,0.15,9.98,2.33,10,8.59
	C359.93,117.59,359.92,127.41,359.92,137.23z"/>
<path class="logoExact5" d="M305.93,142.79c0.37,6.79-0.65,14.57,1.44,22.32c1.33,4.91-1.66,7.77-6.89,7.79c-1.33,0.01-2.66-0.01-3.99-0.03
	c-4.94-0.1-6.57-1.79-6.24-6.7c0.88-13.27,0.69-26.54,0.11-39.81c-0.16-3.57,1.08-5.52,5.11-5.62c10.47-0.26,10.46-0.39,10.46,10.12
	C305.93,134.51,305.93,138.16,305.93,142.79z"/>
<path class="logoExact6" d="M237.69,145.91c0-6.49-0.05-12.99,0.02-19.48c0.05-4.74,2.07-6.48,7.33-6.52c5.44-0.04,8.72,2.41,8.49,6.92
	c-0.68,13.48-0.48,26.94-0.11,40.42c0.11,4.03-1.77,6.1-5.94,6.3c-6.19,0.29-9.04-1.08-9.24-5.67c-0.32-7.31-0.09-14.65-0.09-21.97
	C237.98,145.91,237.83,145.91,237.69,145.91z"/>
<path class="logoExact7" d="M299.53,100.68c4.99-0.07,8.12,3,8.04,7.88c-0.06,4.07-4.55,7.83-9.4,7.87c-5.35,0.05-7.88-2.61-8-8.41
	C290.06,102.65,292.45,100.78,299.53,100.68z"/>
<path class="logoExact8" d="M253.22,107.49c-0.21,7.24-1.41,8.5-7.31,8.27c-5.67-0.22-9.54-3.44-9.53-7.95c0.01-4.06,6.48-8.37,12.66-7.8
	C254.02,100.48,252.83,104.86,253.22,107.49z"/>
<path class="logoExact9" d="M189.91,52.76c-0.37,1.76,1.6,5.46-3.37,3.06c-2.01-0.97-5.58-2.18-7.94-0.31c-3.29,2.59-4.31,0.22-5.69-1.87
	c-1.18-1.78-1.13-3.86-0.86-5.8c0.82-5.92-1.62-11.23-2.9-16.75c-0.67-2.89-2.09-4.95-5.65-3.54c-0.71,0.28-2.16,0.37-2.33,0.04
	c-3.82-7.17-8.29-0.81-12.33-0.44c-1.89,0.17-3.84,0.72-5.82,0.77c-1.42-2.56-1.16-3.28,2.01-5.49c4.77,0.2,9.56-0.46,14.31,0.36
	c8.95-0.11,13.52,4.2,13.84,13.03c0.16,4.46,0.32,8.91,0.47,13.37c0.11,3.19,1.55,4.89,4.96,4.7
	C182.39,53.69,186.2,53.7,189.91,52.76z"/>
<path class="logoExact10" d="M345.99,10c0.33,3.18-0.98,5.4-4.91,5.43c-5.38,0.05-7.1-1.33-7.12-5.84c-0.02-3.27,0.04-6.55,4.65-6.64
	C343.31,2.86,345.96,5.21,345.99,10z"/>
<path class="logoExact11" d="M354.21,3.85c4.09-0.25,7.11,0.6,7.01,5.51c-0.06,3.23-0.95,5.55-4.72,5.61c-3.9,0.06-6.16-2.89-6.57-7.79
	C349.6,3.3,352.01,3.81,354.21,3.85z"/>
<path class="logoExact12" d="M79.26,80.17c-4.85,1.18-5.07-2.34-5.24-6.09c-0.21-4.82,2.52-5.81,6.62-5.65c3.07,0.12,6.04-0.35,5.9,4.29
	C86.33,79.38,85.79,80.13,79.26,80.17z"/>
<path class="logoExact13" d="M64.43,80.09c-3.47,0.49-6.41,0.19-5.6-4.6c0.52-3.09-1.6-7.73,4.87-7.12c5.12,0.48,6.88,2.08,7.02,7.34
	C70.87,80.59,67.8,80.43,64.43,80.09z"/>
<path class="logoExact14" d="M253.96,52.9c-3.12-3.45-3.17-7.73-2.82-11.92c0.28-3.41,1.24-6.76,1.9-10.14
	C254.58,38.14,253.78,45.54,253.96,52.9z"/>
<path class="logoExact15" d="M214.9,51.7c-1.29,5.56-5.82,3.3-9.09,3.52c-3.15,0.22-3.88-2.14-3.95-4.99c-0.06-2.76-0.75-5.5-0.99-8.26
	c-0.26-3.08-3.36-2.65-4.88-4.15c4.91-0.93,6.64,1.72,6.84,6.08c0.04,0.83-0.07,1.69,0.1,2.49c0.5,2.3-1.59,5.91,1.24,6.72
	C207.57,54.09,211.74,55.11,214.9,51.7z"/>
<path class="logoExact15" d="M190.87,39.62c0.13,1.4,0.25,2.8,0.42,4.65c0.54-1.05,0.86-1.68,1.39-2.71c0.84,4.51,0.47,8.25-2.83,11.26
	C190.22,48.42,189.14,43.91,190.87,39.62z"/>
<path class="logoExact16" d="M159.33,22.79c-5.14,0.12-10.27,0.24-15.41,0.36c-0.95,0.72-2,0.78-3.11,0.46c-0.41-0.18-0.72-0.47-0.93-0.87
	C146.37,21.95,152.85,21.87,159.33,22.79z"/>
<path class="logoExact16" d="M139.11,30.88c-0.26,1.91-1.14,3.12-3.28,2.93c1.88-1.72,2.04-3.91,2.07-6.3c0.02-1.73-1.03-4.18,1.99-4.77
	c0,0,0.28,0.38,0.28,0.38C141.04,25.87,139.89,28.35,139.11,30.88z"/>
<path class="logoExact17" d="M161.06,44.37c0,1.66,0.08,3.32-0.02,4.97c-0.09,1.54-0.57,3.32-2.26,3.38c-1.53,0.05-2.6-1.39-2.67-3.05
	c-0.21-5.16-1.89-9.69-5.41-13.54c-1.51-1.65-0.28-2.11,1.2-2.59c4.9-1.57,8.19,0.31,8.98,5.38c0.28,1.79,0.2,3.63,0.28,5.45
	C161.13,44.36,161.1,44.36,161.06,44.37z"/>
<path class="logoExact18" d="M139.51,44.47c3.38,0.12,5.34,1.83,5.37,4.85c0.04,3.38-2.54,4.95-5.52,5.03c-2.59,0.06-4.93-1.02-4.7-4.39
	C134.89,46.79,136.23,44.64,139.51,44.47z"/>
<path class="logoExact19" d="M139.11,30.88c0.18-2.61-0.81-5.38,1.06-7.76c1.25,0.01,2.51,0.02,3.76,0.03c0.96,1.83-1.81,2.95-0.9,4.77
	C143,30.61,139.67,28.91,139.11,30.88z"/>
<path class="logoExact20" d="M78.85,78.41c-1.02-1.64-2.51-3.18-2.93-4.96c-0.33-1.43,0.5-3.69,2.66-3.36c2.42,0.36,4.16,2.13,4.34,4.7
	C83.08,77.19,80.74,77.32,78.85,78.41z"/>
<path class="logoExact21" d="M68.01,74.39c0.53,2.87-1.11,3.55-3.7,3.58c-3.74,0.05-2.9-3.31-3.47-5.09c-0.57-1.77,0.97-3.13,3.36-3.06
	C67.31,69.92,68.25,71.5,68.01,74.39z"/>
</svg>
